<svg width="44" height="44" viewBox="0 0 44 44" fill="none" xmlns="http://www.w3.org/2000/svg" xmlns:xlink="http://www.w3.org/1999/xlink">
<path d="M18.605,11.932C19.191,11.346 19.191,10.397 18.605,9.811C18.019,9.225 17.069,9.225 16.484,9.811L18.605,11.932ZM6.416,22L5.355,20.939C5.074,21.221 4.916,21.602 4.916,22C4.916,22.398 5.074,22.779 5.355,23.061L6.416,22ZM16.484,34.189C17.069,34.775 18.019,34.775 18.605,34.189C19.191,33.603 19.191,32.653 18.605,32.068L16.484,34.189ZM16.484,9.811L5.355,20.939L7.477,23.061L18.605,11.932L16.484,9.811ZM5.355,23.061L16.484,34.189L18.605,32.068L7.477,20.939L5.355,23.061Z" fill="#191D31"/>
<line x1="6.729" y1="20.5" x2="37.584" y2="20.5" stroke="#191D31" stroke-width="1.5" stroke-miterlimit="10" stroke-linecap="round" stroke-linejoin="round"/>
</svg>
