<svg width="390" height="198" viewBox="0 0 390 198" fill="none" xmlns="http://www.w3.org/2000/svg" xmlns:xlink="http://www.w3.org/1999/xlink">
<g opacity="0.05">
<path d="M299.308,51.902C299.746,49.113 295.253,46.82 291.875,46.582C290.265,46.469 288.592,46.684 287.066,46.219C283.761,45.21 282.44,41.471 279.215,40.28C276.803,39.389 274.027,40.182 271.689,41.212C269.352,42.242 267.041,43.538 264.429,43.685C262.157,43.812 259.691,43.074 257.703,44.046C256.221,44.77 255.446,46.265 254.081,47.146C252.746,48.008 251.004,48.191 249.347,48.27C247.69,48.348 245.974,48.363 244.465,48.968C242.956,49.573 241.708,50.97 242.021,52.397L299.308,51.902Z" fill="#4B4B4B"/>
<path d="M374.565,43.352C375.003,40.563 370.509,38.27 367.132,38.032C365.522,37.918 363.849,38.134 362.323,37.668C359.018,36.659 357.697,32.92 354.472,31.729C352.06,30.838 349.284,31.631 346.946,32.661C344.609,33.691 342.298,34.987 339.687,35.134C337.415,35.261 334.948,34.523 332.961,35.495C331.479,36.219 330.704,37.714 329.339,38.595C328.004,39.457 326.261,39.64 324.605,39.719C322.948,39.797 321.232,39.812 319.723,40.417C318.214,41.022 316.966,42.419 317.279,43.845L374.565,43.352Z" fill="#63CAE1"/>
<path d="M157.133,13.25L104.043,13.25L104.043,191.074L157.133,191.074L157.133,13.25Z" fill="#63CAE1"/>
<path d="M157.134,13.25L130.59,13.25L130.59,190.634L157.134,190.634L157.134,13.25Z" fill="#4B4B4B"/>
<path d="M128.849,0L110.102,0L110.102,13.245L128.849,13.245L128.849,0Z" fill="#63CAE1"/>
<path d="M128.855,0L124.387,0L124.387,13.245L128.855,13.245L128.855,0Z" fill="#4B4B4B"/>
<path d="M99.621,13.255L99.621,12.482L158.688,12.482L158.688,13.255Z" fill="#086E86"/>
<path d="M119.017,19.021L114.523,19.021L114.523,26.619L119.017,26.619L119.017,19.021Z" fill="#1B5664"/>
<path d="M130.582,29.605C130.582,29.685 124.638,29.75 117.31,29.75C109.978,29.75 104.037,29.685 104.037,29.605C104.037,29.525 109.978,29.46 117.31,29.46C124.638,29.46 130.582,29.525 130.582,29.605Z" fill="#086E86"/>
<path d="M145.788,19.019L141.295,19.019L141.295,26.616L145.788,26.616L145.788,19.019Z" fill="#086E86"/>
<path d="M157.36,29.597C157.36,29.677 151.417,29.742 144.088,29.742C136.756,29.742 130.814,29.677 130.814,29.597C130.814,29.517 136.756,29.452 144.088,29.452C151.417,29.452 157.36,29.517 157.36,29.597Z" fill="#086E86"/>
<path d="M145.788,34.098L141.295,34.098L141.295,41.696L145.788,41.696L145.788,34.098Z" fill="#086E86"/>
<path d="M157.36,44.676C157.36,44.756 151.417,44.821 144.088,44.821C136.756,44.821 130.814,44.756 130.814,44.676C130.814,44.596 136.756,44.531 144.088,44.531C151.417,44.531 157.36,44.596 157.36,44.676Z" fill="#086E86"/>
<path d="M145.79,49.663L141.297,49.663L141.297,57.261L145.79,57.261L145.79,49.663Z" fill="#086E86"/>
<path d="M157.366,60.221C157.366,60.301 151.423,60.366 144.093,60.366C136.762,60.366 130.82,60.301 130.82,60.221C130.82,60.141 136.762,60.076 144.093,60.076C151.423,60.076 157.366,60.141 157.366,60.221Z" fill="#086E86"/>
<path d="M145.788,65.201L141.295,65.201L141.295,72.8L145.788,72.8L145.788,65.201Z" fill="#086E86"/>
<path d="M157.36,75.783C157.36,75.863 151.417,75.928 144.088,75.928C136.756,75.928 130.814,75.863 130.814,75.783C130.814,75.703 136.756,75.638 144.088,75.638C151.417,75.638 157.36,75.703 157.36,75.783Z" fill="#086E86"/>
<path d="M145.788,80.284L141.295,80.284L141.295,87.883L145.788,87.883L145.788,80.284Z" fill="#086E86"/>
<path d="M157.36,90.864C157.36,90.944 151.417,91.009 144.088,91.009C136.756,91.009 130.814,90.944 130.814,90.864C130.814,90.784 136.756,90.719 144.088,90.719C151.417,90.719 157.36,90.784 157.36,90.864Z" fill="#086E86"/>
<path d="M145.788,95.438L141.295,95.438L141.295,103.036L145.788,103.036L145.788,95.438Z" fill="#086E86"/>
<path d="M145.788,110.804L141.295,110.804L141.295,118.402L145.788,118.402L145.788,110.804Z" fill="#086E86"/>
<path d="M157.36,106.015C157.36,106.095 151.417,106.16 144.088,106.16C136.756,106.16 130.814,106.095 130.814,106.015C130.814,105.935 136.756,105.87 144.088,105.87C151.417,105.87 157.36,105.935 157.36,106.015Z" fill="#086E86"/>
<path d="M119.017,34.328L114.523,34.328L114.523,41.927L119.017,41.927L119.017,34.328Z" fill="#1B5664"/>
<path d="M130.582,44.913C130.582,44.993 124.638,45.058 117.31,45.058C109.978,45.058 104.037,44.993 104.037,44.913C104.037,44.832 109.978,44.768 117.31,44.768C124.638,44.768 130.582,44.832 130.582,44.913Z" fill="#086E86"/>
<path d="M119.017,49.661L114.523,49.661L114.523,57.26L119.017,57.26L119.017,49.661Z" fill="#1B5664"/>
<path d="M130.582,60.245C130.582,60.325 124.638,60.39 117.31,60.39C109.978,60.39 104.037,60.325 104.037,60.245C104.037,60.164 109.978,60.1 117.31,60.1C124.638,60.1 130.582,60.164 130.582,60.245Z" fill="#086E86"/>
<path d="M119.017,64.972L114.523,64.972L114.523,72.57L119.017,72.57L119.017,64.972Z" fill="#1B5664"/>
<path d="M130.582,75.554C130.582,75.634 124.638,75.699 117.31,75.699C109.978,75.699 104.037,75.634 104.037,75.554C104.037,75.474 109.978,75.409 117.31,75.409C124.638,75.409 130.582,75.474 130.582,75.554Z" fill="#086E86"/>
<path d="M119.017,80.284L114.523,80.284L114.523,87.883L119.017,87.883L119.017,80.284Z" fill="#1B5664"/>
<path d="M130.582,90.868C130.582,90.948 124.638,91.013 117.31,91.013C109.978,91.013 104.037,90.948 104.037,90.868C104.037,90.788 109.978,90.723 117.31,90.723C124.638,90.723 130.582,90.788 130.582,90.868Z" fill="#086E86"/>
<path d="M119.017,95.601L114.523,95.601L114.523,103.199L119.017,103.199L119.017,95.601Z" fill="#1B5664"/>
<path d="M130.582,106.174C130.582,106.255 124.638,106.319 117.31,106.319C109.978,106.319 104.037,106.255 104.037,106.174C104.037,106.094 109.978,106.029 117.31,106.029C124.638,106.029 130.582,106.094 130.582,106.174Z" fill="#086E86"/>
<path d="M119.017,110.925L114.523,110.925L114.523,118.523L119.017,118.523L119.017,110.925Z" fill="#1B5664"/>
<path d="M333.127,16.467L292.688,16.467L292.688,119.239L333.127,119.239L333.127,16.467Z" fill="#63CAE1"/>
<path d="M333.118,16.467L312.898,16.467L312.898,118.955L333.118,118.955L333.118,16.467Z" fill="#4B4B4B"/>
<path d="M311.581,6.381L297.301,6.381L297.301,16.47L311.581,16.47L311.581,6.381Z" fill="#63CAE1"/>
<path d="M311.585,6.381L308.182,6.381L308.182,16.47L311.585,16.47L311.585,6.381Z" fill="#4B4B4B"/>
<path d="M289.316,16.47L289.316,15.881L334.31,15.881L334.31,16.47Z" fill="#086E86"/>
<path d="M304.089,20.874L300.666,20.874L300.666,26.662L304.089,26.662L304.089,20.874Z" fill="#1B5664"/>
<path d="M312.907,28.94C312.907,29.001 308.38,29.05 302.798,29.05C297.213,29.05 292.688,29 292.688,28.94C292.688,28.879 297.214,28.829 302.798,28.829C308.381,28.829 312.907,28.879 312.907,28.94Z" fill="#086E86"/>
<path d="M324.485,20.876L321.063,20.876L321.063,26.664L324.485,26.664L324.485,20.876Z" fill="#086E86"/>
<path d="M333.3,28.94C333.3,29.001 328.773,29.05 323.19,29.05C317.605,29.05 313.08,29 313.08,28.94C313.08,28.879 317.606,28.829 323.19,28.829C328.773,28.829 333.3,28.879 333.3,28.94Z" fill="#086E86"/>
<path d="M324.481,32.357L321.059,32.357L321.059,38.146L324.481,38.146L324.481,32.357Z" fill="#086E86"/>
<path d="M333.3,40.417C333.3,40.478 328.773,40.527 323.19,40.527C317.605,40.527 313.08,40.478 313.08,40.417C313.08,40.355 317.606,40.307 323.19,40.307C328.773,40.307 333.3,40.356 333.3,40.417Z" fill="#086E86"/>
<path d="M324.481,44.21L321.059,44.21L321.059,49.997L324.481,49.997L324.481,44.21Z" fill="#086E86"/>
<path d="M333.3,52.257C333.3,52.318 328.773,52.367 323.19,52.367C317.605,52.367 313.08,52.318 313.08,52.257C313.08,52.196 317.606,52.146 323.19,52.146C328.773,52.146 333.3,52.196 333.3,52.257Z" fill="#086E86"/>
<path d="M324.479,56.04L321.057,56.04L321.057,61.828L324.479,61.828L324.479,56.04Z" fill="#086E86"/>
<path d="M333.292,64.084C333.292,64.145 328.765,64.194 323.183,64.194C317.598,64.194 313.072,64.145 313.072,64.084C313.072,64.022 317.598,63.974 323.183,63.974C328.766,63.974 333.292,64.022 333.292,64.084Z" fill="#086E86"/>
<path d="M324.481,67.527L321.059,67.527L321.059,73.315L324.481,73.315L324.481,67.527Z" fill="#086E86"/>
<path d="M333.3,75.595C333.3,75.656 328.773,75.706 323.19,75.706C317.605,75.706 313.08,75.656 313.08,75.595C313.08,75.535 317.606,75.484 323.19,75.484C328.773,75.485 333.3,75.535 333.3,75.595Z" fill="#086E86"/>
<path d="M324.477,79.085L321.055,79.085L321.055,84.873L324.477,84.873L324.477,79.085Z" fill="#086E86"/>
<path d="M324.479,90.789L321.057,90.789L321.057,96.577L324.479,96.577L324.479,90.789Z" fill="#086E86"/>
<path d="M333.292,87.15C333.292,87.211 328.765,87.261 323.183,87.261C317.598,87.261 313.072,87.211 313.072,87.15C313.072,87.089 317.598,87.039 323.183,87.039C328.766,87.04 333.292,87.089 333.292,87.15Z" fill="#086E86"/>
<path d="M304.089,32.54L300.666,32.54L300.666,38.328L304.089,38.328L304.089,32.54Z" fill="#1B5664"/>
<path d="M312.907,40.585C312.907,40.646 308.38,40.695 302.798,40.695C297.213,40.695 292.688,40.646 292.688,40.585C292.688,40.523 297.214,40.475 302.798,40.475C308.381,40.474 312.907,40.523 312.907,40.585Z" fill="#086E86"/>
<path d="M304.089,44.209L300.666,44.209L300.666,49.997L304.089,49.997L304.089,44.209Z" fill="#1B5664"/>
<path d="M312.907,52.257C312.907,52.318 308.38,52.367 302.798,52.367C297.213,52.367 292.688,52.318 292.688,52.257C292.688,52.196 297.214,52.146 302.798,52.146C308.381,52.146 312.907,52.196 312.907,52.257Z" fill="#086E86"/>
<path d="M304.089,55.88L300.666,55.88L300.666,61.668L304.089,61.668L304.089,55.88Z" fill="#1B5664"/>
<path d="M312.907,63.927C312.907,63.989 308.38,64.038 302.798,64.038C297.213,64.038 292.688,63.989 292.688,63.927C292.688,63.866 297.214,63.817 302.798,63.817C308.381,63.817 312.907,63.867 312.907,63.927Z" fill="#086E86"/>
<path d="M304.089,67.527L300.666,67.527L300.666,73.315L304.089,73.315L304.089,67.527Z" fill="#1B5664"/>
<path d="M312.907,75.596C312.907,75.657 308.38,75.707 302.798,75.707C297.213,75.707 292.688,75.657 292.688,75.596C292.688,75.536 297.214,75.485 302.798,75.485C308.381,75.486 312.907,75.536 312.907,75.596Z" fill="#086E86"/>
<path d="M304.089,79.199L300.666,79.199L300.666,84.987L304.089,84.987L304.089,79.199Z" fill="#1B5664"/>
<path d="M312.907,87.265C312.907,87.327 308.38,87.376 302.798,87.376C297.213,87.376 292.688,87.327 292.688,87.265C292.688,87.205 297.214,87.155 302.798,87.155C308.381,87.155 312.907,87.205 312.907,87.265Z" fill="#086E86"/>
<path d="M304.095,90.869L300.672,90.869L300.672,96.657L304.095,96.657L304.095,90.869Z" fill="#1B5664"/>
<path d="M379.826,65.756L330.469,65.756L330.469,191.189L379.826,191.189L379.826,65.756Z" fill="#63CAE1"/>
<path d="M379.829,65.756L355.15,65.756L355.15,190.844L379.829,190.844L379.829,65.756Z" fill="#4B4B4B"/>
<path d="M353.533,53.449L336.104,53.449L336.104,65.764L353.533,65.764L353.533,53.449Z" fill="#63CAE1"/>
<path d="M353.53,53.449L349.377,53.449L349.377,65.764L353.53,65.764L353.53,53.449Z" fill="#4B4B4B"/>
<path d="M326.354,65.765L326.354,65.047L381.268,65.047L381.268,65.765Z" fill="#086E86"/>
<path d="M344.392,71.128L340.215,71.128L340.215,78.192L344.392,78.192L344.392,71.128Z" fill="#1B5664"/>
<path d="M355.147,80.964C355.147,81.038 349.622,81.099 342.808,81.099C335.992,81.099 330.469,81.038 330.469,80.964C330.469,80.89 335.993,80.829 342.808,80.829C349.622,80.829 355.147,80.89 355.147,80.964Z" fill="#086E86"/>
<path d="M369.28,71.127L365.102,71.127L365.102,78.191L369.28,78.191L369.28,71.127Z" fill="#086E86"/>
<path d="M380.044,80.96C380.044,81.034 374.519,81.095 367.705,81.095C360.888,81.095 355.365,81.034 355.365,80.96C355.365,80.886 360.889,80.825 367.705,80.825C374.519,80.825 380.044,80.886 380.044,80.96Z" fill="#086E86"/>
<path d="M369.28,85.156L365.102,85.156L365.102,92.221L369.28,92.221L369.28,85.156Z" fill="#086E86"/>
<path d="M380.044,94.992C380.044,95.067 374.519,95.127 367.705,95.127C360.888,95.127 355.365,95.067 355.365,94.992C355.365,94.918 360.889,94.857 367.705,94.857C374.519,94.857 380.044,94.917 380.044,94.992Z" fill="#086E86"/>
<path d="M369.28,99.61L365.102,99.61L365.102,106.675L369.28,106.675L369.28,99.61Z" fill="#086E86"/>
<path d="M380.034,109.44C380.034,109.515 374.509,109.575 367.695,109.575C360.879,109.575 355.355,109.515 355.355,109.44C355.355,109.366 360.88,109.306 367.695,109.306C374.509,109.306 380.034,109.366 380.034,109.44Z" fill="#086E86"/>
<path d="M369.28,114.063L365.102,114.063L365.102,121.127L369.28,121.127L369.28,114.063Z" fill="#086E86"/>
<path d="M380.034,123.896C380.034,123.97 374.509,124.03 367.695,124.03C360.879,124.03 355.355,123.97 355.355,123.896C355.355,123.821 360.88,123.761 367.695,123.761C374.509,123.761 380.034,123.821 380.034,123.896Z" fill="#086E86"/>
<path d="M369.28,128.098L365.102,128.098L365.102,135.162L369.28,135.162L369.28,128.098Z" fill="#086E86"/>
<path d="M380.034,137.932C380.034,138.006 374.509,138.067 367.695,138.067C360.879,138.067 355.355,138.006 355.355,137.932C355.355,137.857 360.88,137.797 367.695,137.797C374.509,137.797 380.034,137.857 380.034,137.932Z" fill="#086E86"/>
<path d="M369.284,142.196L365.105,142.196L365.105,149.261L369.284,149.261L369.284,142.196Z" fill="#086E86"/>
<path d="M369.284,156.464L365.105,156.464L365.105,163.528L369.284,163.528L369.284,156.464Z" fill="#086E86"/>
<path d="M380.034,152.034C380.034,152.109 374.509,152.169 367.695,152.169C360.879,152.169 355.355,152.109 355.355,152.034C355.355,151.96 360.88,151.899 367.695,151.899C374.509,151.899 380.034,151.96 380.034,152.034Z" fill="#086E86"/>
<path d="M344.392,85.378L340.215,85.378L340.215,92.442L344.392,92.442L344.392,85.378Z" fill="#1B5664"/>
<path d="M355.147,95.215C355.147,95.289 349.622,95.35 342.808,95.35C335.992,95.35 330.469,95.289 330.469,95.215C330.469,95.141 335.993,95.08 342.808,95.08C349.622,95.08 355.147,95.141 355.147,95.215Z" fill="#086E86"/>
<path d="M344.392,99.611L340.215,99.611L340.215,106.676L344.392,106.676L344.392,99.611Z" fill="#1B5664"/>
<path d="M355.147,109.447C355.147,109.522 349.622,109.582 342.808,109.582C335.992,109.582 330.469,109.522 330.469,109.447C330.469,109.373 335.993,109.313 342.808,109.313C349.622,109.313 355.147,109.373 355.147,109.447Z" fill="#086E86"/>
<path d="M344.392,113.842L340.215,113.842L340.215,120.906L344.392,120.906L344.392,113.842Z" fill="#1B5664"/>
<path d="M355.147,123.702C355.147,123.777 349.622,123.837 342.808,123.837C335.992,123.837 330.469,123.777 330.469,123.702C330.469,123.628 335.993,123.567 342.808,123.567C349.622,123.567 355.147,123.628 355.147,123.702Z" fill="#086E86"/>
<path d="M344.392,128.096L340.215,128.096L340.215,135.16L344.392,135.16L344.392,128.096Z" fill="#1B5664"/>
<path d="M355.147,137.928C355.147,138.002 349.622,138.063 342.808,138.063C335.992,138.063 330.469,138.002 330.469,137.928C330.469,137.853 335.993,137.793 342.808,137.793C349.622,137.793 355.147,137.853 355.147,137.928Z" fill="#086E86"/>
<path d="M344.392,142.329L340.215,142.329L340.215,149.393L344.392,149.393L344.392,142.329Z" fill="#1B5664"/>
<path d="M355.147,152.161C355.147,152.236 349.622,152.296 342.808,152.296C335.992,152.296 330.469,152.236 330.469,152.161C330.469,152.087 335.993,152.026 342.808,152.026C349.622,152.026 355.147,152.087 355.147,152.161Z" fill="#086E86"/>
<path d="M344.396,156.576L340.219,156.576L340.219,163.64L344.396,163.64L344.396,156.576Z" fill="#1B5664"/>
<path d="M331.667,101.58L246.943,101.58L246.943,191.188L331.667,191.188L331.667,101.58Z" fill="#4B4B4B"/>
<path d="M331.672,101.58L291.947,101.58L291.947,191.188L331.672,191.188L331.672,101.58Z" fill="#086E86"/>
<path d="M272.329,113.711L264.711,113.711L264.711,128.552L272.329,128.552L272.329,113.711Z" fill="#63CAE1"/>
<path d="M272.329,171.8L264.711,171.8L264.711,186.641L272.329,186.641L272.329,171.8Z" fill="#63CAE1"/>
<path d="M291.947,134.387C291.947,134.554 281.873,134.688 269.449,134.688C257.02,134.688 246.949,134.553 246.949,134.387C246.949,134.22 257.021,134.085 269.449,134.085C281.873,134.085 291.947,134.22 291.947,134.387Z" fill="#63CAE1"/>
<path d="M272.333,142.977L264.715,142.977L264.715,157.818L272.333,157.818L272.333,142.977Z" fill="#63CAE1"/>
<path d="M291.941,163.637C291.941,163.804 281.867,163.938 269.443,163.938C257.014,163.938 246.943,163.803 246.943,163.637C246.943,163.471 257.015,163.335 269.443,163.335C281.867,163.335 291.941,163.47 291.941,163.637Z" fill="#63CAE1"/>
<path d="M308.002,113.711L300.385,113.711L300.385,128.552L308.002,128.552L308.002,113.711Z" fill="#63CAE1"/>
<path d="M324.528,113.711L316.91,113.711L316.91,128.552L324.528,128.552L324.528,113.711Z" fill="#63CAE1"/>
<path d="M308.002,141.882L300.385,141.882L300.385,156.722L308.002,156.722L308.002,141.882Z" fill="#63CAE1"/>
<path d="M324.528,141.882L316.91,141.882L316.91,156.722L324.528,156.722L324.528,141.882Z" fill="#63CAE1"/>
<path d="M308.002,170.036L300.385,170.036L300.385,184.877L308.002,184.877L308.002,170.036Z" fill="#63CAE1"/>
<path d="M324.528,170.036L316.91,170.036L316.91,184.877L324.528,184.877L324.528,170.036Z" fill="#63CAE1"/>
<path d="M338.035,98.455L240.574,98.455L240.574,101.686L338.035,101.686L338.035,98.455Z" fill="#086E86"/>
<path d="M332.258,101.996C332.258,102.163 313.322,102.299 289.968,102.299C266.606,102.299 247.674,102.163 247.674,101.996C247.674,101.829 266.606,101.694 289.968,101.694C313.321,101.694 332.258,101.83 332.258,101.996Z" fill="#4B4B4B"/>
<path d="M56.773,56.518L3.684,56.518L3.684,191.436L56.773,191.436L56.773,56.518Z" fill="#63CAE1"/>
<path d="M56.773,56.518L30.229,56.518L30.229,191.065L56.773,191.065L56.773,56.518Z" fill="#4B4B4B"/>
<path d="M28.485,43.284L9.738,43.284L9.738,56.529L28.485,56.529L28.485,43.284Z" fill="#63CAE1"/>
<path d="M28.488,43.284L24.02,43.284L24.02,56.529L28.488,56.529L28.488,43.284Z" fill="#4B4B4B"/>
<path d="M-0.742,56.521L-0.742,55.748L58.326,55.748L58.326,56.521Z" fill="#086E86"/>
<path d="M18.654,62.302L14.16,62.302L14.16,69.9L18.654,69.9L18.654,62.302Z" fill="#1B5664"/>
<path d="M30.225,72.891C30.225,72.971 24.282,73.036 16.953,73.036C9.621,73.036 3.68,72.971 3.68,72.891C3.68,72.811 9.621,72.746 16.953,72.746C24.282,72.746 30.225,72.811 30.225,72.891Z" fill="#086E86"/>
<path d="M45.431,62.304L40.938,62.304L40.938,69.902L45.431,69.902L45.431,62.304Z" fill="#086E86"/>
<path d="M57.001,72.887C57.001,72.967 51.058,73.032 43.73,73.032C36.398,73.032 30.457,72.967 30.457,72.887C30.457,72.807 36.398,72.742 43.73,72.742C51.059,72.742 57.001,72.807 57.001,72.887Z" fill="#086E86"/>
<path d="M45.431,77.386L40.938,77.386L40.938,84.984L45.431,84.984L45.431,77.386Z" fill="#086E86"/>
<path d="M57.001,87.964C57.001,88.045 51.058,88.109 43.73,88.109C36.398,88.109 30.457,88.045 30.457,87.964C30.457,87.884 36.398,87.819 43.73,87.819C51.059,87.819 57.001,87.885 57.001,87.964Z" fill="#086E86"/>
<path d="M45.431,92.925L40.938,92.925L40.938,100.523L45.431,100.523L45.431,92.925Z" fill="#086E86"/>
<path d="M57.001,103.503C57.001,103.584 51.058,103.648 43.73,103.648C36.398,103.648 30.457,103.584 30.457,103.503C30.457,103.423 36.398,103.358 43.73,103.358C51.059,103.358 57.001,103.423 57.001,103.503Z" fill="#086E86"/>
<path d="M45.431,108.463L40.938,108.463L40.938,116.061L45.431,116.061L45.431,108.463Z" fill="#086E86"/>
<path d="M57.001,119.042C57.001,119.123 51.058,119.188 43.73,119.188C36.398,119.188 30.457,119.123 30.457,119.042C30.457,118.962 36.398,118.897 43.73,118.897C51.059,118.897 57.001,118.962 57.001,119.042Z" fill="#086E86"/>
<path d="M45.431,123.567L40.938,123.567L40.938,131.165L45.431,131.165L45.431,123.567Z" fill="#086E86"/>
<path d="M57.001,134.148C57.001,134.228 51.058,134.293 43.73,134.293C36.398,134.293 30.457,134.228 30.457,134.148C30.457,134.068 36.398,134.003 43.73,134.003C51.059,134.004 57.001,134.069 57.001,134.148Z" fill="#086E86"/>
<path d="M45.431,138.725L40.938,138.725L40.938,146.322L45.431,146.322L45.431,138.725Z" fill="#086E86"/>
<path d="M45.431,154.072L40.938,154.072L40.938,161.671L45.431,161.671L45.431,154.072Z" fill="#086E86"/>
<path d="M57.001,149.302C57.001,149.382 51.058,149.447 43.73,149.447C36.398,149.447 30.457,149.382 30.457,149.302C30.457,149.222 36.398,149.157 43.73,149.157C51.059,149.157 57.001,149.222 57.001,149.302Z" fill="#086E86"/>
<path d="M18.654,77.619L14.16,77.619L14.16,85.218L18.654,85.218L18.654,77.619Z" fill="#1B5664"/>
<path d="M30.229,88.199C30.229,88.279 24.286,88.344 16.957,88.344C9.625,88.344 3.684,88.279 3.684,88.199C3.684,88.119 9.625,88.054 16.957,88.054C24.286,88.054 30.229,88.119 30.229,88.199Z" fill="#086E86"/>
<path d="M18.654,92.927L14.16,92.927L14.16,100.525L18.654,100.525L18.654,92.927Z" fill="#1B5664"/>
<path d="M30.225,103.507C30.225,103.587 24.282,103.652 16.953,103.652C9.621,103.652 3.68,103.587 3.68,103.507C3.68,103.427 9.621,103.362 16.953,103.362C24.282,103.362 30.225,103.427 30.225,103.507Z" fill="#086E86"/>
<path d="M18.654,108.24L14.16,108.24L14.16,115.839L18.654,115.839L18.654,108.24Z" fill="#1B5664"/>
<path d="M30.229,118.842C30.229,118.922 24.286,118.987 16.957,118.987C9.625,118.987 3.684,118.922 3.684,118.842C3.684,118.762 9.625,118.697 16.957,118.697C24.286,118.697 30.229,118.763 30.229,118.842Z" fill="#086E86"/>
<path d="M18.654,123.563L14.16,123.563L14.16,131.161L18.654,131.161L18.654,123.563Z" fill="#1B5664"/>
<path d="M30.225,134.147C30.225,134.227 24.282,134.292 16.953,134.292C9.621,134.292 3.68,134.227 3.68,134.147C3.68,134.067 9.621,134.002 16.953,134.002C24.282,134.003 30.225,134.068 30.225,134.147Z" fill="#086E86"/>
<path d="M18.654,138.882L14.16,138.882L14.16,146.48L18.654,146.48L18.654,138.882Z" fill="#1B5664"/>
<path d="M30.229,149.462C30.229,149.543 24.286,149.607 16.957,149.607C9.625,149.607 3.684,149.543 3.684,149.462C3.684,149.382 9.625,149.317 16.957,149.317C24.286,149.318 30.229,149.383 30.229,149.462Z" fill="#086E86"/>
<path d="M18.654,154.19L14.16,154.19L14.16,161.789L18.654,161.789L18.654,154.19Z" fill="#1B5664"/>
<path d="M143.838,190.887L65.715,190.887L65.375,91.881L143.497,91.881L143.838,190.887Z" fill="#4B4B4B"/>
<path d="M143.505,91.881L104.443,91.881L104.443,190.887L143.505,190.887L143.505,91.881Z" fill="#292929"/>
<path d="M101.882,72.393L74.295,72.393L74.295,91.884L101.882,91.884L101.882,72.393Z" fill="#4B4B4B"/>
<path d="M101.883,72.393L95.309,72.393L95.309,91.884L101.883,91.884L101.883,72.393Z" fill="#086E86"/>
<path d="M145.787,90.752L58.867,90.752L58.867,91.889L145.787,91.889L145.787,90.752Z" fill="#086E86"/>
<path d="M87.412,100.385L80.799,100.385L80.799,111.566L87.412,111.566L87.412,100.385Z" fill="#63CAE1"/>
<path d="M104.432,115.946C104.432,116.064 95.687,116.159 84.903,116.159C74.114,116.159 65.371,116.064 65.371,115.946C65.371,115.828 74.114,115.732 84.903,115.732C95.687,115.732 104.432,115.828 104.432,115.946Z" fill="#086E86"/>
<path d="M126.812,100.384L120.199,100.384L120.199,111.565L126.812,111.565L126.812,100.384Z" fill="#63CAE1"/>
<path d="M143.839,115.97C143.839,116.088 135.094,116.184 124.309,116.184C113.521,116.184 104.777,116.088 104.777,115.97C104.777,115.852 113.521,115.757 124.309,115.757C135.094,115.757 143.839,115.852 143.839,115.97Z" fill="#4B4B4B"/>
<path d="M126.812,122.599L120.199,122.599L120.199,133.78L126.812,133.78L126.812,122.599Z" fill="#63CAE1"/>
<path d="M143.839,138.165C143.839,138.283 135.094,138.378 124.309,138.378C113.521,138.378 104.777,138.283 104.777,138.165C104.777,138.047 113.521,137.951 124.309,137.951C135.094,137.951 143.839,138.047 143.839,138.165Z" fill="#4B4B4B"/>
<path d="M126.812,145.451L120.199,145.451L120.199,156.632L126.812,156.632L126.812,145.451Z" fill="#63CAE1"/>
<path d="M143.848,161.014C143.848,161.132 135.103,161.228 124.319,161.228C113.53,161.228 104.787,161.132 104.787,161.014C104.787,160.896 113.53,160.801 124.319,160.801C135.103,160.802 143.848,160.897 143.848,161.014Z" fill="#4B4B4B"/>
<path d="M126.812,168.326L120.199,168.326L120.199,179.507L126.812,179.507L126.812,168.326Z" fill="#63CAE1"/>
<path d="M143.839,183.889C143.839,184.007 135.094,184.103 124.309,184.103C113.521,184.103 104.777,184.007 104.777,183.889C104.777,183.771 113.521,183.676 124.309,183.676C135.094,183.676 143.839,183.771 143.839,183.889Z" fill="#4B4B4B"/>
<path d="M87.412,122.921L80.799,122.921L80.799,134.102L87.412,134.102L87.412,122.921Z" fill="#63CAE1"/>
<path d="M104.432,138.507C104.432,138.625 95.687,138.72 84.903,138.72C74.114,138.72 65.371,138.625 65.371,138.507C65.371,138.388 74.114,138.293 84.903,138.293C95.687,138.293 104.432,138.388 104.432,138.507Z" fill="#086E86"/>
<path d="M87.412,145.457L80.799,145.457L80.799,156.638L87.412,156.638L87.412,145.457Z" fill="#63CAE1"/>
<path d="M104.432,161.015C104.432,161.133 95.687,161.229 84.903,161.229C74.114,161.229 65.371,161.133 65.371,161.015C65.371,160.897 74.114,160.802 84.903,160.802C95.687,160.802 104.432,160.898 104.432,161.015Z" fill="#086E86"/>
<path d="M87.412,167.993L80.799,167.993L80.799,179.174L87.412,179.174L87.412,167.993Z" fill="#63CAE1"/>
<path d="M104.432,183.573C104.432,183.691 95.687,183.786 84.903,183.786C74.114,183.786 65.371,183.691 65.371,183.573C65.371,183.455 74.114,183.359 84.903,183.359C95.687,183.36 104.432,183.456 104.432,183.573Z" fill="#086E86"/>
<path d="M264.464,177.461L199.007,177.461L198.723,49.203L264.179,49.203L264.464,177.461Z" fill="#4B4B4B"/>
<path d="M264.177,49.203L231.449,49.203L231.449,177.461L264.177,177.461L264.177,49.203Z" fill="#086E86"/>
<path d="M229.306,32.937L206.191,32.937L206.191,49.203L229.306,49.203L229.306,32.937Z" fill="#4B4B4B"/>
<path d="M229.304,32.937L223.795,32.937L223.795,49.203L229.304,49.203L229.304,32.937Z" fill="#086E86"/>
<path d="M266.092,48.263L196.766,48.263L196.766,49.212L266.092,49.212L266.092,48.263Z" fill="#086E86"/>
<path d="M217.179,56.304L211.639,56.304L211.639,65.635L217.179,65.635L217.179,56.304Z" fill="#63CAE1"/>
<path d="M231.447,69.286C231.447,69.385 224.12,69.464 215.084,69.464C206.044,69.464 198.719,69.385 198.719,69.286C198.719,69.188 206.044,69.108 215.084,69.108C224.12,69.108 231.447,69.188 231.447,69.286Z" fill="#086E86"/>
<path d="M250.197,56.308L244.656,56.308L244.656,65.639L250.197,65.639L250.197,56.308Z" fill="#63CAE1"/>
<path d="M264.465,69.288C264.465,69.387 257.137,69.466 248.101,69.466C239.062,69.466 231.736,69.387 231.736,69.288C231.736,69.19 239.062,69.11 248.101,69.11C257.137,69.11 264.465,69.19 264.465,69.288Z" fill="#4B4B4B"/>
<path d="M250.197,74.828L244.656,74.828L244.656,84.16L250.197,84.16L250.197,74.828Z" fill="#63CAE1"/>
<path d="M264.465,87.832C264.465,87.931 257.137,88.011 248.101,88.011C239.062,88.011 231.736,87.931 231.736,87.832C231.736,87.734 239.062,87.654 248.101,87.654C257.137,87.654 264.465,87.734 264.465,87.832Z" fill="#4B4B4B"/>
<path d="M250.197,93.918L244.656,93.918L244.656,103.25L250.197,103.25L250.197,93.918Z" fill="#63CAE1"/>
<path d="M264.465,106.926C264.465,107.024 257.137,107.103 248.101,107.103C239.062,107.103 231.736,107.023 231.736,106.926C231.736,106.828 239.062,106.747 248.101,106.747C257.137,106.747 264.465,106.827 264.465,106.926Z" fill="#4B4B4B"/>
<path d="M250.197,112.984L244.656,112.984L244.656,122.316L250.197,122.316L250.197,112.984Z" fill="#63CAE1"/>
<path d="M264.465,125.983C264.465,126.081 257.137,126.16 248.101,126.16C239.062,126.16 231.736,126.081 231.736,125.983C231.736,125.884 239.062,125.805 248.101,125.805C257.137,125.804 264.465,125.884 264.465,125.983Z" fill="#4B4B4B"/>
<path d="M217.179,75.104L211.639,75.104L211.639,84.435L217.179,84.435L217.179,75.104Z" fill="#63CAE1"/>
<path d="M231.447,88.104C231.447,88.202 224.12,88.282 215.084,88.282C206.044,88.282 198.719,88.202 198.719,88.104C198.719,88.005 206.044,87.926 215.084,87.926C224.12,87.926 231.447,88.005 231.447,88.104Z" fill="#086E86"/>
<path d="M217.179,93.917L211.639,93.917L211.639,103.249L217.179,103.249L217.179,93.917Z" fill="#63CAE1"/>
<path d="M231.447,106.9C231.447,106.998 224.12,107.077 215.084,107.077C206.044,107.077 198.719,106.997 198.719,106.9C198.719,106.801 206.044,106.722 215.084,106.722C224.12,106.721 231.447,106.8 231.447,106.9Z" fill="#086E86"/>
<path d="M217.179,112.718L211.639,112.718L211.639,122.049L217.179,122.049L217.179,112.718Z" fill="#63CAE1"/>
<path d="M231.447,125.721C231.447,125.819 224.12,125.899 215.084,125.899C206.044,125.899 198.719,125.82 198.719,125.721C198.719,125.622 206.044,125.543 215.084,125.543C224.12,125.543 231.447,125.622 231.447,125.721Z" fill="#086E86"/>
<path d="M247.853,190.152L152.094,190.152L151.678,69.273L247.436,69.273L247.853,190.152Z" fill="#4B4B4B"/>
<path d="M247.448,69.273L199.568,69.273L199.568,190.152L247.448,190.152L247.448,69.273Z" fill="#292929"/>
<path d="M196.416,45.49L162.602,45.49L162.602,69.288L196.416,69.288L196.416,45.49Z" fill="#4B4B4B"/>
<path d="M196.416,45.49L188.357,45.49L188.357,69.288L196.416,69.288L196.416,45.49Z" fill="#086E86"/>
<path d="M250.235,67.884L143.693,67.884L143.693,69.272L250.235,69.272L250.235,67.884Z" fill="#086E86"/>
<path d="M178.695,79.664L170.59,79.664L170.59,93.316L178.695,93.316L178.695,79.664Z" fill="#63CAE1"/>
<path d="M199.557,98.67C199.557,98.814 188.838,98.93 175.619,98.93C162.394,98.93 151.678,98.814 151.678,98.67C151.678,98.526 162.394,98.41 175.619,98.41C188.838,98.41 199.557,98.526 199.557,98.67Z" fill="#086E86"/>
<path d="M226.988,79.664L218.883,79.664L218.883,93.316L226.988,93.316L226.988,79.664Z" fill="#63CAE1"/>
<path d="M247.864,98.666C247.864,98.81 237.144,98.927 223.925,98.927C210.701,98.927 199.984,98.81 199.984,98.666C199.984,98.522 210.701,98.406 223.925,98.406C237.144,98.406 247.864,98.522 247.864,98.666Z" fill="#4B4B4B"/>
<path d="M226.984,106.761L218.879,106.761L218.879,120.412L226.984,120.412L226.984,106.761Z" fill="#63CAE1"/>
<path d="M247.85,125.771C247.85,125.915 237.131,126.032 223.912,126.032C210.687,126.032 199.971,125.916 199.971,125.771C199.971,125.627 210.687,125.511 223.912,125.511C237.131,125.511 247.85,125.628 247.85,125.771Z" fill="#4B4B4B"/>
<path d="M226.988,134.673L218.883,134.673L218.883,148.324L226.988,148.324L226.988,134.673Z" fill="#63CAE1"/>
<path d="M247.864,153.703C247.864,153.846 237.144,153.964 223.925,153.964C210.701,153.964 199.984,153.846 199.984,153.703C199.984,153.559 210.701,153.442 223.925,153.442C237.144,153.441 247.864,153.559 247.864,153.703Z" fill="#4B4B4B"/>
<path d="M226.988,162.607L218.883,162.607L218.883,176.259L226.988,176.259L226.988,162.607Z" fill="#63CAE1"/>
<path d="M247.864,181.621C247.864,181.765 237.144,181.883 223.925,181.883C210.701,181.883 199.984,181.765 199.984,181.621C199.984,181.478 210.701,181.361 223.925,181.361C237.144,181.361 247.864,181.478 247.864,181.621Z" fill="#4B4B4B"/>
<path d="M178.695,107.182L170.59,107.182L170.59,120.833L178.695,120.833L178.695,107.182Z" fill="#63CAE1"/>
<path d="M199.557,126.192C199.557,126.336 188.838,126.453 175.619,126.453C162.394,126.453 151.678,126.336 151.678,126.192C151.678,126.048 162.394,125.932 175.619,125.932C188.838,125.932 199.557,126.048 199.557,126.192Z" fill="#086E86"/>
<path d="M178.695,134.703L170.59,134.703L170.59,148.355L178.695,148.355L178.695,134.703Z" fill="#63CAE1"/>
<path d="M199.557,153.704C199.557,153.847 188.838,153.964 175.619,153.964C162.394,153.964 151.678,153.847 151.678,153.704C151.678,153.56 162.394,153.443 175.619,153.443C188.838,153.442 199.557,153.56 199.557,153.704Z" fill="#086E86"/>
<path d="M178.695,162.215L170.59,162.215L170.59,175.866L178.695,175.866L178.695,162.215Z" fill="#63CAE1"/>
<path d="M199.557,181.232C199.557,181.376 188.838,181.493 175.619,181.493C162.394,181.493 151.678,181.377 151.678,181.232C151.678,181.088 162.394,180.972 175.619,180.972C188.838,180.972 199.557,181.088 199.557,181.232Z" fill="#086E86"/>
<path d="M227.413,16.732C227.851,13.944 223.356,11.65 219.98,11.412C218.369,11.299 216.697,11.514 215.171,11.049C211.866,10.04 210.545,6.301 207.319,5.11C204.908,4.219 202.132,5.012 199.794,6.042C197.456,7.072 195.146,8.368 192.535,8.515C190.263,8.642 187.796,7.904 185.808,8.876C184.327,9.6 183.552,11.095 182.186,11.976C180.85,12.838 179.109,13.021 177.452,13.1C175.795,13.178 174.079,13.193 172.571,13.798C171.062,14.403 169.813,15.8 170.127,17.226L227.413,16.732Z" fill="#63CAE1"/>
<path d="M379.698,16.083C380.014,14.071 376.772,12.415 374.335,12.243C373.172,12.162 371.966,12.317 370.865,11.981C368.479,11.253 367.527,8.555 365.199,7.696C363.459,7.053 361.455,7.625 359.769,8.368C358.082,9.112 356.415,10.048 354.53,10.153C352.89,10.245 351.111,9.713 349.676,10.414C348.607,10.937 348.047,12.015 347.062,12.651C346.098,13.273 344.84,13.405 343.645,13.462C342.449,13.519 341.211,13.53 340.123,13.966C339.034,14.403 338.133,15.411 338.359,16.441L379.698,16.083Z" fill="#63CAE1"/>
<path d="M42.546,30.586C42.862,28.573 39.619,26.918 37.182,26.746C36.019,26.664 34.812,26.82 33.712,26.484C31.326,25.756 30.373,23.058 28.046,22.199C26.305,21.556 24.302,22.128 22.615,22.871C20.928,23.615 19.262,24.55 17.377,24.655C15.737,24.747 13.957,24.215 12.523,24.916C11.454,25.439 10.895,26.517 9.909,27.153C8.946,27.775 7.688,27.907 6.493,27.964C5.297,28.021 4.059,28.032 2.97,28.469C1.881,28.905 0.981,29.913 1.207,30.943L42.546,30.586Z" fill="#63CAE1"/>
<path d="M-0.471,197.536L48.218,197.358L96.906,197.294L194.283,197.172L291.661,197.293L340.349,197.357L389.037,197.536L340.349,197.713L291.661,197.778L194.283,197.899L96.906,197.777L48.218,197.713L-0.471,197.536Z" fill="#63CAE1"/>
<path d="M389.037,189.826L-0.471,189.826L-0.471,197.534L389.037,197.534L389.037,189.826Z" fill="#50A6BA"/>
<path d="M19.565,189.825C19.799,191.11 19.852,192.394 19.862,193.679C19.853,194.964 19.801,196.248 19.565,197.533C19.329,196.248 19.276,194.964 19.268,193.679C19.278,192.394 19.33,191.11 19.565,189.825Z" fill="#63CAE1"/>
<path d="M42.862,189.825C43.096,191.11 43.149,192.394 43.159,193.679C43.15,194.964 43.098,196.248 42.862,197.533C42.626,196.248 42.573,194.964 42.564,193.679C42.575,192.394 42.627,191.11 42.862,189.825Z" fill="#63CAE1"/>
<path d="M66.153,189.825C66.387,191.11 66.44,192.394 66.45,193.679C66.441,194.964 66.389,196.248 66.153,197.533C65.917,196.248 65.864,194.964 65.855,193.679C65.866,192.394 65.919,191.11 66.153,189.825Z" fill="#63CAE1"/>
<path d="M89.45,189.825C89.684,191.11 89.737,192.394 89.747,193.679C89.738,194.964 89.686,196.248 89.45,197.533C89.214,196.248 89.161,194.964 89.152,193.679C89.162,192.394 89.215,191.11 89.45,189.825Z" fill="#63CAE1"/>
<path d="M112.747,189.825C112.981,191.11 113.034,192.394 113.044,193.679C113.035,194.964 112.983,196.248 112.747,197.533C112.51,196.248 112.458,194.964 112.449,193.679C112.459,192.394 112.512,191.11 112.747,189.825Z" fill="#63CAE1"/>
<path d="M136.043,189.825C136.278,191.11 136.331,192.394 136.341,193.679C136.332,194.964 136.28,196.248 136.043,197.533C135.808,196.248 135.755,194.964 135.746,193.679C135.757,192.394 135.809,191.11 136.043,189.825Z" fill="#63CAE1"/>
<path d="M159.334,189.825C159.569,191.11 159.622,192.394 159.632,193.679C159.623,194.964 159.571,196.248 159.334,197.533C159.098,196.248 159.046,194.964 159.037,193.679C159.047,192.394 159.1,191.11 159.334,189.825Z" fill="#63CAE1"/>
<path d="M182.631,189.825C182.866,191.11 182.919,192.394 182.929,193.679C182.92,194.964 182.867,196.248 182.631,197.533C182.396,196.248 182.343,194.964 182.334,193.679C182.344,192.394 182.397,191.11 182.631,189.825Z" fill="#63CAE1"/>
<path d="M205.922,189.825C206.157,191.11 206.21,192.394 206.22,193.679C206.211,194.964 206.158,196.248 205.922,197.533C205.686,196.248 205.634,194.964 205.625,193.679C205.635,192.394 205.688,191.11 205.922,189.825Z" fill="#63CAE1"/>
<path d="M229.223,189.825C229.457,191.11 229.51,192.394 229.52,193.679C229.512,194.964 229.459,196.248 229.223,197.533C228.987,196.248 228.935,194.964 228.926,193.679C228.936,192.394 228.989,191.11 229.223,189.825Z" fill="#63CAE1"/>
<path d="M252.516,189.825C252.75,191.11 252.803,192.394 252.813,193.679C252.805,194.964 252.752,196.248 252.516,197.533C252.281,196.248 252.228,194.964 252.219,193.679C252.229,192.394 252.282,191.11 252.516,189.825Z" fill="#63CAE1"/>
<path d="M275.813,189.825C276.047,191.11 276.1,192.394 276.11,193.679C276.101,194.964 276.049,196.248 275.813,197.533C275.577,196.248 275.525,194.964 275.516,193.679C275.526,192.394 275.578,191.11 275.813,189.825Z" fill="#63CAE1"/>
<path d="M299.104,189.825C299.338,191.11 299.391,192.394 299.401,193.679C299.392,194.964 299.34,196.248 299.104,197.533C298.868,196.248 298.816,194.964 298.807,193.679C298.817,192.394 298.87,191.11 299.104,189.825Z" fill="#63CAE1"/>
<path d="M322.405,189.825C322.639,191.11 322.692,192.394 322.702,193.679C322.693,194.964 322.641,196.248 322.405,197.533C322.169,196.248 322.116,194.964 322.107,193.679C322.118,192.394 322.17,191.11 322.405,189.825Z" fill="#63CAE1"/>
<path d="M345.692,189.825C345.926,191.11 345.979,192.394 345.989,193.679C345.98,194.964 345.928,196.248 345.692,197.533C345.456,196.248 345.403,194.964 345.395,193.679C345.405,192.394 345.458,191.11 345.692,189.825Z" fill="#63CAE1"/>
<path d="M368.993,189.825C369.227,191.11 369.28,192.394 369.29,193.679C369.281,194.964 369.229,196.248 368.993,197.533C368.757,196.248 368.704,194.964 368.695,193.679C368.705,192.394 368.758,191.11 368.993,189.825Z" fill="#63CAE1"/>
</g>
</svg>
