<svg width="48" height="50" viewBox="0 0 48 50" fill="none" xmlns="http://www.w3.org/2000/svg" xmlns:xlink="http://www.w3.org/1999/xlink">
<path d="M7.091,14.582C6.374,14.167 5.457,14.412 5.042,15.129C4.627,15.846 4.872,16.763 5.589,17.178L7.091,14.582ZM24,26.1L23.249,27.398C23.713,27.667 24.287,27.667 24.752,27.398L24,26.1ZM42.292,17.238C43.008,16.823 43.253,15.905 42.838,15.188C42.422,14.471 41.505,14.227 40.788,14.642L42.292,17.238ZM5.589,17.178L23.249,27.398L24.751,24.802L7.091,14.582L5.589,17.178ZM24.752,27.398L42.292,17.238L40.788,14.642L23.248,24.802L24.752,27.398Z" fill="#A7A9B7"/>
<line x1="22.5" y1="26.08" x2="22.5" y2="44.22" stroke="#A7A9B7" stroke-width="1.5" stroke-miterlimit="3.999327" stroke-linecap="round" stroke-linejoin="round"/>
<path d="M41.719,26.66C41.719,27.488 42.391,28.16 43.219,28.16C44.048,28.16 44.719,27.488 44.719,26.66L41.719,26.66ZM38.819,11.88L38.092,13.192L38.093,13.192L38.819,11.88ZM28.139,5.96L27.405,7.268L27.412,7.272L28.139,5.96ZM19.859,5.96L20.586,7.272L20.594,7.268L19.859,5.96ZM9.179,11.88L9.906,13.192L9.906,13.192L9.179,11.88ZM9.179,38.12L9.906,36.808L9.906,36.808L9.179,38.12ZM19.859,44.04L20.594,42.732L20.586,42.728L19.859,44.04ZM28.873,45.348C29.596,44.943 29.853,44.028 29.447,43.306C29.042,42.583 28.127,42.327 27.405,42.732L28.873,45.348ZM44.719,26.66L44.719,19.34L41.719,19.34L41.719,26.66L44.719,26.66ZM44.719,19.34C44.719,17.628 44.116,15.837 43.219,14.316C42.322,12.795 41.046,11.398 39.546,10.568L38.093,13.192C39.012,13.702 39.936,14.656 40.635,15.839C41.333,17.023 41.719,18.292 41.719,19.34L44.719,19.34ZM39.546,10.568L28.866,4.648L27.412,7.272L38.092,13.192L39.546,10.568ZM28.873,4.652C27.454,3.855 25.685,3.5 23.999,3.5C22.314,3.5 20.544,3.855 19.125,4.652L20.594,7.268C21.454,6.785 22.685,6.5 23.999,6.5C25.314,6.5 26.544,6.785 27.405,7.268L28.873,4.652ZM19.132,4.648L8.452,10.568L9.906,13.192L20.586,7.272L19.132,4.648ZM8.453,10.568C6.953,11.398 5.677,12.795 4.78,14.316C3.883,15.837 3.279,17.628 3.279,19.34L6.279,19.34C6.279,18.292 6.666,17.023 7.364,15.839C8.062,14.656 8.986,13.702 9.906,13.192L8.453,10.568ZM3.279,19.34L3.279,30.66L6.279,30.66L6.279,19.34L3.279,19.34ZM3.279,30.66C3.279,32.372 3.883,34.163 4.78,35.684C5.677,37.206 6.953,38.602 8.453,39.432L9.906,36.808C8.986,36.298 8.062,35.345 7.364,34.161C6.666,32.977 6.279,31.708 6.279,30.66L3.279,30.66ZM8.452,39.432L19.132,45.352L20.586,42.728L9.906,36.808L8.452,39.432ZM19.125,45.348C20.544,46.145 22.314,46.5 23.999,46.5L23.999,43.5C22.685,43.5 21.454,43.215 20.594,42.732L19.125,45.348ZM23.999,46.5C25.685,46.5 27.454,46.145 28.873,45.348L27.405,42.732C26.544,43.215 25.314,43.5 23.999,43.5L23.999,46.5Z" fill="#A7A9B7"/>
<path d="M43.3,37.4C43.3,40.106 41.106,42.3 38.4,42.3L38.4,45.3C42.763,45.3 46.3,41.763 46.3,37.4L43.3,37.4ZM38.4,42.3C35.694,42.3 33.5,40.106 33.5,37.4L30.5,37.4C30.5,41.763 34.037,45.3 38.4,45.3L38.4,42.3ZM33.5,37.4C33.5,34.694 35.694,32.5 38.4,32.5L38.4,29.5C34.037,29.5 30.5,33.037 30.5,37.4L33.5,37.4ZM38.4,32.5C41.106,32.5 43.3,34.694 43.3,37.4L46.3,37.4C46.3,33.037 42.763,29.5 38.4,29.5L38.4,32.5Z" fill="#A7A9B7"/>
<path d="M44.939,46.061C45.525,46.646 46.475,46.646 47.061,46.061C47.646,45.475 47.646,44.525 47.061,43.939L44.939,46.061ZM45.061,41.939C44.475,41.354 43.525,41.354 42.939,41.939C42.354,42.525 42.354,43.475 42.939,44.061L45.061,41.939ZM47.061,43.939L45.061,41.939L42.939,44.061L44.939,46.061L47.061,43.939Z" fill="#A7A9B7"/>
</svg>
