<svg width="48" height="48" viewBox="0 0 48 48" fill="none" xmlns="http://www.w3.org/2000/svg" xmlns:xlink="http://www.w3.org/1999/xlink">
<path d="M42.5,24C42.5,34.212 34.212,42.5 24,42.5L24,45.5C35.868,45.5 45.5,35.868 45.5,24L42.5,24ZM24,42.5C13.788,42.5 5.5,34.212 5.5,24L2.5,24C2.5,35.868 12.132,45.5 24,45.5L24,42.5ZM5.5,24C5.5,13.788 13.788,5.5 24,5.5L24,2.5C12.132,2.5 2.5,12.132 2.5,24L5.5,24ZM24,5.5C34.212,5.5 42.5,13.788 42.5,24L45.5,24C45.5,12.132 35.868,2.5 24,2.5L24,5.5Z" fill="#A7A9B7"/>
<path d="M30.651,31.648C31.362,32.072 32.283,31.84 32.708,31.128C33.132,30.417 32.9,29.496 32.188,29.071L30.651,31.648ZM25.22,26.66L25.988,25.371L25.984,25.369L25.22,26.66ZM24.76,15.02C24.76,14.191 24.088,13.52 23.26,13.52C22.431,13.52 21.76,14.191 21.76,15.02L24.76,15.02ZM32.188,29.071L25.988,25.371L24.451,27.948L30.651,31.648L32.188,29.071ZM25.984,25.369C25.722,25.213 25.399,24.886 25.138,24.429C24.877,23.972 24.76,23.527 24.76,23.22L21.76,23.22C21.76,24.172 22.082,25.127 22.532,25.915C22.981,26.703 23.638,27.466 24.455,27.95L25.984,25.369ZM24.76,23.22L24.76,15.02L21.76,15.02L21.76,23.22L24.76,23.22Z" fill="#A7A9B7"/>
</svg>
