<svg width="780" height="198" viewBox="0 0 780 198" fill="none" xmlns="http://www.w3.org/2000/svg" xmlns:xlink="http://www.w3.org/1999/xlink">
<g opacity="0.05">
<path d="M299.886,51.902C300.324,49.113 295.831,46.82 292.453,46.582C290.843,46.469 289.171,46.684 287.645,46.219C284.339,45.21 283.018,41.471 279.793,40.28C277.382,39.389 274.605,40.182 272.267,41.212C269.93,42.242 267.62,43.538 265.007,43.685C262.735,43.812 260.269,43.074 258.281,44.046C256.8,44.77 256.024,46.265 254.659,47.146C253.324,48.008 251.582,48.191 249.925,48.27C248.268,48.348 246.552,48.363 245.043,48.968C243.535,49.573 242.286,50.97 242.599,52.397L299.886,51.902Z" fill="#4B4B4B"/>
<path d="M375.143,43.352C375.581,40.563 371.087,38.27 367.71,38.032C366.1,37.918 364.427,38.134 362.901,37.668C359.596,36.659 358.275,32.92 355.05,31.729C352.639,30.838 349.862,31.631 347.524,32.661C345.187,33.691 342.876,34.987 340.265,35.134C337.993,35.261 335.526,34.523 333.539,35.495C332.057,36.219 331.282,37.714 329.917,38.595C328.582,39.457 326.84,39.64 325.183,39.719C323.526,39.797 321.81,39.812 320.301,40.417C318.792,41.022 317.544,42.419 317.857,43.845L375.143,43.352Z" fill="#63CAE1"/>
<path d="M157.711,13.25L104.621,13.25L104.621,191.074L157.711,191.074L157.711,13.25Z" fill="#63CAE1"/>
<path d="M157.712,13.25L131.168,13.25L131.168,190.634L157.712,190.634L157.712,13.25Z" fill="#4B4B4B"/>
<path d="M129.427,0L110.68,0L110.68,13.245L129.427,13.245L129.427,0Z" fill="#63CAE1"/>
<path d="M129.433,0L124.965,0L124.965,13.245L129.433,13.245L129.433,0Z" fill="#4B4B4B"/>
<path d="M100.199,13.255L100.199,12.482L159.266,12.482L159.266,13.255Z" fill="#086E86"/>
<path d="M119.595,19.021L115.102,19.021L115.102,26.619L119.595,26.619L119.595,19.021Z" fill="#1B5664"/>
<path d="M131.16,29.605C131.16,29.685 125.216,29.75 117.888,29.75C110.556,29.75 104.615,29.685 104.615,29.605C104.615,29.525 110.556,29.46 117.888,29.46C125.216,29.46 131.16,29.525 131.16,29.605Z" fill="#086E86"/>
<path d="M146.366,19.019L141.873,19.019L141.873,26.616L146.366,26.616L146.366,19.019Z" fill="#086E86"/>
<path d="M157.938,29.597C157.938,29.677 151.996,29.742 144.666,29.742C137.334,29.742 131.393,29.677 131.393,29.597C131.393,29.517 137.334,29.452 144.666,29.452C151.996,29.452 157.938,29.517 157.938,29.597Z" fill="#086E86"/>
<path d="M146.366,34.098L141.873,34.098L141.873,41.696L146.366,41.696L146.366,34.098Z" fill="#086E86"/>
<path d="M157.938,44.676C157.938,44.756 151.996,44.821 144.666,44.821C137.334,44.821 131.393,44.756 131.393,44.676C131.393,44.596 137.334,44.531 144.666,44.531C151.996,44.531 157.938,44.596 157.938,44.676Z" fill="#086E86"/>
<path d="M146.368,49.663L141.875,49.663L141.875,57.261L146.368,57.261L146.368,49.663Z" fill="#086E86"/>
<path d="M157.944,60.221C157.944,60.301 152.001,60.366 144.672,60.366C137.34,60.366 131.398,60.301 131.398,60.221C131.398,60.141 137.34,60.076 144.672,60.076C152.001,60.076 157.944,60.141 157.944,60.221Z" fill="#086E86"/>
<path d="M146.366,65.201L141.873,65.201L141.873,72.8L146.366,72.8L146.366,65.201Z" fill="#086E86"/>
<path d="M157.938,75.783C157.938,75.863 151.996,75.928 144.666,75.928C137.334,75.928 131.393,75.863 131.393,75.783C131.393,75.703 137.334,75.638 144.666,75.638C151.996,75.638 157.938,75.703 157.938,75.783Z" fill="#086E86"/>
<path d="M146.366,80.284L141.873,80.284L141.873,87.883L146.366,87.883L146.366,80.284Z" fill="#086E86"/>
<path d="M157.938,90.864C157.938,90.944 151.996,91.009 144.666,91.009C137.334,91.009 131.393,90.944 131.393,90.864C131.393,90.784 137.334,90.719 144.666,90.719C151.996,90.719 157.938,90.784 157.938,90.864Z" fill="#086E86"/>
<path d="M146.366,95.438L141.873,95.438L141.873,103.036L146.366,103.036L146.366,95.438Z" fill="#086E86"/>
<path d="M146.366,110.804L141.873,110.804L141.873,118.402L146.366,118.402L146.366,110.804Z" fill="#086E86"/>
<path d="M157.938,106.015C157.938,106.095 151.996,106.16 144.666,106.16C137.334,106.16 131.393,106.095 131.393,106.015C131.393,105.935 137.334,105.87 144.666,105.87C151.996,105.87 157.938,105.935 157.938,106.015Z" fill="#086E86"/>
<path d="M119.595,34.328L115.102,34.328L115.102,41.927L119.595,41.927L119.595,34.328Z" fill="#1B5664"/>
<path d="M131.16,44.913C131.16,44.993 125.216,45.058 117.888,45.058C110.556,45.058 104.615,44.993 104.615,44.913C104.615,44.832 110.556,44.768 117.888,44.768C125.216,44.768 131.16,44.832 131.16,44.913Z" fill="#086E86"/>
<path d="M119.595,49.661L115.102,49.661L115.102,57.26L119.595,57.26L119.595,49.661Z" fill="#1B5664"/>
<path d="M131.16,60.245C131.16,60.325 125.216,60.39 117.888,60.39C110.556,60.39 104.615,60.325 104.615,60.245C104.615,60.164 110.556,60.1 117.888,60.1C125.216,60.1 131.16,60.164 131.16,60.245Z" fill="#086E86"/>
<path d="M119.595,64.972L115.102,64.972L115.102,72.57L119.595,72.57L119.595,64.972Z" fill="#1B5664"/>
<path d="M131.16,75.554C131.16,75.634 125.216,75.699 117.888,75.699C110.556,75.699 104.615,75.634 104.615,75.554C104.615,75.474 110.556,75.409 117.888,75.409C125.216,75.409 131.16,75.474 131.16,75.554Z" fill="#086E86"/>
<path d="M119.595,80.284L115.102,80.284L115.102,87.883L119.595,87.883L119.595,80.284Z" fill="#1B5664"/>
<path d="M131.16,90.868C131.16,90.948 125.216,91.013 117.888,91.013C110.556,91.013 104.615,90.948 104.615,90.868C104.615,90.788 110.556,90.723 117.888,90.723C125.216,90.723 131.16,90.788 131.16,90.868Z" fill="#086E86"/>
<path d="M119.595,95.601L115.102,95.601L115.102,103.199L119.595,103.199L119.595,95.601Z" fill="#1B5664"/>
<path d="M131.16,106.174C131.16,106.255 125.216,106.319 117.888,106.319C110.556,106.319 104.615,106.255 104.615,106.174C104.615,106.094 110.556,106.029 117.888,106.029C125.216,106.029 131.16,106.094 131.16,106.174Z" fill="#086E86"/>
<path d="M119.595,110.925L115.102,110.925L115.102,118.523L119.595,118.523L119.595,110.925Z" fill="#1B5664"/>
<path d="M333.706,16.467L293.266,16.467L293.266,119.239L333.706,119.239L333.706,16.467Z" fill="#63CAE1"/>
<path d="M333.696,16.467L313.477,16.467L313.477,118.955L333.696,118.955L333.696,16.467Z" fill="#4B4B4B"/>
<path d="M312.159,6.381L297.879,6.381L297.879,16.47L312.159,16.47L312.159,6.381Z" fill="#63CAE1"/>
<path d="M312.163,6.381L308.76,6.381L308.76,16.47L312.163,16.47L312.163,6.381Z" fill="#4B4B4B"/>
<path d="M289.895,16.47L289.895,15.881L334.888,15.881L334.888,16.47Z" fill="#086E86"/>
<path d="M304.667,20.874L301.244,20.874L301.244,26.662L304.667,26.662L304.667,20.874Z" fill="#1B5664"/>
<path d="M313.485,28.94C313.485,29.001 308.958,29.05 303.376,29.05C297.791,29.05 293.266,29 293.266,28.94C293.266,28.879 297.792,28.829 303.376,28.829C308.959,28.829 313.485,28.879 313.485,28.94Z" fill="#086E86"/>
<path d="M325.065,20.876L321.643,20.876L321.643,26.664L325.065,26.664L325.065,20.876Z" fill="#086E86"/>
<path d="M333.878,28.94C333.878,29.001 329.351,29.05 323.768,29.05C318.183,29.05 313.658,29 313.658,28.94C313.658,28.879 318.184,28.829 323.768,28.829C329.352,28.829 333.878,28.879 333.878,28.94Z" fill="#086E86"/>
<path d="M325.059,32.357L321.637,32.357L321.637,38.146L325.059,38.146L325.059,32.357Z" fill="#086E86"/>
<path d="M333.878,40.417C333.878,40.478 329.351,40.527 323.768,40.527C318.183,40.527 313.658,40.478 313.658,40.417C313.658,40.355 318.184,40.307 323.768,40.307C329.352,40.307 333.878,40.356 333.878,40.417Z" fill="#086E86"/>
<path d="M325.059,44.21L321.637,44.21L321.637,49.997L325.059,49.997L325.059,44.21Z" fill="#086E86"/>
<path d="M333.878,52.257C333.878,52.318 329.351,52.367 323.768,52.367C318.183,52.367 313.658,52.318 313.658,52.257C313.658,52.196 318.184,52.146 323.768,52.146C329.352,52.146 333.878,52.196 333.878,52.257Z" fill="#086E86"/>
<path d="M325.056,56.04L321.633,56.04L321.633,61.828L325.056,61.828L325.056,56.04Z" fill="#086E86"/>
<path d="M333.868,64.084C333.868,64.145 329.341,64.194 323.759,64.194C318.174,64.194 313.648,64.145 313.648,64.084C313.648,64.022 318.175,63.974 323.759,63.974C329.342,63.974 333.868,64.022 333.868,64.084Z" fill="#086E86"/>
<path d="M325.059,67.527L321.637,67.527L321.637,73.315L325.059,73.315L325.059,67.527Z" fill="#086E86"/>
<path d="M333.878,75.595C333.878,75.656 329.351,75.706 323.768,75.706C318.183,75.706 313.658,75.656 313.658,75.595C313.658,75.535 318.184,75.484 323.768,75.484C329.352,75.485 333.878,75.535 333.878,75.595Z" fill="#086E86"/>
<path d="M325.054,79.085L321.631,79.085L321.631,84.873L325.054,84.873L325.054,79.085Z" fill="#086E86"/>
<path d="M325.056,90.789L321.633,90.789L321.633,96.577L325.056,96.577L325.056,90.789Z" fill="#086E86"/>
<path d="M333.868,87.15C333.868,87.211 329.341,87.261 323.759,87.261C318.174,87.261 313.648,87.211 313.648,87.15C313.648,87.089 318.175,87.039 323.759,87.039C329.342,87.04 333.868,87.089 333.868,87.15Z" fill="#086E86"/>
<path d="M304.667,32.54L301.244,32.54L301.244,38.328L304.667,38.328L304.667,32.54Z" fill="#1B5664"/>
<path d="M313.485,40.585C313.485,40.646 308.958,40.695 303.376,40.695C297.791,40.695 293.266,40.646 293.266,40.585C293.266,40.523 297.792,40.475 303.376,40.475C308.959,40.474 313.485,40.523 313.485,40.585Z" fill="#086E86"/>
<path d="M304.667,44.209L301.244,44.209L301.244,49.997L304.667,49.997L304.667,44.209Z" fill="#1B5664"/>
<path d="M313.485,52.257C313.485,52.318 308.958,52.367 303.376,52.367C297.791,52.367 293.266,52.318 293.266,52.257C293.266,52.196 297.792,52.146 303.376,52.146C308.959,52.146 313.485,52.196 313.485,52.257Z" fill="#086E86"/>
<path d="M304.667,55.88L301.244,55.88L301.244,61.668L304.667,61.668L304.667,55.88Z" fill="#1B5664"/>
<path d="M313.485,63.927C313.485,63.989 308.958,64.038 303.376,64.038C297.791,64.038 293.266,63.989 293.266,63.927C293.266,63.866 297.792,63.817 303.376,63.817C308.959,63.817 313.485,63.867 313.485,63.927Z" fill="#086E86"/>
<path d="M304.667,67.527L301.244,67.527L301.244,73.315L304.667,73.315L304.667,67.527Z" fill="#1B5664"/>
<path d="M313.485,75.596C313.485,75.657 308.958,75.707 303.376,75.707C297.791,75.707 293.266,75.657 293.266,75.596C293.266,75.536 297.792,75.485 303.376,75.485C308.959,75.486 313.485,75.536 313.485,75.596Z" fill="#086E86"/>
<path d="M304.667,79.199L301.244,79.199L301.244,84.987L304.667,84.987L304.667,79.199Z" fill="#1B5664"/>
<path d="M313.485,87.265C313.485,87.327 308.958,87.376 303.376,87.376C297.791,87.376 293.266,87.327 293.266,87.265C293.266,87.205 297.792,87.155 303.376,87.155C308.959,87.155 313.485,87.205 313.485,87.265Z" fill="#086E86"/>
<path d="M304.673,90.869L301.25,90.869L301.25,96.657L304.673,96.657L304.673,90.869Z" fill="#1B5664"/>
<path d="M380.404,65.756L331.047,65.756L331.047,191.189L380.404,191.189L380.404,65.756Z" fill="#63CAE1"/>
<path d="M380.407,65.756L355.729,65.756L355.729,190.844L380.407,190.844L380.407,65.756Z" fill="#4B4B4B"/>
<path d="M354.111,53.449L336.682,53.449L336.682,65.764L354.111,65.764L354.111,53.449Z" fill="#63CAE1"/>
<path d="M354.109,53.449L349.955,53.449L349.955,65.764L354.109,65.764L354.109,53.449Z" fill="#4B4B4B"/>
<path d="M326.932,65.765L326.932,65.047L381.846,65.047L381.846,65.765Z" fill="#086E86"/>
<path d="M344.97,71.128L340.793,71.128L340.793,78.192L344.97,78.192L344.97,71.128Z" fill="#1B5664"/>
<path d="M355.725,80.964C355.725,81.038 350.2,81.099 343.387,81.099C336.57,81.099 331.047,81.038 331.047,80.964C331.047,80.89 336.571,80.829 343.387,80.829C350.2,80.829 355.725,80.89 355.725,80.964Z" fill="#086E86"/>
<path d="M369.858,71.127L365.68,71.127L365.68,78.191L369.858,78.191L369.858,71.127Z" fill="#086E86"/>
<path d="M380.622,80.96C380.622,81.034 375.097,81.095 368.283,81.095C361.466,81.095 355.943,81.034 355.943,80.96C355.943,80.886 361.467,80.825 368.283,80.825C375.097,80.825 380.622,80.886 380.622,80.96Z" fill="#086E86"/>
<path d="M369.858,85.156L365.68,85.156L365.68,92.221L369.858,92.221L369.858,85.156Z" fill="#086E86"/>
<path d="M380.622,94.992C380.622,95.067 375.097,95.127 368.283,95.127C361.466,95.127 355.943,95.067 355.943,94.992C355.943,94.918 361.467,94.857 368.283,94.857C375.097,94.857 380.622,94.917 380.622,94.992Z" fill="#086E86"/>
<path d="M369.858,99.61L365.68,99.61L365.68,106.675L369.858,106.675L369.858,99.61Z" fill="#086E86"/>
<path d="M380.612,109.44C380.612,109.515 375.087,109.575 368.273,109.575C361.457,109.575 355.934,109.515 355.934,109.44C355.934,109.366 361.458,109.306 368.273,109.306C375.087,109.306 380.612,109.366 380.612,109.44Z" fill="#086E86"/>
<path d="M369.858,114.063L365.68,114.063L365.68,121.127L369.858,121.127L369.858,114.063Z" fill="#086E86"/>
<path d="M380.612,123.896C380.612,123.97 375.087,124.03 368.273,124.03C361.457,124.03 355.934,123.97 355.934,123.896C355.934,123.821 361.458,123.761 368.273,123.761C375.087,123.761 380.612,123.821 380.612,123.896Z" fill="#086E86"/>
<path d="M369.858,128.098L365.68,128.098L365.68,135.162L369.858,135.162L369.858,128.098Z" fill="#086E86"/>
<path d="M380.612,137.932C380.612,138.006 375.087,138.067 368.273,138.067C361.457,138.067 355.934,138.006 355.934,137.932C355.934,137.857 361.458,137.797 368.273,137.797C375.087,137.797 380.612,137.857 380.612,137.932Z" fill="#086E86"/>
<path d="M369.862,142.196L365.684,142.196L365.684,149.261L369.862,149.261L369.862,142.196Z" fill="#086E86"/>
<path d="M369.862,156.464L365.684,156.464L365.684,163.528L369.862,163.528L369.862,156.464Z" fill="#086E86"/>
<path d="M380.612,152.034C380.612,152.109 375.087,152.169 368.273,152.169C361.457,152.169 355.934,152.109 355.934,152.034C355.934,151.96 361.458,151.899 368.273,151.899C375.087,151.899 380.612,151.96 380.612,152.034Z" fill="#086E86"/>
<path d="M344.97,85.378L340.793,85.378L340.793,92.442L344.97,92.442L344.97,85.378Z" fill="#1B5664"/>
<path d="M355.725,95.215C355.725,95.289 350.2,95.35 343.387,95.35C336.57,95.35 331.047,95.289 331.047,95.215C331.047,95.141 336.571,95.08 343.387,95.08C350.2,95.08 355.725,95.141 355.725,95.215Z" fill="#086E86"/>
<path d="M344.97,99.611L340.793,99.611L340.793,106.676L344.97,106.676L344.97,99.611Z" fill="#1B5664"/>
<path d="M355.725,109.447C355.725,109.522 350.2,109.582 343.387,109.582C336.57,109.582 331.047,109.522 331.047,109.447C331.047,109.373 336.571,109.313 343.387,109.313C350.2,109.313 355.725,109.373 355.725,109.447Z" fill="#086E86"/>
<path d="M344.97,113.842L340.793,113.842L340.793,120.906L344.97,120.906L344.97,113.842Z" fill="#1B5664"/>
<path d="M355.725,123.702C355.725,123.777 350.2,123.837 343.387,123.837C336.57,123.837 331.047,123.777 331.047,123.702C331.047,123.628 336.571,123.567 343.387,123.567C350.2,123.567 355.725,123.628 355.725,123.702Z" fill="#086E86"/>
<path d="M344.97,128.096L340.793,128.096L340.793,135.16L344.97,135.16L344.97,128.096Z" fill="#1B5664"/>
<path d="M355.725,137.928C355.725,138.002 350.2,138.063 343.387,138.063C336.57,138.063 331.047,138.002 331.047,137.928C331.047,137.853 336.571,137.793 343.387,137.793C350.2,137.793 355.725,137.853 355.725,137.928Z" fill="#086E86"/>
<path d="M344.97,142.329L340.793,142.329L340.793,149.393L344.97,149.393L344.97,142.329Z" fill="#1B5664"/>
<path d="M355.725,152.161C355.725,152.236 350.2,152.296 343.387,152.296C336.57,152.296 331.047,152.236 331.047,152.161C331.047,152.087 336.571,152.026 343.387,152.026C350.2,152.026 355.725,152.087 355.725,152.161Z" fill="#086E86"/>
<path d="M344.974,156.576L340.797,156.576L340.797,163.64L344.974,163.64L344.974,156.576Z" fill="#1B5664"/>
<path d="M332.245,101.58L247.521,101.58L247.521,191.188L332.245,191.188L332.245,101.58Z" fill="#4B4B4B"/>
<path d="M332.25,101.58L292.525,101.58L292.525,191.188L332.25,191.188L332.25,101.58Z" fill="#086E86"/>
<path d="M272.907,113.711L265.289,113.711L265.289,128.552L272.907,128.552L272.907,113.711Z" fill="#63CAE1"/>
<path d="M272.907,171.8L265.289,171.8L265.289,186.641L272.907,186.641L272.907,171.8Z" fill="#63CAE1"/>
<path d="M292.525,134.387C292.525,134.554 282.451,134.688 270.027,134.688C257.598,134.688 247.527,134.553 247.527,134.387C247.527,134.22 257.599,134.085 270.027,134.085C282.451,134.085 292.525,134.22 292.525,134.387Z" fill="#63CAE1"/>
<path d="M272.911,142.977L265.293,142.977L265.293,157.818L272.911,157.818L272.911,142.977Z" fill="#63CAE1"/>
<path d="M292.519,163.637C292.519,163.804 282.445,163.938 270.021,163.938C257.593,163.938 247.521,163.803 247.521,163.637C247.521,163.471 257.594,163.335 270.021,163.335C282.445,163.335 292.519,163.47 292.519,163.637Z" fill="#63CAE1"/>
<path d="M308.58,113.711L300.963,113.711L300.963,128.552L308.58,128.552L308.58,113.711Z" fill="#63CAE1"/>
<path d="M325.106,113.711L317.488,113.711L317.488,128.552L325.106,128.552L325.106,113.711Z" fill="#63CAE1"/>
<path d="M308.58,141.882L300.963,141.882L300.963,156.722L308.58,156.722L308.58,141.882Z" fill="#63CAE1"/>
<path d="M325.106,141.882L317.488,141.882L317.488,156.722L325.106,156.722L325.106,141.882Z" fill="#63CAE1"/>
<path d="M308.58,170.036L300.963,170.036L300.963,184.877L308.58,184.877L308.58,170.036Z" fill="#63CAE1"/>
<path d="M325.106,170.036L317.488,170.036L317.488,184.877L325.106,184.877L325.106,170.036Z" fill="#63CAE1"/>
<path d="M338.614,98.455L241.152,98.455L241.152,101.686L338.614,101.686L338.614,98.455Z" fill="#086E86"/>
<path d="M332.836,101.996C332.836,102.163 313.9,102.299 290.546,102.299C267.184,102.299 248.252,102.163 248.252,101.996C248.252,101.829 267.184,101.694 290.546,101.694C313.899,101.694 332.836,101.83 332.836,101.996Z" fill="#4B4B4B"/>
<path d="M57.351,56.518L4.262,56.518L4.262,191.436L57.351,191.436L57.351,56.518Z" fill="#63CAE1"/>
<path d="M57.351,56.518L30.807,56.518L30.807,191.065L57.351,191.065L57.351,56.518Z" fill="#4B4B4B"/>
<path d="M29.064,43.284L10.316,43.284L10.316,56.529L29.064,56.529L29.064,43.284Z" fill="#63CAE1"/>
<path d="M29.066,43.284L24.598,43.284L24.598,56.529L29.066,56.529L29.066,43.284Z" fill="#4B4B4B"/>
<path d="M-0.164,56.521L-0.164,55.748L58.904,55.748L58.904,56.521Z" fill="#086E86"/>
<path d="M19.232,62.302L14.738,62.302L14.738,69.9L19.232,69.9L19.232,62.302Z" fill="#1B5664"/>
<path d="M30.803,72.891C30.803,72.971 24.86,73.036 17.531,73.036C10.199,73.036 4.258,72.971 4.258,72.891C4.258,72.811 10.199,72.746 17.531,72.746C24.86,72.746 30.803,72.811 30.803,72.891Z" fill="#086E86"/>
<path d="M46.009,62.304L41.516,62.304L41.516,69.902L46.009,69.902L46.009,62.304Z" fill="#086E86"/>
<path d="M57.58,72.887C57.58,72.967 51.636,73.032 44.308,73.032C36.976,73.032 31.035,72.967 31.035,72.887C31.035,72.807 36.976,72.742 44.308,72.742C51.637,72.742 57.58,72.807 57.58,72.887Z" fill="#086E86"/>
<path d="M46.009,77.386L41.516,77.386L41.516,84.984L46.009,84.984L46.009,77.386Z" fill="#086E86"/>
<path d="M57.58,87.964C57.58,88.045 51.636,88.109 44.308,88.109C36.976,88.109 31.035,88.045 31.035,87.964C31.035,87.884 36.976,87.819 44.308,87.819C51.637,87.819 57.58,87.885 57.58,87.964Z" fill="#086E86"/>
<path d="M46.009,92.925L41.516,92.925L41.516,100.523L46.009,100.523L46.009,92.925Z" fill="#086E86"/>
<path d="M57.58,103.503C57.58,103.584 51.636,103.648 44.308,103.648C36.976,103.648 31.035,103.584 31.035,103.503C31.035,103.423 36.976,103.358 44.308,103.358C51.637,103.358 57.58,103.423 57.58,103.503Z" fill="#086E86"/>
<path d="M46.009,108.463L41.516,108.463L41.516,116.061L46.009,116.061L46.009,108.463Z" fill="#086E86"/>
<path d="M57.58,119.042C57.58,119.123 51.636,119.188 44.308,119.188C36.976,119.188 31.035,119.123 31.035,119.042C31.035,118.962 36.976,118.897 44.308,118.897C51.637,118.897 57.58,118.962 57.58,119.042Z" fill="#086E86"/>
<path d="M46.009,123.567L41.516,123.567L41.516,131.165L46.009,131.165L46.009,123.567Z" fill="#086E86"/>
<path d="M57.58,134.148C57.58,134.228 51.636,134.293 44.308,134.293C36.976,134.293 31.035,134.228 31.035,134.148C31.035,134.068 36.976,134.003 44.308,134.003C51.637,134.004 57.58,134.069 57.58,134.148Z" fill="#086E86"/>
<path d="M46.009,138.725L41.516,138.725L41.516,146.322L46.009,146.322L46.009,138.725Z" fill="#086E86"/>
<path d="M46.009,154.072L41.516,154.072L41.516,161.671L46.009,161.671L46.009,154.072Z" fill="#086E86"/>
<path d="M57.58,149.302C57.58,149.382 51.636,149.447 44.308,149.447C36.976,149.447 31.035,149.382 31.035,149.302C31.035,149.222 36.976,149.157 44.308,149.157C51.637,149.157 57.58,149.222 57.58,149.302Z" fill="#086E86"/>
<path d="M19.232,77.619L14.738,77.619L14.738,85.218L19.232,85.218L19.232,77.619Z" fill="#1B5664"/>
<path d="M30.807,88.199C30.807,88.279 24.864,88.344 17.535,88.344C10.203,88.344 4.262,88.279 4.262,88.199C4.262,88.119 10.203,88.054 17.535,88.054C24.864,88.054 30.807,88.119 30.807,88.199Z" fill="#086E86"/>
<path d="M19.232,92.927L14.738,92.927L14.738,100.525L19.232,100.525L19.232,92.927Z" fill="#1B5664"/>
<path d="M30.803,103.507C30.803,103.587 24.86,103.652 17.531,103.652C10.199,103.652 4.258,103.587 4.258,103.507C4.258,103.427 10.199,103.362 17.531,103.362C24.86,103.362 30.803,103.427 30.803,103.507Z" fill="#086E86"/>
<path d="M19.232,108.24L14.738,108.24L14.738,115.839L19.232,115.839L19.232,108.24Z" fill="#1B5664"/>
<path d="M30.807,118.842C30.807,118.922 24.864,118.987 17.535,118.987C10.203,118.987 4.262,118.922 4.262,118.842C4.262,118.762 10.203,118.697 17.535,118.697C24.864,118.697 30.807,118.763 30.807,118.842Z" fill="#086E86"/>
<path d="M19.232,123.563L14.738,123.563L14.738,131.161L19.232,131.161L19.232,123.563Z" fill="#1B5664"/>
<path d="M30.803,134.147C30.803,134.227 24.86,134.292 17.531,134.292C10.199,134.292 4.258,134.227 4.258,134.147C4.258,134.067 10.199,134.002 17.531,134.002C24.86,134.003 30.803,134.068 30.803,134.147Z" fill="#086E86"/>
<path d="M19.232,138.882L14.738,138.882L14.738,146.48L19.232,146.48L19.232,138.882Z" fill="#1B5664"/>
<path d="M30.807,149.462C30.807,149.543 24.864,149.607 17.535,149.607C10.203,149.607 4.262,149.543 4.262,149.462C4.262,149.382 10.203,149.317 17.535,149.317C24.864,149.318 30.807,149.383 30.807,149.462Z" fill="#086E86"/>
<path d="M19.232,154.19L14.738,154.19L14.738,161.789L19.232,161.789L19.232,154.19Z" fill="#1B5664"/>
<path d="M144.416,190.887L66.293,190.887L65.953,91.881L144.076,91.881L144.416,190.887Z" fill="#4B4B4B"/>
<path d="M144.083,91.881L105.021,91.881L105.021,190.887L144.083,190.887L144.083,91.881Z" fill="#292929"/>
<path d="M102.46,72.393L74.873,72.393L74.873,91.884L102.46,91.884L102.46,72.393Z" fill="#4B4B4B"/>
<path d="M102.461,72.393L95.887,72.393L95.887,91.884L102.461,91.884L102.461,72.393Z" fill="#086E86"/>
<path d="M146.365,90.752L59.445,90.752L59.445,91.889L146.365,91.889L146.365,90.752Z" fill="#086E86"/>
<path d="M87.99,100.385L81.377,100.385L81.377,111.566L87.99,111.566L87.99,100.385Z" fill="#63CAE1"/>
<path d="M105.01,115.946C105.01,116.064 96.265,116.159 85.481,116.159C74.692,116.159 65.949,116.064 65.949,115.946C65.949,115.828 74.692,115.732 85.481,115.732C96.265,115.732 105.01,115.828 105.01,115.946Z" fill="#086E86"/>
<path d="M127.39,100.384L120.777,100.384L120.777,111.565L127.39,111.565L127.39,100.384Z" fill="#63CAE1"/>
<path d="M144.417,115.97C144.417,116.088 135.672,116.184 124.887,116.184C114.099,116.184 105.355,116.088 105.355,115.97C105.355,115.852 114.099,115.757 124.887,115.757C135.672,115.757 144.417,115.852 144.417,115.97Z" fill="#4B4B4B"/>
<path d="M127.39,122.599L120.777,122.599L120.777,133.78L127.39,133.78L127.39,122.599Z" fill="#63CAE1"/>
<path d="M144.417,138.165C144.417,138.283 135.672,138.378 124.887,138.378C114.099,138.378 105.355,138.283 105.355,138.165C105.355,138.047 114.099,137.951 124.887,137.951C135.672,137.951 144.417,138.047 144.417,138.165Z" fill="#4B4B4B"/>
<path d="M127.39,145.451L120.777,145.451L120.777,156.632L127.39,156.632L127.39,145.451Z" fill="#63CAE1"/>
<path d="M144.426,161.014C144.426,161.132 135.681,161.228 124.897,161.228C114.109,161.228 105.365,161.132 105.365,161.014C105.365,160.896 114.109,160.801 124.897,160.801C135.681,160.802 144.426,160.897 144.426,161.014Z" fill="#4B4B4B"/>
<path d="M127.39,168.326L120.777,168.326L120.777,179.507L127.39,179.507L127.39,168.326Z" fill="#63CAE1"/>
<path d="M144.417,183.889C144.417,184.007 135.672,184.103 124.887,184.103C114.099,184.103 105.355,184.007 105.355,183.889C105.355,183.771 114.099,183.676 124.887,183.676C135.672,183.676 144.417,183.771 144.417,183.889Z" fill="#4B4B4B"/>
<path d="M87.99,122.921L81.377,122.921L81.377,134.102L87.99,134.102L87.99,122.921Z" fill="#63CAE1"/>
<path d="M105.01,138.507C105.01,138.625 96.265,138.72 85.481,138.72C74.692,138.72 65.949,138.625 65.949,138.507C65.949,138.388 74.692,138.293 85.481,138.293C96.265,138.293 105.01,138.388 105.01,138.507Z" fill="#086E86"/>
<path d="M87.99,145.457L81.377,145.457L81.377,156.638L87.99,156.638L87.99,145.457Z" fill="#63CAE1"/>
<path d="M105.01,161.015C105.01,161.133 96.265,161.229 85.481,161.229C74.692,161.229 65.949,161.133 65.949,161.015C65.949,160.897 74.692,160.802 85.481,160.802C96.265,160.802 105.01,160.898 105.01,161.015Z" fill="#086E86"/>
<path d="M87.99,167.993L81.377,167.993L81.377,179.174L87.99,179.174L87.99,167.993Z" fill="#63CAE1"/>
<path d="M105.01,183.573C105.01,183.691 96.265,183.786 85.481,183.786C74.692,183.786 65.949,183.691 65.949,183.573C65.949,183.455 74.692,183.359 85.481,183.359C96.265,183.36 105.01,183.456 105.01,183.573Z" fill="#086E86"/>
<path d="M265.042,177.461L199.585,177.461L199.301,49.203L264.757,49.203L265.042,177.461Z" fill="#4B4B4B"/>
<path d="M264.757,49.203L232.029,49.203L232.029,177.461L264.757,177.461L264.757,49.203Z" fill="#086E86"/>
<path d="M229.884,32.937L206.77,32.937L206.77,49.203L229.884,49.203L229.884,32.937Z" fill="#4B4B4B"/>
<path d="M229.884,32.937L224.375,32.937L224.375,49.203L229.884,49.203L229.884,32.937Z" fill="#086E86"/>
<path d="M266.67,48.263L197.344,48.263L197.344,49.212L266.67,49.212L266.67,48.263Z" fill="#086E86"/>
<path d="M217.757,56.304L212.217,56.304L212.217,65.635L217.757,65.635L217.757,56.304Z" fill="#63CAE1"/>
<path d="M232.025,69.286C232.025,69.385 224.698,69.464 215.662,69.464C206.622,69.464 199.297,69.385 199.297,69.286C199.297,69.188 206.622,69.108 215.662,69.108C224.698,69.108 232.025,69.188 232.025,69.286Z" fill="#086E86"/>
<path d="M250.775,56.308L245.234,56.308L245.234,65.639L250.775,65.639L250.775,56.308Z" fill="#63CAE1"/>
<path d="M265.043,69.288C265.043,69.387 257.715,69.466 248.679,69.466C239.64,69.466 232.314,69.387 232.314,69.288C232.314,69.19 239.64,69.11 248.679,69.11C257.715,69.11 265.043,69.19 265.043,69.288Z" fill="#4B4B4B"/>
<path d="M250.775,74.828L245.234,74.828L245.234,84.16L250.775,84.16L250.775,74.828Z" fill="#63CAE1"/>
<path d="M265.043,87.832C265.043,87.931 257.715,88.011 248.679,88.011C239.64,88.011 232.314,87.931 232.314,87.832C232.314,87.734 239.64,87.654 248.679,87.654C257.715,87.654 265.043,87.734 265.043,87.832Z" fill="#4B4B4B"/>
<path d="M250.775,93.918L245.234,93.918L245.234,103.25L250.775,103.25L250.775,93.918Z" fill="#63CAE1"/>
<path d="M265.043,106.926C265.043,107.024 257.715,107.103 248.679,107.103C239.64,107.103 232.314,107.023 232.314,106.926C232.314,106.828 239.64,106.747 248.679,106.747C257.715,106.747 265.043,106.827 265.043,106.926Z" fill="#4B4B4B"/>
<path d="M250.775,112.984L245.234,112.984L245.234,122.316L250.775,122.316L250.775,112.984Z" fill="#63CAE1"/>
<path d="M265.043,125.983C265.043,126.081 257.715,126.16 248.679,126.16C239.64,126.16 232.314,126.081 232.314,125.983C232.314,125.884 239.64,125.805 248.679,125.805C257.715,125.804 265.043,125.884 265.043,125.983Z" fill="#4B4B4B"/>
<path d="M217.757,75.104L212.217,75.104L212.217,84.435L217.757,84.435L217.757,75.104Z" fill="#63CAE1"/>
<path d="M232.025,88.104C232.025,88.202 224.698,88.282 215.662,88.282C206.622,88.282 199.297,88.202 199.297,88.104C199.297,88.005 206.622,87.926 215.662,87.926C224.698,87.926 232.025,88.005 232.025,88.104Z" fill="#086E86"/>
<path d="M217.757,93.917L212.217,93.917L212.217,103.249L217.757,103.249L217.757,93.917Z" fill="#63CAE1"/>
<path d="M232.025,106.9C232.025,106.998 224.698,107.077 215.662,107.077C206.622,107.077 199.297,106.997 199.297,106.9C199.297,106.801 206.622,106.722 215.662,106.722C224.698,106.721 232.025,106.8 232.025,106.9Z" fill="#086E86"/>
<path d="M217.757,112.718L212.217,112.718L212.217,122.049L217.757,122.049L217.757,112.718Z" fill="#63CAE1"/>
<path d="M232.025,125.721C232.025,125.819 224.698,125.899 215.662,125.899C206.622,125.899 199.297,125.82 199.297,125.721C199.297,125.622 206.622,125.543 215.662,125.543C224.698,125.543 232.025,125.622 232.025,125.721Z" fill="#086E86"/>
<path d="M248.431,190.152L152.672,190.152L152.256,69.273L248.014,69.273L248.431,190.152Z" fill="#4B4B4B"/>
<path d="M248.026,69.273L200.146,69.273L200.146,190.152L248.026,190.152L248.026,69.273Z" fill="#292929"/>
<path d="M196.994,45.49L163.18,45.49L163.18,69.288L196.994,69.288L196.994,45.49Z" fill="#4B4B4B"/>
<path d="M196.994,45.49L188.936,45.49L188.936,69.288L196.994,69.288L196.994,45.49Z" fill="#086E86"/>
<path d="M250.813,67.884L144.271,67.884L144.271,69.272L250.813,69.272L250.813,67.884Z" fill="#086E86"/>
<path d="M179.273,79.664L171.168,79.664L171.168,93.316L179.273,93.316L179.273,79.664Z" fill="#63CAE1"/>
<path d="M200.135,98.67C200.135,98.814 189.416,98.93 176.197,98.93C162.973,98.93 152.256,98.814 152.256,98.67C152.256,98.526 162.973,98.41 176.197,98.41C189.416,98.41 200.135,98.526 200.135,98.67Z" fill="#086E86"/>
<path d="M227.566,79.664L219.461,79.664L219.461,93.316L227.566,93.316L227.566,79.664Z" fill="#63CAE1"/>
<path d="M248.442,98.666C248.442,98.81 237.722,98.927 224.503,98.927C211.279,98.927 200.563,98.81 200.563,98.666C200.563,98.522 211.279,98.406 224.503,98.406C237.722,98.406 248.442,98.522 248.442,98.666Z" fill="#4B4B4B"/>
<path d="M227.562,106.761L219.457,106.761L219.457,120.412L227.562,120.412L227.562,106.761Z" fill="#63CAE1"/>
<path d="M248.428,125.771C248.428,125.915 237.709,126.032 224.49,126.032C211.266,126.032 200.549,125.916 200.549,125.771C200.549,125.627 211.266,125.511 224.49,125.511C237.709,125.511 248.428,125.628 248.428,125.771Z" fill="#4B4B4B"/>
<path d="M227.566,134.673L219.461,134.673L219.461,148.324L227.566,148.324L227.566,134.673Z" fill="#63CAE1"/>
<path d="M248.442,153.703C248.442,153.846 237.722,153.964 224.503,153.964C211.279,153.964 200.563,153.846 200.563,153.703C200.563,153.559 211.279,153.442 224.503,153.442C237.722,153.441 248.442,153.559 248.442,153.703Z" fill="#4B4B4B"/>
<path d="M227.566,162.607L219.461,162.607L219.461,176.259L227.566,176.259L227.566,162.607Z" fill="#63CAE1"/>
<path d="M248.442,181.621C248.442,181.765 237.722,181.883 224.503,181.883C211.279,181.883 200.563,181.765 200.563,181.621C200.563,181.478 211.279,181.361 224.503,181.361C237.722,181.361 248.442,181.478 248.442,181.621Z" fill="#4B4B4B"/>
<path d="M179.273,107.182L171.168,107.182L171.168,120.833L179.273,120.833L179.273,107.182Z" fill="#63CAE1"/>
<path d="M200.135,126.192C200.135,126.336 189.416,126.453 176.197,126.453C162.973,126.453 152.256,126.336 152.256,126.192C152.256,126.048 162.973,125.932 176.197,125.932C189.416,125.932 200.135,126.048 200.135,126.192Z" fill="#086E86"/>
<path d="M179.273,134.703L171.168,134.703L171.168,148.355L179.273,148.355L179.273,134.703Z" fill="#63CAE1"/>
<path d="M200.135,153.704C200.135,153.847 189.416,153.964 176.197,153.964C162.973,153.964 152.256,153.847 152.256,153.704C152.256,153.56 162.973,153.443 176.197,153.443C189.416,153.442 200.135,153.56 200.135,153.704Z" fill="#086E86"/>
<path d="M179.273,162.215L171.168,162.215L171.168,175.866L179.273,175.866L179.273,162.215Z" fill="#63CAE1"/>
<path d="M200.135,181.232C200.135,181.376 189.416,181.493 176.197,181.493C162.973,181.493 152.256,181.377 152.256,181.232C152.256,181.088 162.973,180.972 176.197,180.972C189.416,180.972 200.135,181.088 200.135,181.232Z" fill="#086E86"/>
<path d="M227.991,16.732C228.429,13.944 223.934,11.65 220.558,11.412C218.947,11.299 217.275,11.514 215.749,11.049C212.444,10.04 211.123,6.301 207.897,5.11C205.486,4.219 202.71,5.012 200.372,6.042C198.034,7.072 195.724,8.368 193.113,8.515C190.841,8.642 188.374,7.904 186.386,8.876C184.905,9.6 184.13,11.095 182.765,11.976C181.429,12.838 179.687,13.021 178.03,13.1C176.373,13.178 174.658,13.193 173.149,13.798C171.64,14.403 170.391,15.8 170.705,17.226L227.991,16.732Z" fill="#63CAE1"/>
<path d="M380.276,16.083C380.593,14.071 377.35,12.415 374.913,12.243C373.751,12.162 372.544,12.317 371.443,11.981C369.057,11.253 368.105,8.555 365.777,7.696C364.037,7.053 362.034,7.625 360.347,8.368C358.66,9.112 356.993,10.048 355.108,10.153C353.468,10.245 351.689,9.713 350.254,10.414C349.185,10.937 348.625,12.015 347.64,12.651C346.676,13.273 345.419,13.405 344.223,13.462C343.027,13.519 341.789,13.53 340.701,13.966C339.612,14.403 338.711,15.411 338.937,16.441L380.276,16.083Z" fill="#63CAE1"/>
<path d="M43.124,30.586C43.44,28.573 40.197,26.918 37.76,26.746C36.597,26.664 35.39,26.82 34.29,26.484C31.904,25.756 30.951,23.058 28.624,22.199C26.883,21.556 24.88,22.128 23.193,22.871C21.507,23.615 19.84,24.55 17.955,24.655C16.315,24.747 14.535,24.215 13.101,24.916C12.033,25.439 11.473,26.517 10.487,27.153C9.524,27.775 8.266,27.907 7.071,27.964C5.875,28.021 4.637,28.032 3.548,28.469C2.459,28.905 1.559,29.913 1.785,30.943L43.124,30.586Z" fill="#63CAE1"/>
<path d="M0.107,197.536L48.796,197.358L97.484,197.294L194.861,197.172L292.239,197.293L340.927,197.357L389.615,197.536L340.927,197.713L292.239,197.778L194.861,197.899L97.484,197.777L48.796,197.713L0.107,197.536Z" fill="#63CAE1"/>
<path d="M389.615,189.826L0.107,189.826L0.107,197.534L389.615,197.534L389.615,189.826Z" fill="#50A6BA"/>
<path d="M20.143,189.825C20.377,191.11 20.43,192.394 20.44,193.679C20.431,194.964 20.379,196.248 20.143,197.533C19.907,196.248 19.855,194.964 19.846,193.679C19.856,192.394 19.908,191.11 20.143,189.825Z" fill="#63CAE1"/>
<path d="M43.44,189.825C43.674,191.11 43.727,192.394 43.737,193.679C43.728,194.964 43.676,196.248 43.44,197.533C43.204,196.248 43.151,194.964 43.143,193.679C43.153,192.394 43.205,191.11 43.44,189.825Z" fill="#63CAE1"/>
<path d="M66.731,189.825C66.965,191.11 67.018,192.394 67.028,193.679C67.019,194.964 66.967,196.248 66.731,197.533C66.495,196.248 66.443,194.964 66.434,193.679C66.444,192.394 66.497,191.11 66.731,189.825Z" fill="#63CAE1"/>
<path d="M90.028,189.825C90.262,191.11 90.315,192.394 90.325,193.679C90.316,194.964 90.264,196.248 90.028,197.533C89.792,196.248 89.739,194.964 89.73,193.679C89.741,192.394 89.794,191.11 90.028,189.825Z" fill="#63CAE1"/>
<path d="M113.325,189.825C113.559,191.11 113.612,192.394 113.622,193.679C113.613,194.964 113.561,196.248 113.325,197.533C113.089,196.248 113.036,194.964 113.027,193.679C113.037,192.394 113.09,191.11 113.325,189.825Z" fill="#63CAE1"/>
<path d="M136.62,189.825C136.854,191.11 136.907,192.394 136.917,193.679C136.908,194.964 136.856,196.248 136.62,197.533C136.384,196.248 136.331,194.964 136.322,193.679C136.333,192.394 136.385,191.11 136.62,189.825Z" fill="#63CAE1"/>
<path d="M159.913,189.825C160.147,191.11 160.2,192.394 160.21,193.679C160.201,194.964 160.149,196.248 159.913,197.533C159.676,196.248 159.624,194.964 159.615,193.679C159.625,192.394 159.678,191.11 159.913,189.825Z" fill="#63CAE1"/>
<path d="M183.209,189.825C183.444,191.11 183.497,192.394 183.507,193.679C183.498,194.964 183.446,196.248 183.209,197.533C182.974,196.248 182.921,194.964 182.912,193.679C182.922,192.394 182.975,191.11 183.209,189.825Z" fill="#63CAE1"/>
<path d="M206.5,189.825C206.735,191.11 206.788,192.394 206.798,193.679C206.789,194.964 206.737,196.248 206.5,197.533C206.264,196.248 206.212,194.964 206.203,193.679C206.213,192.394 206.266,191.11 206.5,189.825Z" fill="#63CAE1"/>
<path d="M229.801,189.825C230.036,191.11 230.088,192.394 230.099,193.679C230.09,194.964 230.037,196.248 229.801,197.533C229.565,196.248 229.513,194.964 229.504,193.679C229.514,192.394 229.567,191.11 229.801,189.825Z" fill="#63CAE1"/>
<path d="M253.094,189.825C253.329,191.11 253.381,192.394 253.392,193.679C253.383,194.964 253.33,196.248 253.094,197.533C252.859,196.248 252.806,194.964 252.797,193.679C252.808,192.394 252.86,191.11 253.094,189.825Z" fill="#63CAE1"/>
<path d="M276.389,189.825C276.623,191.11 276.676,192.394 276.686,193.679C276.678,194.964 276.625,196.248 276.389,197.533C276.154,196.248 276.101,194.964 276.092,193.679C276.102,192.394 276.154,191.11 276.389,189.825Z" fill="#63CAE1"/>
<path d="M299.682,189.825C299.916,191.11 299.969,192.394 299.979,193.679C299.971,194.964 299.918,196.248 299.682,197.533C299.446,196.248 299.394,194.964 299.385,193.679C299.395,192.394 299.448,191.11 299.682,189.825Z" fill="#63CAE1"/>
<path d="M322.983,189.825C323.217,191.11 323.27,192.394 323.28,193.679C323.271,194.964 323.219,196.248 322.983,197.533C322.747,196.248 322.694,194.964 322.686,193.679C322.696,192.394 322.749,191.11 322.983,189.825Z" fill="#63CAE1"/>
<path d="M346.27,189.825C346.504,191.11 346.557,192.394 346.567,193.679C346.558,194.964 346.506,196.248 346.27,197.533C346.035,196.248 345.982,194.964 345.973,193.679C345.983,192.394 346.036,191.11 346.27,189.825Z" fill="#63CAE1"/>
<path d="M369.571,189.825C369.805,191.11 369.858,192.394 369.868,193.679C369.859,194.964 369.807,196.248 369.571,197.533C369.335,196.248 369.282,194.964 369.273,193.679C369.284,192.394 369.336,191.11 369.571,189.825Z" fill="#63CAE1"/>
</g>
<g opacity="0.05">
<path d="M688.597,51.902C689.035,49.113 684.542,46.82 681.164,46.582C679.554,46.469 677.882,46.684 676.356,46.219C673.05,45.21 671.729,41.471 668.504,40.28C666.093,39.389 663.316,40.182 660.978,41.212C658.641,42.242 656.331,43.538 653.718,43.685C651.446,43.812 648.98,43.074 646.992,44.046C645.51,44.77 644.735,46.265 643.37,47.146C642.035,48.008 640.293,48.191 638.636,48.27C636.979,48.348 635.263,48.363 633.754,48.968C632.246,49.573 630.997,50.97 631.31,52.397L688.597,51.902Z" fill="#4B4B4B"/>
<path d="M763.852,43.352C764.29,40.563 759.796,38.27 756.419,38.032C754.809,37.918 753.136,38.134 751.61,37.668C748.305,36.659 746.984,32.92 743.759,31.729C741.348,30.838 738.571,31.631 736.233,32.661C733.896,33.691 731.585,34.987 728.974,35.134C726.702,35.261 724.235,34.523 722.248,35.495C720.766,36.219 719.991,37.714 718.626,38.595C717.291,39.457 715.548,39.64 713.892,39.719C712.235,39.797 710.519,39.812 709.01,40.417C707.501,41.022 706.253,42.419 706.566,43.845L763.852,43.352Z" fill="#63CAE1"/>
<path d="M546.422,13.25L493.332,13.25L493.332,191.074L546.422,191.074L546.422,13.25Z" fill="#63CAE1"/>
<path d="M546.425,13.25L519.881,13.25L519.881,190.634L546.425,190.634L546.425,13.25Z" fill="#4B4B4B"/>
<path d="M518.138,0L499.391,0L499.391,13.245L518.138,13.245L518.138,0Z" fill="#63CAE1"/>
<path d="M518.146,0L513.678,0L513.678,13.245L518.146,13.245L518.146,0Z" fill="#4B4B4B"/>
<path d="M488.91,13.255L488.91,12.482L547.977,12.482L547.977,13.255Z" fill="#086E86"/>
<path d="M508.306,19.021L503.813,19.021L503.813,26.619L508.306,26.619L508.306,19.021Z" fill="#1B5664"/>
<path d="M519.871,29.605C519.871,29.685 513.927,29.75 506.599,29.75C499.267,29.75 493.326,29.685 493.326,29.605C493.326,29.525 499.267,29.46 506.599,29.46C513.927,29.46 519.871,29.525 519.871,29.605Z" fill="#086E86"/>
<path d="M535.077,19.019L530.584,19.019L530.584,26.616L535.077,26.616L535.077,19.019Z" fill="#086E86"/>
<path d="M546.649,29.597C546.649,29.677 540.707,29.742 533.377,29.742C526.045,29.742 520.104,29.677 520.104,29.597C520.104,29.517 526.045,29.452 533.377,29.452C540.707,29.452 546.649,29.517 546.649,29.597Z" fill="#086E86"/>
<path d="M535.077,34.098L530.584,34.098L530.584,41.696L535.077,41.696L535.077,34.098Z" fill="#086E86"/>
<path d="M546.649,44.676C546.649,44.756 540.707,44.821 533.377,44.821C526.045,44.821 520.104,44.756 520.104,44.676C520.104,44.596 526.045,44.531 533.377,44.531C540.707,44.531 546.649,44.596 546.649,44.676Z" fill="#086E86"/>
<path d="M535.079,49.663L530.586,49.663L530.586,57.261L535.079,57.261L535.079,49.663Z" fill="#086E86"/>
<path d="M546.655,60.221C546.655,60.301 540.712,60.366 533.382,60.366C526.051,60.366 520.109,60.301 520.109,60.221C520.109,60.141 526.051,60.076 533.382,60.076C540.712,60.076 546.655,60.141 546.655,60.221Z" fill="#086E86"/>
<path d="M535.077,65.201L530.584,65.201L530.584,72.8L535.077,72.8L535.077,65.201Z" fill="#086E86"/>
<path d="M546.649,75.783C546.649,75.863 540.707,75.928 533.377,75.928C526.045,75.928 520.104,75.863 520.104,75.783C520.104,75.703 526.045,75.638 533.377,75.638C540.707,75.638 546.649,75.703 546.649,75.783Z" fill="#086E86"/>
<path d="M535.077,80.284L530.584,80.284L530.584,87.883L535.077,87.883L535.077,80.284Z" fill="#086E86"/>
<path d="M546.649,90.864C546.649,90.944 540.707,91.009 533.377,91.009C526.045,91.009 520.104,90.944 520.104,90.864C520.104,90.784 526.045,90.719 533.377,90.719C540.707,90.719 546.649,90.784 546.649,90.864Z" fill="#086E86"/>
<path d="M535.077,95.438L530.584,95.438L530.584,103.036L535.077,103.036L535.077,95.438Z" fill="#086E86"/>
<path d="M535.077,110.804L530.584,110.804L530.584,118.402L535.077,118.402L535.077,110.804Z" fill="#086E86"/>
<path d="M546.649,106.015C546.649,106.095 540.707,106.16 533.377,106.16C526.045,106.16 520.104,106.095 520.104,106.015C520.104,105.935 526.045,105.87 533.377,105.87C540.707,105.87 546.649,105.935 546.649,106.015Z" fill="#086E86"/>
<path d="M508.306,34.328L503.813,34.328L503.813,41.927L508.306,41.927L508.306,34.328Z" fill="#1B5664"/>
<path d="M519.871,44.913C519.871,44.993 513.927,45.058 506.599,45.058C499.267,45.058 493.326,44.993 493.326,44.913C493.326,44.832 499.267,44.768 506.599,44.768C513.927,44.768 519.871,44.832 519.871,44.913Z" fill="#086E86"/>
<path d="M508.306,49.661L503.813,49.661L503.813,57.26L508.306,57.26L508.306,49.661Z" fill="#1B5664"/>
<path d="M519.871,60.245C519.871,60.325 513.927,60.39 506.599,60.39C499.267,60.39 493.326,60.325 493.326,60.245C493.326,60.164 499.267,60.1 506.599,60.1C513.927,60.1 519.871,60.164 519.871,60.245Z" fill="#086E86"/>
<path d="M508.306,64.972L503.813,64.972L503.813,72.57L508.306,72.57L508.306,64.972Z" fill="#1B5664"/>
<path d="M519.871,75.554C519.871,75.634 513.927,75.699 506.599,75.699C499.267,75.699 493.326,75.634 493.326,75.554C493.326,75.474 499.267,75.409 506.599,75.409C513.927,75.409 519.871,75.474 519.871,75.554Z" fill="#086E86"/>
<path d="M508.306,80.284L503.813,80.284L503.813,87.883L508.306,87.883L508.306,80.284Z" fill="#1B5664"/>
<path d="M519.871,90.868C519.871,90.948 513.927,91.013 506.599,91.013C499.267,91.013 493.326,90.948 493.326,90.868C493.326,90.788 499.267,90.723 506.599,90.723C513.927,90.723 519.871,90.788 519.871,90.868Z" fill="#086E86"/>
<path d="M508.306,95.601L503.813,95.601L503.813,103.199L508.306,103.199L508.306,95.601Z" fill="#1B5664"/>
<path d="M519.871,106.174C519.871,106.255 513.927,106.319 506.599,106.319C499.267,106.319 493.326,106.255 493.326,106.174C493.326,106.094 499.267,106.029 506.599,106.029C513.927,106.029 519.871,106.094 519.871,106.174Z" fill="#086E86"/>
<path d="M508.306,110.925L503.813,110.925L503.813,118.523L508.306,118.523L508.306,110.925Z" fill="#1B5664"/>
<path d="M722.417,16.467L681.977,16.467L681.977,119.239L722.417,119.239L722.417,16.467Z" fill="#63CAE1"/>
<path d="M722.409,16.467L702.189,16.467L702.189,118.955L722.409,118.955L722.409,16.467Z" fill="#4B4B4B"/>
<path d="M700.87,6.381L686.59,6.381L686.59,16.47L700.87,16.47L700.87,6.381Z" fill="#63CAE1"/>
<path d="M700.874,6.381L697.471,6.381L697.471,16.47L700.874,16.47L700.874,6.381Z" fill="#4B4B4B"/>
<path d="M678.605,16.47L678.605,15.881L723.599,15.881L723.599,16.47Z" fill="#086E86"/>
<path d="M693.378,20.874L689.955,20.874L689.955,26.662L693.378,26.662L693.378,20.874Z" fill="#1B5664"/>
<path d="M702.196,28.94C702.196,29.001 697.669,29.05 692.087,29.05C686.502,29.05 681.977,29 681.977,28.94C681.977,28.879 686.503,28.829 692.087,28.829C697.67,28.829 702.196,28.879 702.196,28.94Z" fill="#086E86"/>
<path d="M713.778,20.876L710.355,20.876L710.355,26.664L713.778,26.664L713.778,20.876Z" fill="#086E86"/>
<path d="M722.591,28.94C722.591,29.001 718.064,29.05 712.481,29.05C706.896,29.05 702.371,29 702.371,28.94C702.371,28.879 706.897,28.829 712.481,28.829C718.064,28.829 722.591,28.879 722.591,28.94Z" fill="#086E86"/>
<path d="M713.772,32.357L710.35,32.357L710.35,38.146L713.772,38.146L713.772,32.357Z" fill="#086E86"/>
<path d="M722.591,40.417C722.591,40.478 718.064,40.527 712.481,40.527C706.896,40.527 702.371,40.478 702.371,40.417C702.371,40.355 706.897,40.307 712.481,40.307C718.064,40.307 722.591,40.356 722.591,40.417Z" fill="#086E86"/>
<path d="M713.772,44.21L710.35,44.21L710.35,49.997L713.772,49.997L713.772,44.21Z" fill="#086E86"/>
<path d="M722.591,52.257C722.591,52.318 718.064,52.367 712.481,52.367C706.896,52.367 702.371,52.318 702.371,52.257C702.371,52.196 706.897,52.146 712.481,52.146C718.064,52.146 722.591,52.196 722.591,52.257Z" fill="#086E86"/>
<path d="M713.768,56.04L710.346,56.04L710.346,61.828L713.768,61.828L713.768,56.04Z" fill="#086E86"/>
<path d="M722.581,64.084C722.581,64.145 718.054,64.194 712.472,64.194C706.887,64.194 702.361,64.145 702.361,64.084C702.361,64.022 706.888,63.974 712.472,63.974C718.055,63.974 722.581,64.022 722.581,64.084Z" fill="#086E86"/>
<path d="M713.772,67.527L710.35,67.527L710.35,73.315L713.772,73.315L713.772,67.527Z" fill="#086E86"/>
<path d="M722.591,75.595C722.591,75.656 718.064,75.706 712.481,75.706C706.896,75.706 702.371,75.656 702.371,75.595C702.371,75.535 706.897,75.484 712.481,75.484C718.064,75.485 722.591,75.535 722.591,75.595Z" fill="#086E86"/>
<path d="M713.767,79.085L710.344,79.085L710.344,84.873L713.767,84.873L713.767,79.085Z" fill="#086E86"/>
<path d="M713.768,90.789L710.346,90.789L710.346,96.577L713.768,96.577L713.768,90.789Z" fill="#086E86"/>
<path d="M722.581,87.15C722.581,87.211 718.054,87.261 712.472,87.261C706.887,87.261 702.361,87.211 702.361,87.15C702.361,87.089 706.888,87.039 712.472,87.039C718.055,87.04 722.581,87.089 722.581,87.15Z" fill="#086E86"/>
<path d="M693.378,32.54L689.955,32.54L689.955,38.328L693.378,38.328L693.378,32.54Z" fill="#1B5664"/>
<path d="M702.196,40.585C702.196,40.646 697.669,40.695 692.087,40.695C686.502,40.695 681.977,40.646 681.977,40.585C681.977,40.523 686.503,40.475 692.087,40.475C697.67,40.474 702.196,40.523 702.196,40.585Z" fill="#086E86"/>
<path d="M693.378,44.209L689.955,44.209L689.955,49.997L693.378,49.997L693.378,44.209Z" fill="#1B5664"/>
<path d="M702.196,52.257C702.196,52.318 697.669,52.367 692.087,52.367C686.502,52.367 681.977,52.318 681.977,52.257C681.977,52.196 686.503,52.146 692.087,52.146C697.67,52.146 702.196,52.196 702.196,52.257Z" fill="#086E86"/>
<path d="M693.378,55.88L689.955,55.88L689.955,61.668L693.378,61.668L693.378,55.88Z" fill="#1B5664"/>
<path d="M702.196,63.927C702.196,63.989 697.669,64.038 692.087,64.038C686.502,64.038 681.977,63.989 681.977,63.927C681.977,63.866 686.503,63.817 692.087,63.817C697.67,63.817 702.196,63.867 702.196,63.927Z" fill="#086E86"/>
<path d="M693.378,67.527L689.955,67.527L689.955,73.315L693.378,73.315L693.378,67.527Z" fill="#1B5664"/>
<path d="M702.196,75.596C702.196,75.657 697.669,75.707 692.087,75.707C686.502,75.707 681.977,75.657 681.977,75.596C681.977,75.536 686.503,75.485 692.087,75.485C697.67,75.486 702.196,75.536 702.196,75.596Z" fill="#086E86"/>
<path d="M693.378,79.199L689.955,79.199L689.955,84.987L693.378,84.987L693.378,79.199Z" fill="#1B5664"/>
<path d="M702.196,87.265C702.196,87.327 697.669,87.376 692.087,87.376C686.502,87.376 681.977,87.327 681.977,87.265C681.977,87.205 686.503,87.155 692.087,87.155C697.67,87.155 702.196,87.205 702.196,87.265Z" fill="#086E86"/>
<path d="M693.384,90.869L689.961,90.869L689.961,96.657L693.384,96.657L693.384,90.869Z" fill="#1B5664"/>
<path d="M769.115,65.756L719.758,65.756L719.758,191.189L769.115,191.189L769.115,65.756Z" fill="#63CAE1"/>
<path d="M769.118,65.756L744.439,65.756L744.439,190.844L769.118,190.844L769.118,65.756Z" fill="#4B4B4B"/>
<path d="M742.822,53.449L725.393,53.449L725.393,65.764L742.822,65.764L742.822,53.449Z" fill="#63CAE1"/>
<path d="M742.821,53.449L738.668,53.449L738.668,65.764L742.821,65.764L742.821,53.449Z" fill="#4B4B4B"/>
<path d="M715.643,65.765L715.643,65.047L770.557,65.047L770.557,65.765Z" fill="#086E86"/>
<path d="M733.681,71.128L729.504,71.128L729.504,78.192L733.681,78.192L733.681,71.128Z" fill="#1B5664"/>
<path d="M744.436,80.964C744.436,81.038 738.911,81.099 732.097,81.099C725.281,81.099 719.758,81.038 719.758,80.964C719.758,80.89 725.282,80.829 732.097,80.829C738.911,80.829 744.436,80.89 744.436,80.964Z" fill="#086E86"/>
<path d="M758.569,71.127L754.391,71.127L754.391,78.191L758.569,78.191L758.569,71.127Z" fill="#086E86"/>
<path d="M769.333,80.96C769.333,81.034 763.808,81.095 756.994,81.095C750.177,81.095 744.654,81.034 744.654,80.96C744.654,80.886 750.178,80.825 756.994,80.825C763.808,80.825 769.333,80.886 769.333,80.96Z" fill="#086E86"/>
<path d="M758.569,85.156L754.391,85.156L754.391,92.221L758.569,92.221L758.569,85.156Z" fill="#086E86"/>
<path d="M769.333,94.992C769.333,95.067 763.808,95.127 756.994,95.127C750.177,95.127 744.654,95.067 744.654,94.992C744.654,94.918 750.178,94.857 756.994,94.857C763.808,94.857 769.333,94.917 769.333,94.992Z" fill="#086E86"/>
<path d="M758.569,99.61L754.391,99.61L754.391,106.675L758.569,106.675L758.569,99.61Z" fill="#086E86"/>
<path d="M769.323,109.44C769.323,109.515 763.798,109.575 756.984,109.575C750.168,109.575 744.645,109.515 744.645,109.44C744.645,109.366 750.169,109.306 756.984,109.306C763.798,109.306 769.323,109.366 769.323,109.44Z" fill="#086E86"/>
<path d="M758.569,114.063L754.391,114.063L754.391,121.127L758.569,121.127L758.569,114.063Z" fill="#086E86"/>
<path d="M769.323,123.896C769.323,123.97 763.798,124.03 756.984,124.03C750.168,124.03 744.645,123.97 744.645,123.896C744.645,123.821 750.169,123.761 756.984,123.761C763.798,123.761 769.323,123.821 769.323,123.896Z" fill="#086E86"/>
<path d="M758.569,128.098L754.391,128.098L754.391,135.162L758.569,135.162L758.569,128.098Z" fill="#086E86"/>
<path d="M769.323,137.932C769.323,138.006 763.798,138.067 756.984,138.067C750.168,138.067 744.645,138.006 744.645,137.932C744.645,137.857 750.169,137.797 756.984,137.797C763.798,137.797 769.323,137.857 769.323,137.932Z" fill="#086E86"/>
<path d="M758.573,142.196L754.395,142.196L754.395,149.261L758.573,149.261L758.573,142.196Z" fill="#086E86"/>
<path d="M758.573,156.464L754.395,156.464L754.395,163.528L758.573,163.528L758.573,156.464Z" fill="#086E86"/>
<path d="M769.323,152.034C769.323,152.109 763.798,152.169 756.984,152.169C750.168,152.169 744.645,152.109 744.645,152.034C744.645,151.96 750.169,151.899 756.984,151.899C763.798,151.899 769.323,151.96 769.323,152.034Z" fill="#086E86"/>
<path d="M733.681,85.378L729.504,85.378L729.504,92.442L733.681,92.442L733.681,85.378Z" fill="#1B5664"/>
<path d="M744.436,95.215C744.436,95.289 738.911,95.35 732.097,95.35C725.281,95.35 719.758,95.289 719.758,95.215C719.758,95.141 725.282,95.08 732.097,95.08C738.911,95.08 744.436,95.141 744.436,95.215Z" fill="#086E86"/>
<path d="M733.681,99.611L729.504,99.611L729.504,106.676L733.681,106.676L733.681,99.611Z" fill="#1B5664"/>
<path d="M744.436,109.447C744.436,109.522 738.911,109.582 732.097,109.582C725.281,109.582 719.758,109.522 719.758,109.447C719.758,109.373 725.282,109.313 732.097,109.313C738.911,109.313 744.436,109.373 744.436,109.447Z" fill="#086E86"/>
<path d="M733.681,113.842L729.504,113.842L729.504,120.906L733.681,120.906L733.681,113.842Z" fill="#1B5664"/>
<path d="M744.436,123.702C744.436,123.777 738.911,123.837 732.097,123.837C725.281,123.837 719.758,123.777 719.758,123.702C719.758,123.628 725.282,123.567 732.097,123.567C738.911,123.567 744.436,123.628 744.436,123.702Z" fill="#086E86"/>
<path d="M733.681,128.096L729.504,128.096L729.504,135.16L733.681,135.16L733.681,128.096Z" fill="#1B5664"/>
<path d="M744.436,137.928C744.436,138.002 738.911,138.063 732.097,138.063C725.281,138.063 719.758,138.002 719.758,137.928C719.758,137.853 725.282,137.793 732.097,137.793C738.911,137.793 744.436,137.853 744.436,137.928Z" fill="#086E86"/>
<path d="M733.681,142.329L729.504,142.329L729.504,149.393L733.681,149.393L733.681,142.329Z" fill="#1B5664"/>
<path d="M744.436,152.161C744.436,152.236 738.911,152.296 732.097,152.296C725.281,152.296 719.758,152.236 719.758,152.161C719.758,152.087 725.282,152.026 732.097,152.026C738.911,152.026 744.436,152.087 744.436,152.161Z" fill="#086E86"/>
<path d="M733.687,156.576L729.51,156.576L729.51,163.64L733.687,163.64L733.687,156.576Z" fill="#1B5664"/>
<path d="M720.956,101.58L636.232,101.58L636.232,191.188L720.956,191.188L720.956,101.58Z" fill="#4B4B4B"/>
<path d="M720.959,101.58L681.234,101.58L681.234,191.188L720.959,191.188L720.959,101.58Z" fill="#086E86"/>
<path d="M661.618,113.711L654,113.711L654,128.552L661.618,128.552L661.618,113.711Z" fill="#63CAE1"/>
<path d="M661.618,171.8L654,171.8L654,186.641L661.618,186.641L661.618,171.8Z" fill="#63CAE1"/>
<path d="M681.236,134.387C681.236,134.554 671.162,134.688 658.738,134.688C646.309,134.688 636.238,134.553 636.238,134.387C636.238,134.22 646.31,134.085 658.738,134.085C671.162,134.085 681.236,134.22 681.236,134.387Z" fill="#63CAE1"/>
<path d="M661.622,142.977L654.004,142.977L654.004,157.818L661.622,157.818L661.622,142.977Z" fill="#63CAE1"/>
<path d="M681.23,163.637C681.23,163.804 671.156,163.938 658.732,163.938C646.304,163.938 636.232,163.803 636.232,163.637C636.232,163.471 646.304,163.335 658.732,163.335C671.156,163.335 681.23,163.47 681.23,163.637Z" fill="#63CAE1"/>
<path d="M697.291,113.711L689.674,113.711L689.674,128.552L697.291,128.552L697.291,113.711Z" fill="#63CAE1"/>
<path d="M713.817,113.711L706.199,113.711L706.199,128.552L713.817,128.552L713.817,113.711Z" fill="#63CAE1"/>
<path d="M697.291,141.882L689.674,141.882L689.674,156.722L697.291,156.722L697.291,141.882Z" fill="#63CAE1"/>
<path d="M713.817,141.882L706.199,141.882L706.199,156.722L713.817,156.722L713.817,141.882Z" fill="#63CAE1"/>
<path d="M697.291,170.036L689.674,170.036L689.674,184.877L697.291,184.877L697.291,170.036Z" fill="#63CAE1"/>
<path d="M713.817,170.036L706.199,170.036L706.199,184.877L713.817,184.877L713.817,170.036Z" fill="#63CAE1"/>
<path d="M727.324,98.455L629.863,98.455L629.863,101.686L727.324,101.686L727.324,98.455Z" fill="#086E86"/>
<path d="M721.547,101.996C721.547,102.163 702.611,102.299 679.257,102.299C655.895,102.299 636.963,102.163 636.963,101.996C636.963,101.829 655.895,101.694 679.257,101.694C702.61,101.694 721.547,101.83 721.547,101.996Z" fill="#4B4B4B"/>
<path d="M446.062,56.518L392.973,56.518L392.973,191.436L446.062,191.436L446.062,56.518Z" fill="#63CAE1"/>
<path d="M446.06,56.518L419.516,56.518L419.516,191.065L446.06,191.065L446.06,56.518Z" fill="#4B4B4B"/>
<path d="M417.775,43.284L399.027,43.284L399.027,56.529L417.775,56.529L417.775,43.284Z" fill="#63CAE1"/>
<path d="M417.777,43.284L413.309,43.284L413.309,56.529L417.777,56.529L417.777,43.284Z" fill="#4B4B4B"/>
<path d="M388.547,56.521L388.547,55.748L447.615,55.748L447.615,56.521Z" fill="#086E86"/>
<path d="M407.943,62.302L403.449,62.302L403.449,69.9L407.943,69.9L407.943,62.302Z" fill="#1B5664"/>
<path d="M419.514,72.891C419.514,72.971 413.571,73.036 406.242,73.036C398.91,73.036 392.969,72.971 392.969,72.891C392.969,72.811 398.91,72.746 406.242,72.746C413.571,72.746 419.514,72.811 419.514,72.891Z" fill="#086E86"/>
<path d="M434.72,62.304L430.227,62.304L430.227,69.902L434.72,69.902L434.72,62.304Z" fill="#086E86"/>
<path d="M446.29,72.887C446.29,72.967 440.347,73.032 433.019,73.032C425.687,73.032 419.746,72.967 419.746,72.887C419.746,72.807 425.687,72.742 433.019,72.742C440.348,72.742 446.29,72.807 446.29,72.887Z" fill="#086E86"/>
<path d="M434.72,77.386L430.227,77.386L430.227,84.984L434.72,84.984L434.72,77.386Z" fill="#086E86"/>
<path d="M446.29,87.964C446.29,88.045 440.347,88.109 433.019,88.109C425.687,88.109 419.746,88.045 419.746,87.964C419.746,87.884 425.687,87.819 433.019,87.819C440.348,87.819 446.29,87.885 446.29,87.964Z" fill="#086E86"/>
<path d="M434.72,92.925L430.227,92.925L430.227,100.523L434.72,100.523L434.72,92.925Z" fill="#086E86"/>
<path d="M446.29,103.503C446.29,103.584 440.347,103.648 433.019,103.648C425.687,103.648 419.746,103.584 419.746,103.503C419.746,103.423 425.687,103.358 433.019,103.358C440.348,103.358 446.29,103.423 446.29,103.503Z" fill="#086E86"/>
<path d="M434.72,108.463L430.227,108.463L430.227,116.061L434.72,116.061L434.72,108.463Z" fill="#086E86"/>
<path d="M446.29,119.042C446.29,119.123 440.347,119.188 433.019,119.188C425.687,119.188 419.746,119.123 419.746,119.042C419.746,118.962 425.687,118.897 433.019,118.897C440.348,118.897 446.29,118.962 446.29,119.042Z" fill="#086E86"/>
<path d="M434.72,123.567L430.227,123.567L430.227,131.165L434.72,131.165L434.72,123.567Z" fill="#086E86"/>
<path d="M446.29,134.148C446.29,134.228 440.347,134.293 433.019,134.293C425.687,134.293 419.746,134.228 419.746,134.148C419.746,134.068 425.687,134.003 433.019,134.003C440.348,134.004 446.29,134.069 446.29,134.148Z" fill="#086E86"/>
<path d="M434.72,138.725L430.227,138.725L430.227,146.322L434.72,146.322L434.72,138.725Z" fill="#086E86"/>
<path d="M434.72,154.072L430.227,154.072L430.227,161.671L434.72,161.671L434.72,154.072Z" fill="#086E86"/>
<path d="M446.29,149.302C446.29,149.382 440.347,149.447 433.019,149.447C425.687,149.447 419.746,149.382 419.746,149.302C419.746,149.222 425.687,149.157 433.019,149.157C440.348,149.157 446.29,149.222 446.29,149.302Z" fill="#086E86"/>
<path d="M407.943,77.619L403.449,77.619L403.449,85.218L407.943,85.218L407.943,77.619Z" fill="#1B5664"/>
<path d="M419.518,88.199C419.518,88.279 413.575,88.344 406.246,88.344C398.914,88.344 392.973,88.279 392.973,88.199C392.973,88.119 398.914,88.054 406.246,88.054C413.575,88.054 419.518,88.119 419.518,88.199Z" fill="#086E86"/>
<path d="M407.943,92.927L403.449,92.927L403.449,100.525L407.943,100.525L407.943,92.927Z" fill="#1B5664"/>
<path d="M419.514,103.507C419.514,103.587 413.571,103.652 406.242,103.652C398.91,103.652 392.969,103.587 392.969,103.507C392.969,103.427 398.91,103.362 406.242,103.362C413.571,103.362 419.514,103.427 419.514,103.507Z" fill="#086E86"/>
<path d="M407.943,108.24L403.449,108.24L403.449,115.839L407.943,115.839L407.943,108.24Z" fill="#1B5664"/>
<path d="M419.518,118.842C419.518,118.922 413.575,118.987 406.246,118.987C398.914,118.987 392.973,118.922 392.973,118.842C392.973,118.762 398.914,118.697 406.246,118.697C413.575,118.697 419.518,118.763 419.518,118.842Z" fill="#086E86"/>
<path d="M407.943,123.563L403.449,123.563L403.449,131.161L407.943,131.161L407.943,123.563Z" fill="#1B5664"/>
<path d="M419.514,134.147C419.514,134.227 413.571,134.292 406.242,134.292C398.91,134.292 392.969,134.227 392.969,134.147C392.969,134.067 398.91,134.002 406.242,134.002C413.571,134.003 419.514,134.068 419.514,134.147Z" fill="#086E86"/>
<path d="M407.943,138.882L403.449,138.882L403.449,146.48L407.943,146.48L407.943,138.882Z" fill="#1B5664"/>
<path d="M419.518,149.462C419.518,149.543 413.575,149.607 406.246,149.607C398.914,149.607 392.973,149.543 392.973,149.462C392.973,149.382 398.914,149.317 406.246,149.317C413.575,149.318 419.518,149.383 419.518,149.462Z" fill="#086E86"/>
<path d="M407.943,154.19L403.449,154.19L403.449,161.789L407.943,161.789L407.943,154.19Z" fill="#1B5664"/>
<path d="M533.127,190.887L455.004,190.887L454.664,91.881L532.786,91.881L533.127,190.887Z" fill="#4B4B4B"/>
<path d="M532.794,91.881L493.732,91.881L493.732,190.887L532.794,190.887L532.794,91.881Z" fill="#292929"/>
<path d="M491.171,72.393L463.584,72.393L463.584,91.884L491.171,91.884L491.171,72.393Z" fill="#4B4B4B"/>
<path d="M491.172,72.393L484.598,72.393L484.598,91.884L491.172,91.884L491.172,72.393Z" fill="#086E86"/>
<path d="M535.076,90.752L448.156,90.752L448.156,91.889L535.076,91.889L535.076,90.752Z" fill="#086E86"/>
<path d="M476.701,100.385L470.088,100.385L470.088,111.566L476.701,111.566L476.701,100.385Z" fill="#63CAE1"/>
<path d="M493.721,115.946C493.721,116.064 484.976,116.159 474.192,116.159C463.403,116.159 454.66,116.064 454.66,115.946C454.66,115.828 463.403,115.732 474.192,115.732C484.976,115.732 493.721,115.828 493.721,115.946Z" fill="#086E86"/>
<path d="M516.101,100.384L509.488,100.384L509.488,111.565L516.101,111.565L516.101,100.384Z" fill="#63CAE1"/>
<path d="M533.128,115.97C533.128,116.088 524.383,116.184 513.598,116.184C502.81,116.184 494.066,116.088 494.066,115.97C494.066,115.852 502.81,115.757 513.598,115.757C524.383,115.757 533.128,115.852 533.128,115.97Z" fill="#4B4B4B"/>
<path d="M516.101,122.599L509.488,122.599L509.488,133.78L516.101,133.78L516.101,122.599Z" fill="#63CAE1"/>
<path d="M533.128,138.165C533.128,138.283 524.383,138.378 513.598,138.378C502.81,138.378 494.066,138.283 494.066,138.165C494.066,138.047 502.81,137.951 513.598,137.951C524.383,137.951 533.128,138.047 533.128,138.165Z" fill="#4B4B4B"/>
<path d="M516.103,145.451L509.49,145.451L509.49,156.632L516.103,156.632L516.103,145.451Z" fill="#63CAE1"/>
<path d="M533.137,161.014C533.137,161.132 524.392,161.228 513.608,161.228C502.819,161.228 494.076,161.132 494.076,161.014C494.076,160.896 502.819,160.801 513.608,160.801C524.392,160.802 533.137,160.897 533.137,161.014Z" fill="#4B4B4B"/>
<path d="M516.101,168.326L509.488,168.326L509.488,179.507L516.101,179.507L516.101,168.326Z" fill="#63CAE1"/>
<path d="M533.128,183.889C533.128,184.007 524.383,184.103 513.598,184.103C502.81,184.103 494.066,184.007 494.066,183.889C494.066,183.771 502.81,183.676 513.598,183.676C524.383,183.676 533.128,183.771 533.128,183.889Z" fill="#4B4B4B"/>
<path d="M476.701,122.921L470.088,122.921L470.088,134.102L476.701,134.102L476.701,122.921Z" fill="#63CAE1"/>
<path d="M493.721,138.507C493.721,138.625 484.976,138.72 474.192,138.72C463.403,138.72 454.66,138.625 454.66,138.507C454.66,138.388 463.403,138.293 474.192,138.293C484.976,138.293 493.721,138.388 493.721,138.507Z" fill="#086E86"/>
<path d="M476.701,145.457L470.088,145.457L470.088,156.638L476.701,156.638L476.701,145.457Z" fill="#63CAE1"/>
<path d="M493.721,161.015C493.721,161.133 484.976,161.229 474.192,161.229C463.403,161.229 454.66,161.133 454.66,161.015C454.66,160.897 463.403,160.802 474.192,160.802C484.976,160.802 493.721,160.898 493.721,161.015Z" fill="#086E86"/>
<path d="M476.701,167.993L470.088,167.993L470.088,179.174L476.701,179.174L476.701,167.993Z" fill="#63CAE1"/>
<path d="M493.721,183.573C493.721,183.691 484.976,183.786 474.192,183.786C463.403,183.786 454.66,183.691 454.66,183.573C454.66,183.455 463.403,183.359 474.192,183.359C484.976,183.36 493.721,183.456 493.721,183.573Z" fill="#086E86"/>
<path d="M653.753,177.461L588.296,177.461L588.012,49.203L653.468,49.203L653.753,177.461Z" fill="#4B4B4B"/>
<path d="M653.466,49.203L620.738,49.203L620.738,177.461L653.466,177.461L653.466,49.203Z" fill="#086E86"/>
<path d="M618.595,32.937L595.48,32.937L595.48,49.203L618.595,49.203L618.595,32.937Z" fill="#4B4B4B"/>
<path d="M618.595,32.937L613.086,32.937L613.086,49.203L618.595,49.203L618.595,32.937Z" fill="#086E86"/>
<path d="M655.381,48.263L586.055,48.263L586.055,49.212L655.381,49.212L655.381,48.263Z" fill="#086E86"/>
<path d="M606.468,56.304L600.928,56.304L600.928,65.635L606.468,65.635L606.468,56.304Z" fill="#63CAE1"/>
<path d="M620.736,69.286C620.736,69.385 613.409,69.464 604.373,69.464C595.333,69.464 588.008,69.385 588.008,69.286C588.008,69.188 595.333,69.108 604.373,69.108C613.409,69.108 620.736,69.188 620.736,69.286Z" fill="#086E86"/>
<path d="M639.486,56.308L633.945,56.308L633.945,65.639L639.486,65.639L639.486,56.308Z" fill="#63CAE1"/>
<path d="M653.754,69.288C653.754,69.387 646.426,69.466 637.39,69.466C628.351,69.466 621.025,69.387 621.025,69.288C621.025,69.19 628.351,69.11 637.39,69.11C646.426,69.11 653.754,69.19 653.754,69.288Z" fill="#4B4B4B"/>
<path d="M639.486,74.828L633.945,74.828L633.945,84.16L639.486,84.16L639.486,74.828Z" fill="#63CAE1"/>
<path d="M653.754,87.832C653.754,87.931 646.426,88.011 637.39,88.011C628.351,88.011 621.025,87.931 621.025,87.832C621.025,87.734 628.351,87.654 637.39,87.654C646.426,87.654 653.754,87.734 653.754,87.832Z" fill="#4B4B4B"/>
<path d="M639.486,93.918L633.945,93.918L633.945,103.25L639.486,103.25L639.486,93.918Z" fill="#63CAE1"/>
<path d="M653.754,106.926C653.754,107.024 646.426,107.103 637.39,107.103C628.351,107.103 621.025,107.023 621.025,106.926C621.025,106.828 628.351,106.747 637.39,106.747C646.426,106.747 653.754,106.827 653.754,106.926Z" fill="#4B4B4B"/>
<path d="M639.486,112.984L633.945,112.984L633.945,122.316L639.486,122.316L639.486,112.984Z" fill="#63CAE1"/>
<path d="M653.754,125.983C653.754,126.081 646.426,126.16 637.39,126.16C628.351,126.16 621.025,126.081 621.025,125.983C621.025,125.884 628.351,125.805 637.39,125.805C646.426,125.804 653.754,125.884 653.754,125.983Z" fill="#4B4B4B"/>
<path d="M606.468,75.104L600.928,75.104L600.928,84.435L606.468,84.435L606.468,75.104Z" fill="#63CAE1"/>
<path d="M620.736,88.104C620.736,88.202 613.409,88.282 604.373,88.282C595.333,88.282 588.008,88.202 588.008,88.104C588.008,88.005 595.333,87.926 604.373,87.926C613.409,87.926 620.736,88.005 620.736,88.104Z" fill="#086E86"/>
<path d="M606.468,93.917L600.928,93.917L600.928,103.249L606.468,103.249L606.468,93.917Z" fill="#63CAE1"/>
<path d="M620.736,106.9C620.736,106.998 613.409,107.077 604.373,107.077C595.333,107.077 588.008,106.997 588.008,106.9C588.008,106.801 595.333,106.722 604.373,106.722C613.409,106.721 620.736,106.8 620.736,106.9Z" fill="#086E86"/>
<path d="M606.468,112.718L600.928,112.718L600.928,122.049L606.468,122.049L606.468,112.718Z" fill="#63CAE1"/>
<path d="M620.736,125.721C620.736,125.819 613.409,125.899 604.373,125.899C595.333,125.899 588.008,125.82 588.008,125.721C588.008,125.622 595.333,125.543 604.373,125.543C613.409,125.543 620.736,125.622 620.736,125.721Z" fill="#086E86"/>
<path d="M637.138,190.152L541.379,190.152L540.963,69.273L636.721,69.273L637.138,190.152Z" fill="#4B4B4B"/>
<path d="M636.735,69.273L588.855,69.273L588.855,190.152L636.735,190.152L636.735,69.273Z" fill="#292929"/>
<path d="M585.703,45.49L551.889,45.49L551.889,69.288L585.703,69.288L585.703,45.49Z" fill="#4B4B4B"/>
<path d="M585.703,45.49L577.645,45.49L577.645,69.288L585.703,69.288L585.703,45.49Z" fill="#086E86"/>
<path d="M639.522,67.884L532.98,67.884L532.98,69.272L639.522,69.272L639.522,67.884Z" fill="#086E86"/>
<path d="M567.982,79.664L559.877,79.664L559.877,93.316L567.982,93.316L567.982,79.664Z" fill="#63CAE1"/>
<path d="M588.842,98.67C588.842,98.814 578.123,98.93 564.904,98.93C551.68,98.93 540.963,98.814 540.963,98.67C540.963,98.526 551.68,98.41 564.904,98.41C578.123,98.41 588.842,98.526 588.842,98.67Z" fill="#086E86"/>
<path d="M616.275,79.664L608.17,79.664L608.17,93.316L616.275,93.316L616.275,79.664Z" fill="#63CAE1"/>
<path d="M637.151,98.666C637.151,98.81 626.431,98.927 613.212,98.927C599.988,98.927 589.271,98.81 589.271,98.666C589.271,98.522 599.988,98.406 613.212,98.406C626.431,98.406 637.151,98.522 637.151,98.666Z" fill="#4B4B4B"/>
<path d="M616.269,106.761L608.164,106.761L608.164,120.412L616.269,120.412L616.269,106.761Z" fill="#63CAE1"/>
<path d="M637.135,125.771C637.135,125.915 626.416,126.032 613.197,126.032C599.973,126.032 589.256,125.916 589.256,125.771C589.256,125.627 599.973,125.511 613.197,125.511C626.416,125.511 637.135,125.628 637.135,125.771Z" fill="#4B4B4B"/>
<path d="M616.275,134.673L608.17,134.673L608.17,148.324L616.275,148.324L616.275,134.673Z" fill="#63CAE1"/>
<path d="M637.151,153.703C637.151,153.846 626.431,153.964 613.212,153.964C599.988,153.964 589.271,153.846 589.271,153.703C589.271,153.559 599.988,153.442 613.212,153.442C626.431,153.441 637.151,153.559 637.151,153.703Z" fill="#4B4B4B"/>
<path d="M616.275,162.607L608.17,162.607L608.17,176.259L616.275,176.259L616.275,162.607Z" fill="#63CAE1"/>
<path d="M637.151,181.621C637.151,181.765 626.431,181.883 613.212,181.883C599.988,181.883 589.271,181.765 589.271,181.621C589.271,181.478 599.988,181.361 613.212,181.361C626.431,181.361 637.151,181.478 637.151,181.621Z" fill="#4B4B4B"/>
<path d="M567.982,107.182L559.877,107.182L559.877,120.833L567.982,120.833L567.982,107.182Z" fill="#63CAE1"/>
<path d="M588.842,126.192C588.842,126.336 578.123,126.453 564.904,126.453C551.68,126.453 540.963,126.336 540.963,126.192C540.963,126.048 551.68,125.932 564.904,125.932C578.123,125.932 588.842,126.048 588.842,126.192Z" fill="#086E86"/>
<path d="M567.982,134.703L559.877,134.703L559.877,148.355L567.982,148.355L567.982,134.703Z" fill="#63CAE1"/>
<path d="M588.842,153.704C588.842,153.847 578.123,153.964 564.904,153.964C551.68,153.964 540.963,153.847 540.963,153.704C540.963,153.56 551.68,153.443 564.904,153.443C578.123,153.442 588.842,153.56 588.842,153.704Z" fill="#086E86"/>
<path d="M567.982,162.215L559.877,162.215L559.877,175.866L567.982,175.866L567.982,162.215Z" fill="#63CAE1"/>
<path d="M588.842,181.232C588.842,181.376 578.123,181.493 564.904,181.493C551.68,181.493 540.963,181.377 540.963,181.232C540.963,181.088 551.68,180.972 564.904,180.972C578.123,180.972 588.842,181.088 588.842,181.232Z" fill="#086E86"/>
<path d="M616.702,16.732C617.14,13.944 612.645,11.65 609.269,11.412C607.658,11.299 605.986,11.514 604.46,11.049C601.155,10.04 599.834,6.301 596.608,5.11C594.197,4.219 591.421,5.012 589.083,6.042C586.745,7.072 584.435,8.368 581.824,8.515C579.552,8.642 577.085,7.904 575.097,8.876C573.616,9.6 572.841,11.095 571.476,11.976C570.139,12.838 568.398,13.021 566.741,13.1C565.084,13.178 563.368,13.193 561.86,13.798C560.351,14.403 559.102,15.8 559.416,17.226L616.702,16.732Z" fill="#63CAE1"/>
<path d="M768.987,16.083C769.303,14.071 766.061,12.415 763.624,12.243C762.461,12.162 761.255,12.317 760.154,11.981C757.768,11.253 756.816,8.555 754.488,7.696C752.748,7.053 750.744,7.625 749.058,8.368C747.371,9.112 745.704,10.048 743.819,10.153C742.179,10.245 740.4,9.713 738.965,10.414C737.896,10.937 737.336,12.015 736.351,12.651C735.387,13.273 734.13,13.405 732.934,13.462C731.738,13.519 730.5,13.53 729.412,13.966C728.323,14.403 727.422,15.411 727.648,16.441L768.987,16.083Z" fill="#63CAE1"/>
<path d="M431.835,30.586C432.151,28.573 428.908,26.918 426.471,26.746C425.308,26.664 424.101,26.82 423.001,26.484C420.615,25.756 419.662,23.058 417.335,22.199C415.594,21.556 413.591,22.128 411.904,22.871C410.217,23.615 408.551,24.55 406.666,24.655C405.026,24.747 403.246,24.215 401.812,24.916C400.743,25.439 400.184,26.517 399.198,27.153C398.235,27.775 396.977,27.907 395.782,27.964C394.586,28.021 393.348,28.032 392.259,28.469C391.17,28.905 390.27,29.913 390.496,30.943L431.835,30.586Z" fill="#63CAE1"/>
<path d="M388.818,197.536L437.507,197.358L486.195,197.294L583.572,197.172L680.95,197.293L729.638,197.357L778.326,197.536L729.638,197.713L680.95,197.778L583.572,197.899L486.195,197.777L437.507,197.713L388.818,197.536Z" fill="#63CAE1"/>
<path d="M778.326,189.826L388.818,189.826L388.818,197.534L778.326,197.534L778.326,189.826Z" fill="#50A6BA"/>
<path d="M408.856,189.825C409.09,191.11 409.143,192.394 409.153,193.679C409.144,194.964 409.092,196.248 408.856,197.533C408.62,196.248 408.568,194.964 408.559,193.679C408.569,192.394 408.621,191.11 408.856,189.825Z" fill="#63CAE1"/>
<path d="M432.153,189.825C432.387,191.11 432.44,192.394 432.45,193.679C432.441,194.964 432.389,196.248 432.153,197.533C431.917,196.248 431.864,194.964 431.855,193.679C431.866,192.394 431.918,191.11 432.153,189.825Z" fill="#63CAE1"/>
<path d="M455.444,189.825C455.678,191.11 455.731,192.394 455.741,193.679C455.732,194.964 455.68,196.248 455.444,197.533C455.208,196.248 455.155,194.964 455.146,193.679C455.157,192.394 455.21,191.11 455.444,189.825Z" fill="#63CAE1"/>
<path d="M478.741,189.825C478.975,191.11 479.028,192.394 479.038,193.679C479.029,194.964 478.977,196.248 478.741,197.533C478.505,196.248 478.452,194.964 478.443,193.679C478.453,192.394 478.506,191.11 478.741,189.825Z" fill="#63CAE1"/>
<path d="M502.038,189.825C502.272,191.11 502.325,192.394 502.335,193.679C502.326,194.964 502.274,196.248 502.038,197.533C501.801,196.248 501.749,194.964 501.74,193.679C501.75,192.394 501.803,191.11 502.038,189.825Z" fill="#63CAE1"/>
<path d="M525.334,189.825C525.569,191.11 525.622,192.394 525.632,193.679C525.623,194.964 525.571,196.248 525.334,197.533C525.099,196.248 525.046,194.964 525.037,193.679C525.048,192.394 525.1,191.11 525.334,189.825Z" fill="#63CAE1"/>
<path d="M548.625,189.825C548.86,191.11 548.913,192.394 548.923,193.679C548.914,194.964 548.862,196.248 548.625,197.533C548.389,196.248 548.337,194.964 548.328,193.679C548.338,192.394 548.391,191.11 548.625,189.825Z" fill="#63CAE1"/>
<path d="M571.922,189.825C572.157,191.11 572.21,192.394 572.22,193.679C572.211,194.964 572.158,196.248 571.922,197.533C571.687,196.248 571.634,194.964 571.625,193.679C571.635,192.394 571.688,191.11 571.922,189.825Z" fill="#63CAE1"/>
<path d="M595.213,189.825C595.448,191.11 595.501,192.394 595.511,193.679C595.502,194.964 595.449,196.248 595.213,197.533C594.977,196.248 594.925,194.964 594.916,193.679C594.926,192.394 594.979,191.11 595.213,189.825Z" fill="#63CAE1"/>
<path d="M618.514,189.825C618.748,191.11 618.801,192.394 618.811,193.679C618.803,194.964 618.75,196.248 618.514,197.533C618.278,196.248 618.226,194.964 618.217,193.679C618.227,192.394 618.28,191.11 618.514,189.825Z" fill="#63CAE1"/>
<path d="M641.807,189.825C642.041,191.11 642.094,192.394 642.104,193.679C642.096,194.964 642.043,196.248 641.807,197.533C641.572,196.248 641.519,194.964 641.51,193.679C641.52,192.394 641.573,191.11 641.807,189.825Z" fill="#63CAE1"/>
<path d="M665.104,189.825C665.338,191.11 665.391,192.394 665.401,193.679C665.392,194.964 665.34,196.248 665.104,197.533C664.869,196.248 664.816,194.964 664.807,193.679C664.817,192.394 664.869,191.11 665.104,189.825Z" fill="#63CAE1"/>
<path d="M688.395,189.825C688.629,191.11 688.682,192.394 688.692,193.679C688.683,194.964 688.631,196.248 688.395,197.533C688.159,196.248 688.107,194.964 688.098,193.679C688.108,192.394 688.161,191.11 688.395,189.825Z" fill="#63CAE1"/>
<path d="M711.696,189.825C711.93,191.11 711.983,192.394 711.993,193.679C711.984,194.964 711.932,196.248 711.696,197.533C711.46,196.248 711.407,194.964 711.398,193.679C711.409,192.394 711.461,191.11 711.696,189.825Z" fill="#63CAE1"/>
<path d="M734.983,189.825C735.217,191.11 735.27,192.394 735.28,193.679C735.271,194.964 735.219,196.248 734.983,197.533C734.747,196.248 734.694,194.964 734.686,193.679C734.696,192.394 734.749,191.11 734.983,189.825Z" fill="#63CAE1"/>
<path d="M758.284,189.825C758.518,191.11 758.571,192.394 758.581,193.679C758.572,194.964 758.52,196.248 758.284,197.533C758.048,196.248 757.995,194.964 757.986,193.679C757.996,192.394 758.049,191.11 758.284,189.825Z" fill="#63CAE1"/>
</g>
</svg>
