<svg width="786" height="208" viewBox="0 0 786 208" fill="none" xmlns="http://www.w3.org/2000/svg" xmlns:xlink="http://www.w3.org/1999/xlink">
<path d="M328.694,6.435C327.59,2.754 324.342,0 320.498,0L48,0C21.49,0 0,21.49 0,48L0,200C0,204.418 3.582,208 8,208L778,208C782.418,208 786,204.418 786,200L786,48C786,21.49 764.51,0 738,0L459.502,0C455.658,0 452.41,2.754 451.306,6.435C443.39,32.795 418.938,52 390,52C361.062,52 336.61,32.795 328.694,6.435Z" clip-rule="evenodd" fill-rule="evenodd" fill="#FFFFFF"/>
<path d="M74,0L114,0C107.143,2.326 102.824,4.393 99.218,7.715C96.235,10.462 91.471,10.69 88.381,8.063C84.87,5.079 80.692,2.808 74,0Z" fill="#FD683D"/>
</svg>
