<svg width="32" height="32" viewBox="0 0 32 32" fill="none" xmlns="http://www.w3.org/2000/svg" xmlns:xlink="http://www.w3.org/1999/xlink">
<path d="M1.153,14.874C0.532,14.874 0.028,15.378 0.028,15.999C0.028,16.621 0.532,17.124 1.153,17.124L1.153,14.874ZM30.849,17.124C31.471,17.124 31.974,16.621 31.974,15.999C31.974,15.378 31.471,14.874 30.849,14.874L30.849,17.124ZM1.153,17.124L30.849,17.124L30.849,14.874L1.153,14.874L1.153,17.124Z" transform="rotate(90 16.001 15.999)" fill="#A7A9B7"/>
<path d="M14.874,30.847C14.874,31.469 15.377,31.972 15.999,31.972C16.62,31.972 17.124,31.469 17.124,30.847L14.874,30.847ZM17.124,1.151C17.124,0.53 16.62,0.026 15.999,0.026C15.377,0.026 14.874,0.53 14.874,1.151L17.124,1.151ZM17.124,30.847L17.124,1.151L14.874,1.151L14.874,30.847L17.124,30.847Z" transform="rotate(90 15.999 15.999)" fill="#A7A9B7"/>
</svg>
