<svg width="52" height="52" viewBox="0 0 52 52" fill="none" xmlns="http://www.w3.org/2000/svg" xmlns:xlink="http://www.w3.org/1999/xlink">
<path d="M26.001,0.102C15.995,0.102 9.832,5.745 9.815,5.755C9.815,5.755 9.559,6.075 9.511,6.287C9.122,8.015 8.758,10.331 8.758,12.021C8.758,26.381 20.867,38.018 35.226,38.018C40.756,38.018 46.908,35.368 51.025,32.182C51.117,32.111 51.409,31.632 51.409,31.632C51.428,31.521 52.001,29.238 52.001,26.101C52.001,11.742 40.36,0.102 26.001,0.102Z" fill="#FEF056"/>
<path d="M35.223,37.285C20.864,37.285 9.223,25.644 9.223,11.285C9.223,9.387 9.428,7.537 9.814,5.755C3.835,10.518 0,17.862 0,26.102C0,32.316 2.18,38.021 5.818,42.494L46.182,42.495C48.702,39.398 50.527,35.701 51.409,31.632C46.967,35.169 41.343,37.285 35.223,37.285Z" fill="#FBDE4C"/>
<path d="M43.666,0L19.696,0L17.6,41.661L19.696,51.332C20.99,51.654 22.321,51.88 23.682,52L28.313,52C32.123,51.663 35.711,50.501 38.886,48.686L39.219,48.041L40.221,47.869C42.473,46.396 44.485,44.582 46.183,42.495L46.183,2.517C46.183,1.127 45.056,0 43.666,0Z" fill="#26A4C0"/>
<path d="M8.335,0C6.945,0 5.818,1.127 5.818,2.517L5.818,42.495C7.184,44.174 8.756,45.68 10.494,46.974L19.696,43.21L19.696,40.286L18.408,32.427L19.696,31.084L19.696,28.16L18.789,20.281L19.696,18.958L19.696,0L8.335,0Z" fill="#2490A9"/>
<path d="M25.292,14.296C23.587,14.239 22.195,13.358 22.195,12.449C22.195,11.966 22.622,11.256 23.161,11.256C23.758,11.256 24.241,12.094 25.292,12.279L25.292,9.977C23.985,9.48 22.451,8.869 22.451,7.051C22.451,5.247 23.786,4.38 25.292,4.167L25.292,3.769C25.292,3.57 25.52,3.386 25.832,3.386C26.102,3.386 26.372,3.57 26.372,3.769L26.372,4.124C27.253,4.153 28.915,4.38 28.915,5.36C28.915,5.744 28.659,6.525 28.034,6.525C27.565,6.525 27.295,6.071 26.372,6L26.372,8.074C27.665,8.557 29.17,9.225 29.17,11.142C29.17,12.904 28.034,13.969 26.372,14.239L26.372,14.651C26.372,14.85 26.102,15.035 25.832,15.035C25.519,15.035 25.292,14.85 25.292,14.651L25.292,14.296ZM25.434,7.733L25.434,6.042C24.795,6.17 24.525,6.497 24.525,6.838C24.525,7.25 24.894,7.506 25.434,7.733ZM26.23,10.361L26.23,12.265C26.713,12.151 27.096,11.881 27.096,11.37C27.096,10.901 26.741,10.602 26.23,10.361Z" fill="#FBDE4C"/>
<rect  x="31.717" y="7.844" width="5.644" height="2.243" fill="#FBDE4C"/>
<rect  x="14.045" y="7.844" width="5.644" height="2.243" fill="#FFC344"/>
<rect  x="10.494" y="18.958" width="9.202" height="9.202" fill="#FFFFFF"/>
<rect  x="23.293" y="22.692" width="16.674" height="1.733" fill="#FFFFFF"/>
<rect  x="10.494" y="31.084" width="9.202" height="9.202" fill="#FFFFFF"/>
<rect  x="23.42" y="34.818" width="16.674" height="1.733" fill="#FFFFFF"/>
<path d="M10.494,46.974C13.204,48.991 16.319,50.492 19.696,51.333L19.696,43.21L10.494,43.21L10.494,46.974Z" fill="#FFFFFF"/>
<path d="M40.221,47.869L40.221,46.944L23.547,46.944L23.547,48.678L38.901,48.678C39.35,48.421 39.79,48.151 40.221,47.869Z" fill="#FFFFFF"/>
<path d="M17.119,27.364L12.453,22.698L14.616,20.535L17.119,23.038L21.574,18.583L23.737,20.746L17.119,27.364Z" fill="#46DC00"/>
<path d="M17.119,39.822L12.453,35.156L14.616,32.993L17.119,35.496L21.574,31.041L23.737,33.204L17.119,39.822Z" fill="#46DC00"/>
</svg>
