<svg width="50" height="52" viewBox="0 0 50 52" fill="none" xmlns="http://www.w3.org/2000/svg" xmlns:xlink="http://www.w3.org/1999/xlink">
<path d="M23.999,0C10.195,0 -0.996,11.191 -0.996,24.995L13.111,34.292L48.954,26.419C48.981,25.948 48.994,25.473 48.994,24.995C48.994,11.191 37.804,0 23.999,0Z" fill="#9BD069"/>
<path d="M32.555,26.419C29.67,26.419 27.388,23.942 27.667,21.071C27.669,21.046 27.671,21.021 27.674,20.997C27.749,20.146 28.187,19.376 28.862,18.852C29.307,18.507 29.593,17.967 29.593,17.361C29.514,16.886 29.939,15.441 28.629,14.706C27.629,14.145 27.457,12.892 27.993,12.087C28.045,12.009 28.077,11.93 28.086,11.849L28.092,11.849C28.092,11.81 28.091,11.772 28.089,11.734L28.092,11.734L28.092,7.676C28.092,5.23 26.11,3.248 23.665,3.248L21.301,3.19C21.11,3.185 20.937,3.091 20.81,2.947C20.621,2.732 20.176,2.581 19.659,2.581C19.141,2.581 18.697,2.732 18.507,2.947C18.38,3.091 18.207,3.185 18.016,3.19L15.653,3.248C13.207,3.248 11.225,5.23 11.225,7.676L11.225,11.734L11.228,11.734C11.226,11.772 11.225,11.81 11.225,11.849L11.231,11.849C11.25,12.011 11.356,12.167 11.537,12.316L11.537,13.718L11.537,13.718L11.537,17.785L11.537,20.245C11.537,22.181 12.213,23.955 13.34,25.349C14.144,26.343 14.084,27.781 13.219,28.722C13.201,28.741 13.183,28.761 13.165,28.78C11.904,30.151 9.66,29.785 8.886,28.091C8.196,26.582 7.662,25.01 7.287,23.402C6.192,18.701 -0.87,19.094 -0.988,24.433L-0.988,24.434C-1.124,30.597 1.021,36.28 4.639,40.713C9.099,46.177 15.795,48.304 23.219,48.537C23.255,48.538 23.183,48.536 23.219,48.537C36.8,48.904 48.201,39.811 48.954,26.419L32.555,26.419Z" fill="#69B76B"/>
<path d="M38.105,50.851L35.808,50.851C35.265,50.851 34.824,50.411 34.824,49.867C34.824,49.323 35.265,48.883 35.808,48.883L38.105,48.883C38.648,48.883 39.089,49.323 39.089,49.867C39.089,50.411 38.648,50.851 38.105,50.851Z" fill="#FFBE82"/>
<path d="M31.618,45.018C31.464,44.069 32.58,38.241 27.675,33.302L27.675,33.307C26.926,32.552 26.128,31.909 25.193,31.328C25.193,31.327 25.193,31.327 25.193,31.326C25.183,31.32 24.953,31.181 24.943,31.174L24.943,31.176C22.92,29.98 20.562,29.291 18.042,29.291C17.797,29.291 17.553,29.298 17.311,29.311C15.406,29.412 13.619,30.269 12.332,31.678C12.317,31.695 12.301,31.712 12.286,31.729C11.056,33.075 10.375,34.832 10.375,36.655L10.375,45.888C13.837,48.165 17.848,49.591 22.122,49.918C22.944,49.98 30.444,46.004 31.618,45.018Z" fill="#2490A9"/>
<path d="M18.042,29.291C15.555,29.291 13.226,29.961 11.221,31.129L11.221,31.127C11.21,31.134 11.031,31.239 11.018,31.247L11.018,31.25C7.68,33.272 5.28,36.695 4.639,40.712C7.202,43.852 10.503,46.366 14.257,47.981C11.048,45.135 10.069,40.302 12.335,36.387C13.319,34.688 14.76,33.104 16.865,31.975L16.865,31.973C16.877,31.965 17.057,31.859 17.068,31.853L17.068,31.854C18.722,30.891 20.598,30.267 22.6,30.078C21.176,29.57 19.642,29.291 18.042,29.291Z" fill="#096B82"/>
<path d="M18.041,26.896C14.652,26.896 11.904,29.643 11.904,33.032C11.904,35.288 13.122,37.259 14.936,38.325L18.077,35.184L21.192,38.299C22.981,37.227 24.178,35.27 24.178,33.032C24.178,29.643 21.431,26.896 18.041,26.896Z" fill="#096B82"/>
<path d="M18.041,25.912C14.652,25.912 11.904,28.66 11.904,32.049C11.904,34.305 13.122,36.275 14.936,37.342L18.077,34.201L21.192,37.316C22.981,36.243 24.178,34.286 24.178,32.049C24.178,28.66 21.431,25.912 18.041,25.912Z" fill="#FFFFFF"/>
<path d="M18.16,34.078L18.003,34.078C16.482,34.078 15.248,32.845 15.248,31.323L15.248,24.897L20.916,24.897L20.916,31.323C20.916,32.845 19.682,34.078 18.16,34.078Z" fill="#FF965A"/>
<path d="M25.769,14.955C25.769,12.369 24.11,10.004 21.524,10.004L14.64,10.004C13.688,10.004 12.84,10.325 12.146,10.859L12.146,24.648C12.146,26.659 13.398,28.463 15.287,29.155C16.159,29.474 17.1,29.649 18.082,29.649C22.525,29.649 26.127,26.047 26.127,21.604L26.127,19.064L25.769,14.955Z" fill="#FFBE82"/>
<path d="M11.056,11.941C10.371,12.756 9.957,13.807 9.957,14.955L9.957,21.524C9.957,25.01 12.15,27.974 15.22,29.13C15.793,29.346 16.218,28.58 15.739,28.199C13.865,26.711 12.663,24.413 12.663,21.834L12.663,18.263C12.663,16.734 13.967,15.538 15.492,15.651C16.307,15.712 17.176,15.744 18.079,15.744C21.257,15.744 24.022,15.34 25.459,14.743L25.459,11.941L11.056,11.941Z" fill="#FF965A"/>
<path d="M26.179,20.526L26.127,20.526L26.127,15.744L26.179,15.744C27.192,15.744 28.013,16.565 28.013,17.578L28.013,18.692C28.013,19.705 27.192,20.526 26.179,20.526Z" fill="#FF965A"/>
<path d="M9.904,20.526L9.957,20.526L9.957,15.744L9.904,15.744C8.891,15.744 8.07,16.565 8.07,17.578L8.07,18.692C8.07,19.705 8.891,20.526 9.904,20.526Z" fill="#FF965A"/>
<path d="M15.276,19.835C14.905,19.835 14.605,19.535 14.605,19.165L14.605,17.332C14.605,16.962 14.906,16.662 15.276,16.662C15.646,16.662 15.946,16.962 15.946,17.332L15.946,19.165C15.946,19.535 15.646,19.835 15.276,19.835Z" fill="#FF965A"/>
<path d="M20.748,19.835C20.378,19.835 20.078,19.535 20.078,19.165L20.078,17.332C20.078,16.962 20.378,16.662 20.748,16.662C21.118,16.662 21.418,16.962 21.418,17.332L21.418,19.165C21.418,19.535 21.118,19.835 20.748,19.835Z" fill="#FF965A"/>
<path d="M15.276,19.298C14.905,19.298 14.605,18.998 14.605,18.628L14.605,16.795C14.605,16.425 14.906,16.125 15.276,16.125C15.646,16.125 15.946,16.425 15.946,16.795L15.946,18.628C15.946,18.998 15.646,19.298 15.276,19.298Z" fill="#373C41"/>
<path d="M20.748,19.298C20.378,19.298 20.078,18.998 20.078,18.628L20.078,16.795C20.078,16.425 20.378,16.125 20.748,16.125C21.118,16.125 21.418,16.425 21.418,16.795L21.418,18.628C21.418,18.998 21.118,19.298 20.748,19.298Z" fill="#373C41"/>
<path d="M16.159,15.79L14.205,15.79C13.835,15.79 13.535,15.49 13.535,15.12C13.535,14.75 13.835,14.45 14.205,14.45L16.159,14.45C16.529,14.45 16.829,14.75 16.829,15.12C16.829,15.49 16.529,15.79 16.159,15.79Z" fill="#783C28"/>
<path d="M21.743,15.79L19.789,15.79C19.419,15.79 19.119,15.49 19.119,15.12C19.119,14.75 19.419,14.45 19.789,14.45L21.743,14.45C22.113,14.45 22.413,14.75 22.413,15.12C22.413,15.49 22.113,15.79 21.743,15.79Z" fill="#783C28"/>
<path d="M20.55,23.005L15.615,23.005C15.411,23.005 15.247,23.184 15.274,23.387C15.327,23.775 15.458,24.138 15.651,24.46L19.33,25.55C20.161,25.142 20.763,24.34 20.891,23.387C20.918,23.184 20.755,23.005 20.55,23.005Z" fill="#CD2846"/>
<path d="M16.997,20.249C16.83,20.915 17.133,21.639 17.712,21.858C17.828,21.901 17.953,21.925 18.082,21.925C18.212,21.925 18.336,21.901 18.453,21.858C19.032,21.639 19.335,20.915 19.168,20.249L18.616,18.044C18.477,17.489 17.688,17.489 17.549,18.044L16.997,20.249Z" fill="#FF965A"/>
<path d="M22.207,11.111C22.455,10.661 23.018,10.489 23.483,10.708C23.489,10.712 23.496,10.715 23.503,10.718C24.007,10.959 24.41,11.346 24.678,11.813L25.242,11.813C25.731,11.813 26.126,11.417 26.126,10.929L26.126,9.158C26.126,7.157 24.504,5.535 22.503,5.535L13.58,5.535C12.978,5.536 12.486,6.029 12.486,6.63L12.486,10.794C12.547,10.762 12.608,10.73 12.672,10.701C13.458,10.354 14.276,11.122 14.014,11.941C14.013,11.945 14.012,11.949 14.011,11.954C13.829,12.53 14.261,13.117 14.866,13.117L18.814,13.117C21.73,13.117 22.043,11.41 22.207,11.111Z" fill="#783C28"/>
<path d="M12.641,9.158C12.641,7.157 14.263,5.535 16.264,5.535L13.58,5.535C11.579,5.535 9.957,7.157 9.957,9.158L9.957,14.997L9.957,14.997L9.957,19.064C10.552,19.064 11.035,18.581 11.035,17.986L11.035,13.228C11.035,12.177 11.626,11.208 12.571,10.749C12.594,10.737 12.617,10.726 12.64,10.716L12.641,9.158Z" fill="#5A2D19"/>
<path d="M24.88,11.129C24.784,11.301 24.675,11.463 24.555,11.617C24.871,12.074 25.049,12.626 25.049,13.202L25.049,17.986C25.049,18.581 25.531,19.063 26.126,19.063L26.126,14.954L26.126,10.692C25.665,10.498 25.126,10.688 24.88,11.129Z" fill="#5A2D19"/>
<path d="M17.55,13.117C16.947,13.117 16.513,12.532 16.694,11.956C16.697,11.946 16.701,11.936 16.704,11.926C16.971,11.1 16.114,10.348 15.327,10.714C15.303,10.725 15.279,10.737 15.255,10.748C14.692,11.022 14.256,11.478 13.994,12.023C13.865,12.576 14.287,13.117 14.867,13.117L18.815,13.117L17.55,13.117Z" fill="#A55A3C"/>
<path d="M14.859,18.013L14.846,18.013C14.713,18.013 14.605,17.905 14.605,17.772L14.605,17.011C14.605,16.878 14.713,16.771 14.846,16.771L14.859,16.771C14.992,16.771 15.099,16.878 15.099,17.011L15.099,17.772C15.099,17.905 14.992,18.013 14.859,18.013Z" fill="#FFFFFF"/>
<path d="M20.32,18.013L20.307,18.013C20.174,18.013 20.066,17.905 20.066,17.772L20.066,17.011C20.066,16.878 20.174,16.771 20.307,16.771L20.32,16.771C20.453,16.771 20.56,16.878 20.56,17.011L20.56,17.772C20.56,17.905 20.453,18.013 20.32,18.013Z" fill="#FFFFFF"/>
<path d="M15.65,24.459C16.146,25.285 17.049,25.838 18.082,25.838C18.53,25.838 18.953,25.734 19.329,25.549C19.167,24.534 18.289,23.759 17.228,23.759C16.602,23.759 16.04,24.029 15.65,24.459Z" fill="#F5415F"/>
<path d="M19.39,23.759L16.693,23.759C16.434,23.759 16.225,23.55 16.225,23.291L16.225,23.005L19.859,23.005L19.859,23.291C19.859,23.55 19.649,23.759 19.39,23.759Z" fill="#FFFFFF"/>
<path d="M48.574,47.831L48.574,29.72C48.574,28.603 47.669,27.698 46.552,27.698L39.953,27.698L34.984,29.488L30.14,27.698L25.439,27.698L25.439,47.831L48.574,47.831Z" fill="#ECD833"/>
<path d="M39.205,27.693L39.205,30.98C39.256,31.597 38.882,32.256 38.085,32.256L30.785,32.256C30.812,32.374 30.87,32.485 30.955,32.574L31.427,33.067C31.693,33.346 32.138,33.346 32.405,33.067L32.575,32.89C32.841,32.611 33.286,32.611 33.553,32.89L33.723,33.068C33.989,33.346 34.434,33.346 34.701,33.068L34.871,32.89C35.137,32.611 35.582,32.611 35.849,32.89L36.019,33.068C36.285,33.346 36.73,33.346 36.997,33.068L37.167,32.889C37.434,32.611 37.879,32.611 38.145,32.889L38.316,33.068C38.582,33.346 39.027,33.346 39.294,33.068L39.766,32.574C39.886,32.448 39.953,32.28 39.953,32.106L39.953,27.693L39.205,27.693Z" fill="#ECC32E"/>
<path d="M39.173,32.539C39.272,32.419 39.326,32.268 39.326,32.111L39.326,27.698L32.256,27.698L32.256,32.539L39.173,32.539L39.173,32.539Z" fill="#FFFFFF"/>
<path d="M38.864,32.066L38.693,32.245C38.427,32.523 37.982,32.523 37.715,32.245L37.545,32.067C37.279,31.788 36.834,31.788 36.567,32.067L36.397,32.244C36.131,32.523 35.686,32.523 35.419,32.244L35.249,32.066C34.983,31.788 34.538,31.788 34.271,32.066L34.101,32.244C33.835,32.523 33.39,32.523 33.123,32.244L32.992,32.107C32.653,31.753 32.464,31.281 32.464,30.79L32.464,27.698L30.141,27.698L30.141,32.111C30.141,32.285 30.208,32.453 30.328,32.579L30.8,33.072C31.066,33.351 31.511,33.351 31.778,33.072L31.948,32.894C32.214,32.616 32.659,32.615 32.926,32.894L33.096,33.072C33.362,33.351 33.807,33.351 34.074,33.072L34.244,32.894C34.51,32.616 34.955,32.616 35.222,32.894L35.392,33.072C35.658,33.351 36.103,33.351 36.37,33.072L36.54,32.894C36.806,32.615 37.252,32.615 37.518,32.894L37.689,33.073C37.955,33.351 38.4,33.351 38.667,33.073L39.139,32.579C39.259,32.453 39.326,32.285 39.326,32.111L39.326,31.858C39.157,31.865 38.99,31.934 38.864,32.066Z" fill="#D0FBFD"/>
<path d="M32.607,43.142L32.93,43.142L32.93,46.253C32.93,46.35 33.009,46.429 33.106,46.429L33.858,46.429C33.955,46.429 34.034,46.35 34.034,46.253L34.034,43.142L34.449,43.142C34.633,43.142 34.731,42.926 34.61,42.787L33.689,41.738C33.604,41.641 33.452,41.641 33.367,41.738L32.446,42.787C32.325,42.926 32.423,43.142 32.607,43.142Z" fill="#ECC32E"/>
<path d="M35.199,43.142L35.522,43.142L35.522,46.253C35.522,46.35 35.6,46.429 35.697,46.429L36.45,46.429C36.547,46.429 36.626,46.35 36.626,46.253L36.626,43.142L37.041,43.142C37.225,43.142 37.323,42.926 37.201,42.787L36.28,41.738C36.195,41.641 36.044,41.641 35.959,41.738L35.038,42.787C34.917,42.926 35.015,43.142 35.199,43.142Z" fill="#ECC32E"/>
<path d="M34.192,42.787L33.271,41.738C33.186,41.641 33.034,41.641 32.949,41.738L32.028,42.787C31.907,42.926 32.005,43.142 32.189,43.142L32.512,43.142L32.512,46.253C32.512,46.35 32.591,46.429 32.688,46.429L33.44,46.429C33.537,46.429 33.616,46.35 33.616,46.253L33.616,43.142L34.031,43.142C34.215,43.142 34.313,42.926 34.192,42.787Z" fill="#9D66D5"/>
<path d="M36.784,42.787L35.863,41.738C35.777,41.641 35.626,41.641 35.541,41.738L34.62,42.787C34.499,42.926 34.597,43.142 34.781,43.142L35.104,43.142L35.104,46.253C35.104,46.35 35.182,46.429 35.279,46.429L36.032,46.429C36.129,46.429 36.208,46.35 36.208,46.253L36.208,43.142L36.623,43.142C36.807,43.142 36.905,42.926 36.784,42.787Z" fill="#9D66D5"/>
<path d="M31.88,34.389L31.88,40.902L32.779,40.902C33.193,40.902 33.528,40.567 33.528,40.153L33.528,35.041C33.528,34.627 33.193,34.292 32.779,34.292L31.875,34.292C31.877,34.324 31.88,34.356 31.88,34.389Z" fill="#ECC32E"/>
<path d="M46.987,47.381C46.778,47.381 46.571,47.301 46.437,47.14C46.369,47.058 46.263,47.008 46.152,47.008L45.561,47.008L45.561,45.854C45.561,45.604 45.691,45.376 45.896,45.233C46.206,45.017 46.409,44.658 46.409,44.252L46.409,41.972C46.409,41.803 46.271,41.666 46.102,41.666L45.919,41.666L46.073,42.477C46.082,42.524 46.074,42.573 46.052,42.615L45.692,43.296C45.679,43.319 45.671,43.345 45.668,43.372L45.625,43.76C45.613,43.869 45.464,43.892 45.42,43.791L45.264,43.433C45.231,43.358 45.227,43.273 45.253,43.195L45.469,42.546C45.482,42.508 45.484,42.468 45.474,42.429L45.291,41.666L44.323,41.666C44.154,41.666 44.017,41.803 44.017,41.972L44.017,44.252C44.017,44.791 44.374,45.247 44.864,45.396L44.864,47.008L44.273,47.008C44.162,47.008 44.057,47.058 43.988,47.14C43.854,47.301 43.647,47.381 43.437,47.381L41.964,47.381C41.464,47.381 41.055,46.972 41.064,46.471C41.064,46.463 41.064,46.455 41.064,46.446L41.064,45.156C41.064,44.638 41.484,44.219 42.002,44.219L42.787,44.219C43.067,44.219 43.272,43.959 43.213,43.685C42.968,42.531 41.943,41.666 40.716,41.666C39.489,41.666 38.464,42.531 38.219,43.685C38.161,43.959 38.366,44.219 38.646,44.219L40.368,44.219L40.368,46.431C40.368,46.654 40.208,46.853 39.986,46.882C39.718,46.916 39.489,46.708 39.489,46.446L39.489,46.06C39.489,45.879 39.356,45.716 39.175,45.699C38.967,45.679 38.793,45.842 38.793,46.046L38.793,46.446C38.793,46.486 38.795,46.526 38.799,46.564C38.835,46.911 38.622,47.246 38.289,47.348C38.002,47.436 37.704,47.343 37.518,47.128C37.453,47.054 37.358,47.008 37.255,47.008L32.393,47.008C32.201,47.008 32.045,47.164 32.045,47.357C32.045,47.365 32.047,47.373 32.047,47.381L27.015,47.381C26.272,47.381 25.67,46.779 25.67,46.036L25.67,42.496C25.67,41.616 26.383,40.903 27.263,40.903L27.295,40.903L27.295,34.324C27.295,34.313 27.296,34.303 27.297,34.293L27.263,34.293C26.383,34.293 25.67,33.579 25.67,32.699L25.67,27.699L22.238,27.699C21.495,27.699 20.893,28.301 20.893,29.044L20.893,48.576C20.893,49.319 21.495,49.922 22.238,49.922L47.229,49.922C47.972,49.922 48.574,49.319 48.574,48.576L48.574,47.381L46.987,47.381L46.987,47.381Z" fill="#ECC32E"/>
<path d="M42.795,43.685C42.55,42.531 41.525,41.665 40.298,41.665C39.071,41.665 38.046,42.531 37.801,43.685C37.743,43.959 37.948,44.218 38.228,44.218L39.95,44.218L39.95,46.445C39.95,46.688 39.753,46.885 39.51,46.885C39.268,46.885 39.071,46.688 39.071,46.445L39.071,46.045C39.071,45.853 38.915,45.697 38.723,45.697C38.53,45.697 38.374,45.853 38.374,46.045L38.374,46.445C38.374,47.072 38.884,47.581 39.51,47.581C40.137,47.581 40.646,47.072 40.646,46.445L40.646,44.218L42.368,44.218C42.649,44.218 42.854,43.959 42.795,43.685Z" fill="#ABABFF"/>
<path d="M36.837,47.704L31.975,47.704C31.783,47.704 31.627,47.548 31.627,47.356C31.627,47.164 31.783,47.008 31.975,47.008L36.837,47.008C37.029,47.008 37.185,47.164 37.185,47.356C37.185,47.548 37.029,47.704 36.837,47.704Z" fill="#9D66D5"/>
<path d="M45.734,47.008L45.143,47.008L45.143,45.395C45.634,45.246 45.991,44.79 45.991,44.251L45.991,41.972C45.991,41.802 45.854,41.665 45.684,41.665L45.501,41.665L45.655,42.476C45.664,42.523 45.657,42.572 45.634,42.615L45.274,43.295C45.261,43.319 45.253,43.345 45.25,43.371L45.207,43.759C45.195,43.869 45.046,43.891 45.002,43.79L44.846,43.432C44.813,43.357 44.809,43.273 44.835,43.195L45.052,42.545C45.064,42.508 45.066,42.467 45.057,42.429L44.873,41.665L43.906,41.665C43.736,41.665 43.599,41.803 43.599,41.972L43.599,44.251C43.599,44.79 43.956,45.246 44.447,45.395L44.447,47.008L43.855,47.008C43.674,47.008 43.511,47.141 43.494,47.322C43.474,47.53 43.637,47.704 43.84,47.704L45.749,47.704C45.953,47.704 46.116,47.53 46.096,47.322C46.079,47.141 45.916,47.008 45.734,47.008Z" fill="#8659B9"/>
<path d="M32.854,39.931C32.861,39.88 32.866,39.829 32.866,39.776L32.866,35.417C32.866,34.796 32.362,34.292 31.74,34.292L25.373,34.292L25.373,39.931L32.854,39.931Z" fill="#9BD069"/>
<path d="M26.373,39.574C25.959,39.574 25.624,39.239 25.624,38.825C25.624,38.393 25.975,38.042 26.407,38.042L29.67,38.042C29.851,38.042 30.014,37.909 30.031,37.728C30.051,37.521 29.888,37.346 29.684,37.346L25.988,37.346C25.787,37.346 25.624,37.183 25.624,36.982C25.624,36.781 25.787,36.618 25.988,36.618L27.708,36.618C27.889,36.618 28.052,36.485 28.069,36.304C28.089,36.096 27.926,35.921 27.722,35.921L25.988,35.921C25.787,35.921 25.624,35.758 25.624,35.557L25.624,34.292L23.327,34.292C22.913,34.292 22.578,34.627 22.578,35.041L22.578,40.153C22.578,40.567 22.913,40.902 23.327,40.902L32.118,40.902C32.532,40.902 32.867,40.567 32.867,40.153L32.867,39.574L26.373,39.574Z" fill="#69B76B"/>
<path d="M9.645,8.832C9.645,6.455 11.572,4.527 13.95,4.527L22.207,4.527C24.585,4.527 26.512,6.455 26.512,8.832L26.512,13.013L9.645,13.013Z" fill="#3342AA"/>
<path d="M14.176,8.323C14.176,6.227 15.875,4.527 17.971,4.527L18.187,4.527C20.283,4.527 21.982,6.227 21.982,8.323L21.982,13.118L14.176,13.118Z" fill="#FFFFFF"/>
<path d="M12.042,10.731C10.718,10.731 9.645,11.805 9.645,13.129L9.651,13.129C9.776,14.174 13.5,15.012 18.078,15.012C22.657,15.012 26.381,14.174 26.506,13.129L26.512,13.129C26.512,11.805 25.439,10.731 24.115,10.731L12.042,10.731Z" fill="#2B3890"/>
<path d="M18.078,5.059C18.769,5.059 19.328,4.79 19.328,4.459C19.328,4.129 18.769,3.86 18.078,3.86C17.388,3.86 16.828,4.129 16.828,4.459C16.828,4.79 17.388,5.059 18.078,5.059Z" fill="#2B3890"/>
<path d="M29.41,51.836C28.957,51.836 28.59,51.469 28.59,51.016L28.59,48.72C28.59,48.267 28.957,47.899 29.41,47.899C29.863,47.899 30.23,48.267 30.23,48.72L30.23,51.016C30.23,51.469 29.863,51.836 29.41,51.836Z" fill="#FFBE82"/>
<path d="M31.051,52C30.507,52 30.066,51.559 30.066,51.016L30.066,48.72C30.066,48.176 30.507,47.735 31.051,47.735C31.594,47.735 32.035,48.176 32.035,48.72L32.035,51.016C32.035,51.559 31.594,52 31.051,52Z" fill="#FFBE82"/>
<path d="M32.91,52C32.366,52 31.926,51.559 31.926,51.016L31.926,48.72C31.926,48.176 32.366,47.735 32.91,47.735C33.454,47.735 33.894,48.176 33.894,48.72L33.894,51.016C33.894,51.559 33.454,52 32.91,52Z" fill="#FFBE82"/>
<path d="M34.769,52C34.226,52 33.785,51.559 33.785,51.016L33.785,48.72C33.785,48.176 34.226,47.735 34.769,47.735C35.313,47.735 35.753,48.176 35.753,48.72L35.753,51.016C35.754,51.559 35.313,52 34.769,52Z" fill="#FFBE82"/>
<path d="M34.768,50.429C34.337,50.429 33.972,50.152 33.839,49.766C33.705,50.152 33.34,50.429 32.909,50.429C32.478,50.429 32.113,50.152 31.98,49.766C31.846,50.152 31.481,50.429 31.05,50.429C30.639,50.429 30.287,50.177 30.14,49.818C30.004,50.084 29.728,50.265 29.41,50.265C28.957,50.265 28.59,49.898 28.59,49.445L28.59,51.015C28.59,51.468 28.957,51.835 29.41,51.835C29.728,51.835 30.004,51.653 30.14,51.388C30.287,51.747 30.639,51.999 31.05,51.999C31.481,51.999 31.846,51.722 31.98,51.336C32.113,51.722 32.478,51.999 32.909,51.999C33.34,51.999 33.705,51.722 33.839,51.336C33.972,51.722 34.337,51.999 34.768,51.999C35.312,51.999 35.752,51.559 35.752,51.015L35.752,49.445C35.753,49.989 35.312,50.429 34.768,50.429Z" fill="#FF965A"/>
</svg>
