<svg width="50" height="52" viewBox="0 0 50 52" fill="none" xmlns="http://www.w3.org/2000/svg" xmlns:xlink="http://www.w3.org/1999/xlink">
<path d="M23.957,2.234C10.215,2.234 -0.926,13.375 -0.926,27.117C-0.926,33.246 1.291,38.856 4.965,43.192L12.998,49.461C16.304,51.086 20.024,52 23.957,52C27.641,52 31.138,51.198 34.284,49.762C31.492,48.307 29.58,45.388 29.58,42.028C29.58,37.222 33.49,33.313 38.296,33.313C41.776,33.313 44.784,35.363 46.181,38.319C47.881,34.952 48.84,31.147 48.84,27.117C48.84,13.375 37.699,2.234 23.957,2.234Z" fill="#FFBD86"/>
<path d="M29.58,42.028C29.58,37.222 33.49,33.313 38.296,33.313C40.006,33.313 41.602,33.81 42.949,34.664L42.949,2.641C42.949,2.08 42.494,1.625 41.934,1.625L32.082,1.625L32.082,4.469C32.082,4.693 31.9,4.875 31.676,4.875L16.238,4.875C16.014,4.875 15.832,4.693 15.832,4.469L15.832,1.625L5.98,1.625C5.42,1.625 4.965,2.08 4.965,2.641L4.965,43.192C7.171,45.796 9.903,47.94 12.998,49.461L33.75,49.461C31.251,47.927 29.58,45.169 29.58,42.028Z" fill="#22B27F"/>
<path d="M10.289,2.641C10.289,2.08 10.744,1.625 11.305,1.625L5.98,1.625C5.42,1.625 4.965,2.08 4.965,2.641L4.965,43.192C6.503,45.007 8.296,46.597 10.289,47.91L10.289,2.641Z" fill="#09A76D"/>
<path d="M29.58,42.028C29.58,37.222 33.49,33.312 38.296,33.312C38.845,33.312 39.381,33.366 39.902,33.463L39.902,3.961C39.902,3.793 39.766,3.656 39.598,3.656L32.082,3.656L32.082,4.469C32.082,4.693 31.9,4.875 31.676,4.875L16.238,4.875C16.014,4.875 15.832,4.693 15.832,4.469L15.832,3.656L8.316,3.656C8.148,3.656 8.012,3.793 8.012,3.961L8.012,45.094C8.012,45.262 8.148,45.398 8.316,45.398L30.259,45.398C29.822,44.361 29.58,43.222 29.58,42.028Z" fill="#FFFFFF"/>
<path d="M12.117,45.094L12.117,3.961C12.117,3.793 12.254,3.656 12.422,3.656L8.316,3.656C8.148,3.656 8.012,3.793 8.012,3.961L8.012,45.094C8.012,45.262 8.148,45.398 8.316,45.398L12.422,45.398C12.254,45.398 12.117,45.262 12.117,45.094Z" fill="#F8F6F6"/>
<path d="M29.086,4.875L29.086,5.698L26.984,5.698C26.419,5.698 25.93,6.064 25.767,6.61C25.529,7.402 24.785,7.956 23.957,7.956C23.129,7.956 22.385,7.402 22.147,6.61C21.984,6.064 21.495,5.698 20.93,5.698L18.828,5.698L18.828,4.875L17.305,4.875L17.305,5.952C17.305,6.652 17.874,7.221 18.574,7.221L20.745,7.221C21.227,8.559 22.522,9.479 23.957,9.479C25.392,9.479 26.687,8.559 27.169,7.221L29.34,7.221C30.04,7.221 30.609,6.652 30.609,5.952L30.609,4.875L29.086,4.875Z" fill="#9C9C9C"/>
<path d="M15.946,17.558C17.692,17.558 19.108,16.142 19.108,14.397C19.108,12.651 17.692,11.235 15.946,11.235C14.2,11.235 12.785,12.651 12.785,14.397C12.785,16.142 14.2,17.558 15.946,17.558Z" fill="#26A6FE"/>
<path d="M14.86,14.397C14.86,13.014 15.747,11.84 16.984,11.41C16.659,11.298 16.31,11.235 15.946,11.235C14.201,11.235 12.785,12.651 12.785,14.397C12.785,16.142 14.2,17.558 15.946,17.558C16.31,17.558 16.659,17.496 16.984,17.383C15.747,16.953 14.86,15.779 14.86,14.397Z" fill="#0593FC"/>
<path d="M15.733,16.104C15.538,16.104 15.343,16.03 15.194,15.881L13.887,14.575C13.59,14.277 13.59,13.795 13.887,13.497C14.185,13.2 14.667,13.2 14.964,13.497L15.733,14.266L16.929,13.07C17.226,12.772 17.708,12.772 18.006,13.07C18.303,13.367 18.303,13.85 18.006,14.147L16.271,15.881C16.123,16.03 15.928,16.104 15.733,16.104Z" fill="#FFFFFF"/>
<path d="M35.129,13.635L21.824,13.635C21.404,13.635 21.063,13.294 21.063,12.873C21.063,12.452 21.404,12.111 21.824,12.111L35.129,12.111C35.55,12.111 35.891,12.452 35.891,12.873C35.891,13.294 35.55,13.635 35.129,13.635Z" fill="#9C9C9C"/>
<path d="M30.762,16.682L21.824,16.682C21.404,16.682 21.063,16.341 21.063,15.92C21.063,15.499 21.404,15.158 21.824,15.158L30.762,15.158C31.182,15.158 31.523,15.499 31.523,15.92C31.523,16.341 31.182,16.682 30.762,16.682Z" fill="#9C9C9C"/>
<path d="M15.946,25.619C17.692,25.619 19.108,24.204 19.108,22.458C19.108,20.712 17.692,19.297 15.946,19.297C14.2,19.297 12.785,20.712 12.785,22.458C12.785,24.204 14.2,25.619 15.946,25.619Z" fill="#26A6FE"/>
<path d="M14.86,22.458C14.86,21.076 15.747,19.901 16.984,19.472C16.659,19.359 16.31,19.297 15.946,19.297C14.201,19.297 12.785,20.712 12.785,22.458C12.785,24.204 14.2,25.619 15.946,25.619C16.31,25.619 16.659,25.557 16.984,25.444C15.747,25.015 14.86,23.84 14.86,22.458Z" fill="#0593FC"/>
<path d="M15.733,24.166C15.538,24.166 15.343,24.092 15.194,23.943L13.887,22.636C13.59,22.339 13.59,21.856 13.887,21.559C14.185,21.261 14.667,21.261 14.964,21.559L15.733,22.327L16.929,21.131C17.226,20.834 17.708,20.834 18.006,21.131C18.303,21.429 18.303,21.911 18.006,22.209L16.271,23.943C16.123,24.092 15.928,24.166 15.733,24.166Z" fill="#FFFFFF"/>
<path d="M35.129,21.696L21.824,21.696C21.404,21.696 21.063,21.355 21.063,20.935C21.063,20.514 21.404,20.173 21.824,20.173L35.129,20.173C35.55,20.173 35.891,20.514 35.891,20.935C35.891,21.355 35.55,21.696 35.129,21.696Z" fill="#9C9C9C"/>
<path d="M30.762,24.743L21.824,24.743C21.404,24.743 21.063,24.402 21.063,23.981C21.063,23.561 21.404,23.22 21.824,23.22L30.762,23.22C31.182,23.22 31.523,23.561 31.523,23.981C31.523,24.402 31.182,24.743 30.762,24.743Z" fill="#9C9C9C"/>
<path d="M15.946,33.681C17.692,33.681 19.108,32.266 19.108,30.52C19.108,28.774 17.692,27.358 15.946,27.358C14.2,27.358 12.785,28.774 12.785,30.52C12.785,32.266 14.2,33.681 15.946,33.681Z" fill="#26A6FE"/>
<path d="M14.86,30.52C14.86,29.137 15.747,27.963 16.984,27.533C16.659,27.421 16.31,27.358 15.946,27.358C14.201,27.358 12.785,28.774 12.785,30.52C12.785,32.265 14.2,33.681 15.946,33.681C16.31,33.681 16.659,33.619 16.984,33.506C15.747,33.076 14.86,31.902 14.86,30.52Z" fill="#0593FC"/>
<path d="M15.733,32.227C15.538,32.227 15.343,32.153 15.194,32.004L13.887,30.698C13.59,30.4 13.59,29.918 13.887,29.62C14.185,29.323 14.667,29.323 14.964,29.62L15.733,30.389L16.929,29.193C17.226,28.895 17.708,28.895 18.006,29.193C18.303,29.49 18.303,29.973 18.006,30.27L16.271,32.004C16.123,32.153 15.928,32.227 15.733,32.227Z" fill="#FFFFFF"/>
<path d="M33.549,28.234L21.824,28.234C21.404,28.234 21.063,28.575 21.063,28.996C21.063,29.417 21.404,29.758 21.824,29.758L33.238,29.758L33.549,28.234Z" fill="#9C9C9C"/>
<path d="M33.774,27.527L33.588,27.538L32.594,32.398C32.56,32.561 32.754,32.673 32.878,32.562L36.59,29.271L36.51,29.107L33.774,27.527Z" fill="#FFE5C2"/>
<path d="M34.921,28.19L33.774,27.527L33.588,27.538L32.594,32.398C32.56,32.561 32.754,32.673 32.878,32.562L34.281,31.319L34.921,28.19Z" fill="#FED2A4"/>
<path d="M27.715,32.805L21.824,32.805C21.404,32.805 21.063,32.464 21.063,32.043C21.063,31.622 21.404,31.281 21.824,31.281L27.715,31.281C28.136,31.281 28.477,31.622 28.477,32.043C28.477,32.464 28.136,32.805 27.715,32.805Z" fill="#9C9C9C"/>
<path d="M15.946,41.742C17.692,41.742 19.108,40.327 19.108,38.581C19.108,36.835 17.692,35.42 15.946,35.42C14.2,35.42 12.785,36.835 12.785,38.581C12.785,40.327 14.2,41.742 15.946,41.742Z" fill="#D8ECFE"/>
<path d="M14.86,38.581C14.86,37.199 15.747,36.024 16.984,35.595C16.659,35.482 16.31,35.42 15.946,35.42C14.201,35.42 12.785,36.835 12.785,38.581C12.785,40.327 14.2,41.742 15.946,41.742C16.31,41.742 16.659,41.68 16.984,41.567C15.747,41.138 14.86,39.964 14.86,38.581Z" fill="#B3DAFE"/>
<path d="M31.739,36.296L21.824,36.296C21.404,36.296 21.063,36.637 21.063,37.058C21.063,37.478 21.404,37.819 21.824,37.819L30.667,37.819C30.97,37.273 31.33,36.763 31.739,36.296Z" fill="#9C9C9C"/>
<path d="M27.715,40.866L21.824,40.866C21.404,40.866 21.063,40.525 21.063,40.104C21.063,39.684 21.404,39.343 21.824,39.343L27.715,39.343C28.136,39.343 28.477,39.684 28.477,40.104C28.477,40.525 28.136,40.866 27.715,40.866Z" fill="#9C9C9C"/>
<path d="M31.676,4.977L16.238,4.977C15.958,4.977 15.73,4.749 15.73,4.469L15.73,0.508C15.73,0.227 15.958,0 16.238,0L31.676,0C31.956,0 32.184,0.227 32.184,0.508L32.184,4.469C32.184,4.749 31.956,4.977 31.676,4.977Z" fill="#0182FC"/>
<path d="M21.36,2.945C21.079,2.945 20.852,2.718 20.852,2.438L20.852,0L16.238,0C15.958,0 15.73,0.227 15.73,0.508L15.73,4.469C15.73,4.749 15.958,4.977 16.238,4.977L31.676,4.977C31.956,4.977 32.184,4.749 32.184,4.469L32.184,2.945L21.36,2.945Z" fill="#0172FB"/>
<path d="M48.493,6.922L46.992,6.056C46.577,5.816 46.047,5.958 45.808,6.373L43.814,9.825L43.906,9.978L46.608,11.538L46.817,11.559L48.81,8.106C49.049,7.692 48.907,7.162 48.493,6.922Z" fill="#9C9C9C"/>
<path d="M34.472,31.15L33.021,30.313L32.594,32.398C32.56,32.562 32.754,32.673 32.878,32.563L34.472,31.15Z" fill="#5A5A5A"/>
<path d="M38.469,9.322L41.936,9.322L41.936,29.774L38.469,29.774L38.469,9.322Z" transform="rotate(60.001 40.202 19.548)" fill="#FAC600"/>
<path d="M46.478,8.281C46.717,7.867 47.247,7.725 47.661,7.964L48.584,8.497L48.81,8.106C49.049,7.692 48.907,7.162 48.493,6.922L46.992,6.056C46.577,5.816 46.047,5.958 45.808,6.373L43.814,9.825L43.906,9.978L45.1,10.667L46.478,8.281Z" fill="#838383"/>
<path d="M44.484,11.734L46.157,12.7L46.816,11.558L43.814,9.825L33.588,27.538L34.917,28.305L44.484,11.734Z" fill="#E8B800"/>
<path d="M38.296,50.845C43.165,50.845 47.113,46.898 47.113,42.028C47.113,37.159 43.165,33.211 38.296,33.211C33.426,33.211 29.479,37.159 29.479,42.028C29.479,46.898 33.426,50.845 38.296,50.845Z" fill="#0182FC"/>
<path d="M33.445,42.028C33.445,37.841 36.365,34.335 40.279,33.435C39.642,33.288 38.978,33.211 38.296,33.211C33.426,33.211 29.479,37.159 29.479,42.028C29.479,46.898 33.426,50.845 38.296,50.845C38.978,50.845 39.642,50.768 40.279,50.621C36.365,49.722 33.445,46.216 33.445,42.028Z" fill="#0172FB"/>
<path d="M38.044,45.649C37.617,45.649 37.19,45.486 36.864,45.16L34,42.297C33.349,41.645 33.349,40.589 34,39.937C34.652,39.285 35.709,39.285 36.36,39.937L38.043,41.62L40.663,39C41.315,38.349 42.372,38.349 43.023,39.001C43.675,39.652 43.675,40.709 43.023,41.36L39.223,45.16C38.898,45.486 38.471,45.649 38.044,45.649Z" fill="#0172FB"/>
<path d="M38.532,45.137C38.105,45.137 37.678,44.974 37.352,44.648L34.489,41.785C33.837,41.133 33.837,40.077 34.489,39.425C35.14,38.773 36.197,38.774 36.849,39.425L38.532,41.108L41.151,38.489C41.803,37.837 42.86,37.837 43.511,38.489C44.163,39.141 44.163,40.197 43.511,40.849L39.712,44.648C39.386,44.974 38.959,45.137 38.532,45.137Z" fill="#FFFFFF"/>
</svg>
