<svg width="50" height="52" viewBox="0 0 50 52" fill="none" xmlns="http://www.w3.org/2000/svg" xmlns:xlink="http://www.w3.org/1999/xlink">
<path d="M24,2.234C10.258,2.234 -0.883,13.375 -0.883,27.117C-0.883,30.64 -0.15,33.991 1.171,37.027L1.272,37.027L1.272,26.203C1.272,25.979 1.455,25.797 1.679,25.797L17.116,25.797C17.34,25.797 17.522,25.979 17.522,26.203L17.522,42.025L43.601,42.025L43.999,41.923C47.067,37.786 48.883,32.664 48.883,27.117C48.883,13.375 37.742,2.234 24,2.234Z" fill="#D8ECFE"/>
<path d="M29.281,34.214L29.281,37.305L33.848,37.305C34.215,35.901 35.231,34.758 36.554,34.214L29.281,34.214Z" fill="#096B82"/>
<path d="M47.621,34.214L40.035,34.214C41.359,34.758 42.375,35.901 42.741,37.305L46.851,37.305C47.412,37.305 47.867,36.851 47.867,36.29L47.867,34.315L47.621,34.214Z" fill="#096B82"/>
<path d="M45.938,29.402L47.791,29.402L47.868,29.301L47.868,27.747C47.868,27.498 47.831,27.252 47.76,27.016L47.617,26.914L34.367,26.914C34.143,26.914 33.961,26.732 33.961,26.508L33.961,20.719C33.961,20.495 34.143,20.313 34.367,20.313L43.54,20.313L43.596,20.211L42.784,18.918C42.598,18.622 42.273,18.442 41.924,18.442L31.164,18.442L31.164,34.316L36.325,34.316C36.923,34.031 37.591,33.871 38.296,33.871C39.001,33.871 39.669,34.031 40.267,34.316L47.868,34.316L47.868,32.856L47.814,32.754L45.938,32.754C45.714,32.754 45.532,32.572 45.532,32.348L45.532,29.809C45.532,29.585 45.714,29.402 45.938,29.402Z" fill="#2490A9"/>
<path d="M36.398,20.356L36.297,20.211L34.367,20.211C34.087,20.211 33.859,20.438 33.859,20.719L33.859,26.508C33.859,26.788 34.087,27.016 34.367,27.016L36.297,27.016L36.398,26.836L36.398,20.356Z" fill="#096B82"/>
<path d="M25.711,9.445L3.695,9.445C3.134,9.445 2.68,9.9 2.68,10.461L2.68,25.797L17.117,25.797C17.341,25.797 17.523,25.979 17.523,26.203L17.523,30.491L28.875,30.491C29.099,30.491 29.282,30.673 29.282,30.897L29.282,34.316L31.265,34.316L31.265,15.192C28.5,14.474 26.338,12.246 25.711,9.445Z" fill="#FED402"/>
<path d="M6.938,25.695L6.938,10.461C6.938,9.9 7.393,9.445 7.954,9.445L3.695,9.445C3.134,9.445 2.68,9.9 2.68,10.461L2.68,25.695L6.938,25.695Z" fill="#FAC600"/>
<path d="M24.914,22.128L9.029,22.128C8.468,22.128 8.014,21.674 8.014,21.113L8.014,16.352C8.014,15.791 8.468,15.336 9.029,15.336L24.914,15.336C25.474,15.336 25.929,15.791 25.929,16.352L25.929,21.113C25.929,21.674 25.474,22.128 24.914,22.128Z" fill="#FFFFFF"/>
<path d="M11.203,21.113L11.203,16.352C11.203,15.791 11.657,15.336 12.218,15.336L9.029,15.336C8.468,15.336 8.014,15.791 8.014,16.352L8.014,21.113C8.014,21.674 8.468,22.128 9.029,22.128L12.218,22.128C11.657,22.128 11.203,21.674 11.203,21.113Z" fill="#F3F0FF"/>
<path d="M35.23,42.025L41.36,42.025C42.359,41.164 42.992,39.89 42.992,38.467C42.992,35.873 40.889,33.77 38.295,33.77C35.701,33.77 33.598,35.873 33.598,38.467C33.598,39.89 34.231,41.164 35.23,42.025Z" fill="#9182B0"/>
<path d="M35.115,41.923L36.791,41.923C35.858,41.065 35.273,39.835 35.273,38.467C35.273,36.159 36.939,34.241 39.133,33.846C38.861,33.797 38.581,33.77 38.295,33.77C35.701,33.77 33.598,35.873 33.598,38.467C33.598,39.834 34.182,41.065 35.115,41.923Z" fill="#7A6D98"/>
<path d="M38.295,40.98C39.683,40.98 40.809,39.855 40.809,38.467C40.809,37.079 39.683,35.953 38.295,35.953C36.907,35.953 35.781,37.079 35.781,38.467C35.781,39.855 36.907,40.98 38.295,40.98Z" fill="#CFCAE4"/>
<path d="M38.295,39.812C39.038,39.812 39.641,39.21 39.641,38.467C39.641,37.724 39.038,37.121 38.295,37.121C37.552,37.121 36.949,37.724 36.949,38.467C36.949,39.21 37.552,39.812 38.295,39.812Z" fill="#FFFFFF"/>
<path d="M38.016,38.467C38.016,37.914 38.351,37.439 38.828,37.232C38.665,37.161 38.484,37.121 38.295,37.121C37.553,37.121 36.949,37.725 36.949,38.467C36.949,39.209 37.553,39.812 38.295,39.812C38.484,39.812 38.665,39.773 38.828,39.702C38.351,39.495 38.016,39.019 38.016,38.467Z" fill="#F3F0FF"/>
<path d="M33.191,15.539C37.482,15.539 40.961,12.061 40.961,7.77C40.961,3.479 37.482,0 33.191,0C28.9,0 25.422,3.479 25.422,7.77C25.422,12.061 28.9,15.539 33.191,15.539Z" fill="#9182B0"/>
<path d="M29.551,11.724C28.484,10.742 27.815,9.334 27.815,7.77C27.815,6.205 28.484,4.797 29.551,3.815C30.656,1.95 32.518,0.587 34.715,0.15C34.222,0.052 33.713,0 33.191,0C28.9,0 25.422,3.479 25.422,7.77C25.422,12.061 28.9,15.539 33.191,15.539C33.713,15.539 34.222,15.487 34.715,15.389C32.518,14.952 30.656,13.589 29.551,11.724Z" fill="#7A6D98"/>
<path d="M33.19,13.145C36.159,13.145 38.566,10.738 38.566,7.769C38.566,4.8 36.159,2.394 33.19,2.394C30.221,2.394 27.814,4.8 27.814,7.769C27.814,10.738 30.221,13.145 33.19,13.145Z" fill="#FFFFFF"/>
<path d="M29.903,7.769C29.903,5.158 31.766,2.982 34.235,2.496C33.897,2.429 33.548,2.394 33.19,2.394C30.221,2.394 27.814,4.8 27.814,7.769C27.814,10.739 30.221,13.145 33.19,13.145C33.548,13.145 33.897,13.11 34.235,13.043C31.766,12.557 29.903,10.381 29.903,7.769Z" fill="#F3F0FF"/>
<path d="M35.985,8.562L33.16,8.562C32.952,8.562 32.753,8.477 32.609,8.326L29.965,5.558C29.674,5.254 29.685,4.772 29.989,4.481C30.293,4.191 30.776,4.202 31.066,4.506L33.486,7.038L35.985,7.038C36.405,7.038 36.746,7.38 36.746,7.8C36.746,8.221 36.405,8.562 35.985,8.562Z" fill="#A79BC6"/>
<path d="M33.192,9.079C33.915,9.079 34.502,8.493 34.502,7.769C34.502,7.046 33.915,6.46 33.192,6.46C32.469,6.46 31.883,7.046 31.883,7.769C31.883,8.493 32.469,9.079 33.192,9.079Z" fill="#9182B0"/>
<path d="M28.874,30.39L17.521,30.39L17.521,42.025L29.382,42.025L29.382,30.897C29.382,30.617 29.155,30.39 28.874,30.39Z" fill="#D88A55"/>
<rect  x="17.623" y="30.39" width="2.234" height="11.534" fill="#C57A44"/>
<path d="M24.619,34.382L22.385,34.382C22.104,34.382 21.877,34.154 21.877,33.874L21.877,30.39L25.127,30.39L25.127,33.874C25.127,34.154 24.9,34.382 24.619,34.382Z" fill="#2F9BB4"/>
<path d="M23.186,33.874L23.186,30.39L21.877,30.39L21.877,33.874C21.877,34.154 22.104,34.382 22.385,34.382L23.694,34.382C23.413,34.382 23.186,34.154 23.186,33.874Z" fill="#1A869F"/>
<path d="M37.267,29.656L34.162,29.656C33.994,29.656 33.857,29.52 33.857,29.352L33.857,28.336C33.857,28.168 33.994,28.031 34.162,28.031L37.267,28.031C37.435,28.031 37.572,28.168 37.572,28.336L37.572,29.352C37.572,29.52 37.435,29.656 37.267,29.656Z" fill="#096B82"/>
<path d="M47.478,26.396L43.594,20.211L36.295,20.211L36.295,27.016L47.758,27.016C47.693,26.799 47.599,26.59 47.478,26.396Z" fill="#FFFFFF"/>
<rect  x="36.295" y="20.211" width="2.241" height="6.805" fill="#F3F0FF"/>
<path d="M17.623,26.203C17.623,25.923 17.396,25.695 17.115,25.695L1.678,25.695C1.397,25.695 1.17,25.923 1.17,26.203L1.17,37.027C1.929,38.772 2.881,40.414 4,41.923L4.398,42.025L17.623,42.025L17.623,26.203Z" fill="#F6A96C"/>
<path d="M4.296,26.203C4.296,25.923 4.523,25.695 4.804,25.695L1.678,25.695C1.397,25.695 1.17,25.923 1.17,26.203L1.17,37.027C1.929,38.772 2.881,40.414 4,41.923L4.296,41.999L4.296,26.203Z" fill="#EA9B58"/>
<path d="M10.92,31.281L7.873,31.281C7.593,31.281 7.365,31.054 7.365,30.773L7.365,25.695L11.428,25.695L11.428,30.773C11.428,31.054 11.2,31.281 10.92,31.281Z" fill="#2F9BB4"/>
<path d="M8.866,30.773L8.866,25.695L7.365,25.695L7.365,30.773C7.365,31.054 7.593,31.281 7.873,31.281L9.374,31.281C9.094,31.281 8.866,31.054 8.866,30.773Z" fill="#1A869F"/>
<path d="M8.12,45.703L7.572,45.805C11.955,49.66 17.704,52 24,52C30.295,52 36.044,49.66 40.427,45.805L39.879,45.703L8.12,45.703Z" fill="#B5ADD5"/>
<path d="M4,41.924C5.051,43.341 6.249,44.642 7.571,45.805L40.427,45.805C41.749,44.642 42.947,43.341 43.998,41.924L4,41.924Z" fill="#CFCAE4"/>
<path d="M47.867,29.301L45.937,29.301C45.657,29.301 45.43,29.528 45.43,29.809L45.43,32.348C45.43,32.628 45.657,32.855 45.937,32.855L47.867,32.855L47.867,29.301Z" fill="#FFFFFF"/>
</svg>
