<svg width="36" height="40" viewBox="0 0 36 40" fill="none" xmlns="http://www.w3.org/2000/svg" xmlns:xlink="http://www.w3.org/1999/xlink">
<path d="M23.102,24.844C23.005,24.844 22.907,24.827 22.812,24.793C22.47,24.67 22.243,24.347 22.243,23.984L22.243,17.55L6.098,8.23C5.687,7.993 5.546,7.467 5.783,7.056C6.02,6.645 6.546,6.504 6.957,6.742L23.532,16.31C23.798,16.463 23.962,16.747 23.962,17.054L23.962,21.592L25.778,19.391C25.983,19.143 26.31,19.03 26.625,19.099L28.241,19.453L28.241,14.087L12.086,4.766C11.675,4.529 11.534,4.003 11.771,3.592C12.009,3.181 12.534,3.04 12.945,3.277L29.53,12.846C29.796,13 29.96,13.284 29.96,13.591L29.96,20.521C29.96,20.781 29.842,21.028 29.639,21.191C29.437,21.354 29.171,21.416 28.917,21.361L26.769,20.89L23.765,24.531C23.599,24.733 23.354,24.844 23.102,24.844Z" fill="#FD683D"/>
<path d="M35.374,10.112C35.372,10.106 35.37,10.1 35.367,10.094C35.363,10.083 35.357,10.073 35.352,10.062C35.278,9.907 35.16,9.774 35.006,9.685L18.43,0.115C18.164,-0.038 17.836,-0.038 17.571,0.115L1.115,9.616C0.936,9.683 0.778,9.811 0.675,9.989C0.582,10.15 0.548,10.329 0.565,10.501L0.565,29.57C0.565,29.877 0.728,30.161 0.994,30.315L17.571,39.885C17.837,40.038 18.164,40.038 18.43,39.885L35.006,30.315C35.272,30.161 35.436,29.877 35.436,29.57L35.436,10.521C35.449,10.385 35.429,10.245 35.374,10.112ZM18,1.852L32.869,10.436L18.001,19.008L3.149,10.426L18,1.852ZM2.283,11.911L17.141,20.496L17.141,37.652L2.283,29.074L2.283,11.911ZM18.86,37.652L18.86,20.496L33.717,11.93L33.717,29.074L18.86,37.652Z" fill="#353535"/>
<path d="M8,30.337C7.854,30.337 7.706,30.3 7.571,30.221L4.02,28.171C3.609,27.934 3.468,27.408 3.705,26.997C3.942,26.586 4.468,26.445 4.879,26.683L8.43,28.733C8.841,28.97 8.982,29.496 8.745,29.907C8.586,30.183 8.297,30.337 8,30.337Z" fill="#FD683D"/>
<path d="M6.402,25.913C6.256,25.913 6.108,25.876 5.973,25.798L4.02,24.67C3.609,24.433 3.468,23.907 3.705,23.496C3.942,23.085 4.468,22.944 4.879,23.182L6.832,24.309C7.243,24.547 7.384,25.072 7.147,25.483C6.987,25.759 6.699,25.913 6.402,25.913Z" fill="#FD683D"/>
</svg>
