<svg width="78" height="4" viewBox="0 0 78 4" fill="none" xmlns="http://www.w3.org/2000/svg" xmlns:xlink="http://www.w3.org/1999/xlink">
<path d="M0.5,2C0.5,1.172 1.067,0.5 1.767,0.5L6.358,0.5C7.058,0.5 7.625,1.172 7.625,2C7.625,2.828 7.058,3.5 6.358,3.5L1.767,3.5C1.067,3.5 0.5,2.828 0.5,2ZM14.275,2C14.275,1.172 14.842,0.5 15.542,0.5L24.725,0.5C25.425,0.5 25.992,1.172 25.992,2C25.992,2.828 25.425,3.5 24.725,3.5L15.542,3.5C14.842,3.5 14.275,2.828 14.275,2ZM32.642,2C32.642,1.172 33.209,0.5 33.908,0.5L43.092,0.5C43.791,0.5 44.358,1.172 44.358,2C44.358,2.828 43.791,3.5 43.092,3.5L33.908,3.5C33.209,3.5 32.642,2.828 32.642,2ZM51.008,2C51.008,1.172 51.575,0.5 52.275,0.5L61.458,0.5C62.158,0.5 62.725,1.172 62.725,2C62.725,2.828 62.158,3.5 61.458,3.5L52.275,3.5C51.575,3.5 51.008,2.828 51.008,2ZM69.375,2C69.375,1.172 69.942,0.5 70.642,0.5L75.233,0.5C75.933,0.5 76.5,1.172 76.5,2C76.5,2.828 75.933,3.5 75.233,3.5L70.642,3.5C69.942,3.5 69.375,2.828 69.375,2Z" clip-rule="evenodd" fill-rule="evenodd" transform="rotate(180 38.5 2)" fill="#A7A9B7"/>
</svg>
