<svg width="48" height="50" viewBox="0 0 48 50" fill="none" xmlns="http://www.w3.org/2000/svg" xmlns:xlink="http://www.w3.org/1999/xlink">
<path d="M28.74,21.62C28.74,24.238 26.618,26.36 24,26.36L24,29.36C28.274,29.36 31.74,25.895 31.74,21.62L28.74,21.62ZM24,26.36C21.382,26.36 19.26,24.238 19.26,21.62L16.26,21.62C16.26,25.895 19.725,29.36 24,29.36L24,26.36ZM19.26,21.62C19.26,19.002 21.382,16.88 24,16.88L24,13.88C19.725,13.88 16.26,17.345 16.26,21.62L19.26,21.62ZM24,16.88C26.618,16.88 28.74,19.002 28.74,21.62L31.74,21.62C31.74,17.345 28.274,13.88 24,13.88L24,16.88Z" fill="#A7A9B7"/>
<path d="M7.239,17.98L5.777,17.647L5.776,17.649L7.239,17.98ZM40.76,18L39.297,18.331L39.297,18.331L40.76,18ZM31.2,42.08L30.161,40.998L30.158,41.001L31.2,42.08ZM16.779,42.08L15.739,43.16L15.74,43.162L16.779,42.08ZM8.702,18.313C10.488,10.461 17.172,6.495 24.006,6.5C30.84,6.505 37.519,10.479 39.297,18.331L42.223,17.669C40.08,8.201 31.969,3.505 24.008,3.5C16.047,3.495 7.931,8.179 5.777,17.647L8.702,18.313ZM39.297,18.331C41.411,27.671 35.624,35.751 30.161,40.998L32.238,43.162C37.855,37.769 44.708,28.649 42.222,17.669L39.297,18.331ZM30.158,41.001C26.72,44.318 21.279,44.322 17.818,40.998L15.74,43.162C20.359,47.598 27.639,47.602 32.241,43.159L30.158,41.001ZM17.82,41C12.376,35.753 6.588,27.652 8.702,18.311L5.776,17.649C3.291,28.628 10.143,37.767 15.739,43.16L17.82,41Z" fill="#A7A9B7"/>
</svg>
