<svg width="48" height="48" viewBox="0 0 48 48" fill="none" xmlns="http://www.w3.org/2000/svg" xmlns:xlink="http://www.w3.org/1999/xlink">
<path d="M40,13.5C43.038,13.5 45.5,11.038 45.5,8C45.5,4.962 43.038,2.5 40,2.5C36.962,2.5 34.5,4.962 34.5,8C34.5,11.038 36.962,13.5 40,13.5Z" fill="#E50000"/>
<path d="M38.08,16.3C34.94,15.62 32.38,13.06 31.7,9.92C31.44,8.7 31.42,7.52 31.64,6.4C31.9,5.16 30.98,4 29.7,4L14,4C8.48,4 4,8.48 4,14L4,27.9C4,33.42 8.48,37.9 14,37.9L17,37.9C17.56,37.9 18.28,38.26 18.6,38.7L21.6,42.68C22.92,44.44 25.08,44.44 26.4,42.68L29.4,38.7C29.78,38.2 30.36,37.9 31,37.9L34.02,37.9C39.54,37.9 44,33.44 44,27.92L44,18.3C44,17.04 42.84,16.12 41.6,16.36C40.48,16.56 39.3,16.56 38.08,16.3ZM16,24C14.88,24 14,23.1 14,22C14,20.9 14.88,20 16,20C17.1,20 18,20.9 18,22C18,23.1 17.12,24 16,24ZM24,24C22.88,24 22,23.1 22,22C22,20.9 22.88,20 24,20C25.1,20 26,20.9 26,22C26,23.1 25.12,24 24,24ZM32,24C30.88,24 30,23.1 30,22C30,20.9 30.88,20 32,20C33.1,20 34,20.9 34,22C34,23.1 33.12,24 32,24Z" fill="#151B33"/>
</svg>
