<svg width="50" height="52" viewBox="0 0 50 52" fill="none" xmlns="http://www.w3.org/2000/svg" xmlns:xlink="http://www.w3.org/1999/xlink">
<path d="M43.908,25.34C43.908,36.103 35.194,44.825 24.448,44.825L24.448,47.825C36.854,47.825 46.908,37.756 46.908,25.34L43.908,25.34ZM24.448,44.825C13.703,44.825 4.988,36.103 4.988,25.34L1.988,25.34C1.988,37.756 12.042,47.825 24.448,47.825L24.448,44.825ZM4.988,25.34C4.988,14.577 13.703,5.854 24.448,5.854L24.448,2.854C12.042,2.854 1.988,12.923 1.988,25.34L4.988,25.34ZM24.448,5.854C35.194,5.854 43.908,14.577 43.908,25.34L46.908,25.34C46.908,12.923 36.854,2.854 24.448,2.854L24.448,5.854Z" fill="#FD683D"/>
<path d="M24.511,34.216C29.407,34.216 33.377,30.242 33.377,25.34C33.377,20.437 29.407,16.463 24.511,16.463C19.614,16.463 15.645,20.437 15.645,25.34C15.645,30.242 19.614,34.216 24.511,34.216Z" fill="#FD683D" stroke="#FD683D" stroke-width="1.5" stroke-miterlimit="10" stroke-linecap="round" stroke-linejoin="round"/>
</svg>
