<svg width="48" height="48" viewBox="0 0 48 48" fill="none" xmlns="http://www.w3.org/2000/svg" xmlns:xlink="http://www.w3.org/1999/xlink">
<path d="M42.439,24C42.439,34.217 34.157,42.5 23.939,42.5L23.939,45.5C35.814,45.5 45.439,35.874 45.439,24L42.439,24ZM23.939,42.5C13.722,42.5 5.439,34.217 5.439,24L2.439,24C2.439,35.874 12.065,45.5 23.939,45.5L23.939,42.5ZM5.439,24C5.439,13.783 13.722,5.5 23.939,5.5L23.939,2.5C12.065,2.5 2.439,12.126 2.439,24L5.439,24ZM23.939,5.5C34.157,5.5 42.439,13.783 42.439,24L45.439,24C45.439,12.126 35.814,2.5 23.939,2.5L23.939,5.5Z" fill="#FD683D"/>
<path d="M23.999,32.46C28.671,32.46 32.459,28.672 32.459,24C32.459,19.328 28.671,15.54 23.999,15.54C19.327,15.54 15.539,19.328 15.539,24C15.539,28.672 19.327,32.46 23.999,32.46Z" fill="#FD683D" stroke="#FD683D" stroke-width="1.5" stroke-miterlimit="10" stroke-linecap="round" stroke-linejoin="round"/>
</svg>
