<svg width="48" height="48" viewBox="0 0 48 48" fill="none" xmlns="http://www.w3.org/2000/svg" xmlns:xlink="http://www.w3.org/1999/xlink">
<path d="M2.5,18C2.5,18.828 3.172,19.5 4,19.5C4.828,19.5 5.5,18.828 5.5,18L2.5,18ZM18,5.5C18.828,5.5 19.5,4.828 19.5,4C19.5,3.172 18.828,2.5 18,2.5L18,5.5ZM5.5,18L5.5,13L2.5,13L2.5,18L5.5,18ZM5.5,13C5.5,8.848 8.848,5.5 13,5.5L13,2.5C7.192,2.5 2.5,7.192 2.5,13L5.5,13ZM13,5.5L18,5.5L18,2.5L13,2.5L13,5.5Z" fill="#A7A9B7"/>
<path d="M30,2.5C29.172,2.5 28.5,3.172 28.5,4C28.5,4.828 29.172,5.5 30,5.5L30,2.5ZM42.5,18C42.5,18.828 43.172,19.5 44,19.5C44.828,19.5 45.5,18.828 45.5,18L42.5,18ZM30,5.5L35,5.5L35,2.5L30,2.5L30,5.5ZM35,5.5C39.152,5.5 42.5,8.848 42.5,13L45.5,13C45.5,7.192 40.808,2.5 35,2.5L35,5.5ZM42.5,13L42.5,18L45.5,18L45.5,13L42.5,13Z" fill="#A7A9B7"/>
<path d="M45.5,32C45.5,31.172 44.828,30.5 44,30.5C43.172,30.5 42.5,31.172 42.5,32L45.5,32ZM32,42.5C31.172,42.5 30.5,43.172 30.5,44C30.5,44.828 31.172,45.5 32,45.5L32,42.5ZM42.5,32L42.5,35L45.5,35L45.5,32L42.5,32ZM42.5,35C42.5,39.152 39.152,42.5 35,42.5L35,45.5C40.808,45.5 45.5,40.808 45.5,35L42.5,35ZM35,42.5L32,42.5L32,45.5L35,45.5L35,42.5Z" fill="#A7A9B7"/>
<path d="M18,45.5C18.828,45.5 19.5,44.828 19.5,44C19.5,43.172 18.828,42.5 18,42.5L18,45.5ZM5.5,30C5.5,29.172 4.828,28.5 4,28.5C3.172,28.5 2.5,29.172 2.5,30L5.5,30ZM18,42.5L13,42.5L13,45.5L18,45.5L18,42.5ZM13,42.5C8.848,42.5 5.5,39.152 5.5,35L2.5,35C2.5,40.808 7.192,45.5 13,45.5L13,42.5ZM5.5,35L5.5,30L2.5,30L2.5,35L5.5,35Z" fill="#A7A9B7"/>
<path d="M32.5,19L32.5,29L35.5,29L35.5,19L32.5,19ZM32.5,29C32.5,30.769 32.059,31.82 31.439,32.439C30.82,33.059 29.769,33.5 28,33.5L28,36.5C30.231,36.5 32.18,35.941 33.561,34.561C34.941,33.18 35.5,31.231 35.5,29L32.5,29ZM28,33.5L20,33.5L20,36.5L28,36.5L28,33.5ZM20,33.5C18.231,33.5 17.18,33.059 16.561,32.439C15.941,31.82 15.5,30.769 15.5,29L12.5,29C12.5,31.231 13.059,33.18 14.439,34.561C15.82,35.941 17.769,36.5 20,36.5L20,33.5ZM15.5,29L15.5,19L12.5,19L12.5,29L15.5,29ZM15.5,19C15.5,17.231 15.941,16.18 16.561,15.561C17.18,14.941 18.231,14.5 20,14.5L20,11.5C17.769,11.5 15.82,12.059 14.439,13.439C13.059,14.82 12.5,16.769 12.5,19L15.5,19ZM20,14.5L28,14.5L28,11.5L20,11.5L20,14.5ZM28,14.5C29.769,14.5 30.82,14.941 31.439,15.561C32.059,16.18 32.5,17.231 32.5,19L35.5,19C35.5,16.769 34.941,14.82 33.561,13.439C32.18,12.059 30.231,11.5 28,11.5L28,14.5Z" fill="#A7A9B7"/>
<line x1="10" y1="22.5" x2="38" y2="22.5" stroke="#A7A9B7" stroke-width="1.5" stroke-miterlimit="3.999327" stroke-linecap="round" stroke-linejoin="round"/>
</svg>
