<svg width="48" height="50" viewBox="0 0 48 50" fill="none" xmlns="http://www.w3.org/2000/svg" xmlns:xlink="http://www.w3.org/1999/xlink">
<path d="M40.5,24C40.5,33.665 32.665,41.5 23,41.5L23,44.5C34.322,44.5 43.5,35.322 43.5,24L40.5,24ZM23,41.5C13.335,41.5 5.5,33.665 5.5,24L2.5,24C2.5,35.322 11.678,44.5 23,44.5L23,41.5ZM5.5,24C5.5,14.335 13.335,6.5 23,6.5L23,3.5C11.678,3.5 2.5,12.678 2.5,24L5.5,24ZM23,6.5C32.665,6.5 40.5,14.335 40.5,24L43.5,24C43.5,12.678 34.322,3.5 23,3.5L23,6.5Z" fill="#1D272F"/>
<path d="M42.939,46.061C43.525,46.646 44.475,46.646 45.061,46.061C45.646,45.475 45.646,44.525 45.061,43.939L42.939,46.061ZM41.061,39.939C40.475,39.354 39.525,39.354 38.939,39.939C38.354,40.525 38.354,41.475 38.939,42.061L41.061,39.939ZM45.061,43.939L41.061,39.939L38.939,42.061L42.939,46.061L45.061,43.939Z" fill="#1D272F"/>
</svg>
