<svg width="24" height="24" viewBox="0 0 24 24" fill="none" xmlns="http://www.w3.org/2000/svg" xmlns:xlink="http://www.w3.org/1999/xlink">
<path d="M14.018,2.095L16.071,6.202C16.351,6.773 17.098,7.322 17.728,7.427L21.449,8.045C23.829,8.442 24.389,10.168 22.674,11.872L19.781,14.765C19.291,15.255 19.023,16.2 19.174,16.877L20.003,20.458C20.656,23.293 19.151,24.39 16.643,22.908L13.154,20.843C12.524,20.47 11.486,20.47 10.844,20.843L7.356,22.908C4.859,24.39 3.343,23.282 3.996,20.458L4.824,16.877C4.976,16.2 4.708,15.255 4.218,14.765L1.324,11.872C-0.379,10.168 0.169,8.442 2.549,8.045L6.271,7.427C6.889,7.322 7.636,6.773 7.916,6.202L9.969,2.095C11.089,-0.133 12.909,-0.133 14.018,2.095Z" fill="#FD683D"/>
</svg>
