<svg width="22" height="22" viewBox="0 0 22 22" fill="none" xmlns="http://www.w3.org/2000/svg" xmlns:xlink="http://www.w3.org/1999/xlink">
<path d="M10.319,18.74L10.17,20.233C10.236,20.239 10.303,20.241 10.37,20.239L10.319,18.74ZM9.659,18.74L9.609,20.239C9.671,20.241 9.733,20.239 9.795,20.234L9.659,18.74ZM18.879,9.88L20.379,9.886L20.379,9.88L18.879,9.88ZM10.468,17.247C10.165,17.217 9.829,17.218 9.523,17.246L9.795,20.234C9.929,20.222 10.073,20.223 10.17,20.233L10.468,17.247ZM9.71,17.241C5.76,17.108 2.619,13.873 2.619,9.88L-0.381,9.88C-0.381,15.487 4.038,20.052 9.609,20.239L9.71,17.241ZM2.619,9.88C2.619,5.806 5.91,2.5 9.999,2.5L9.999,-0.5C4.249,-0.5 -0.381,4.154 -0.381,9.88L2.619,9.88ZM9.999,2.5C14.071,2.5 17.379,5.808 17.379,9.88L20.379,9.88C20.379,4.152 15.728,-0.5 9.999,-0.5L9.999,2.5ZM17.379,9.874C17.363,13.873 14.217,17.108 10.269,17.241L10.37,20.239C15.941,20.052 20.356,15.487 20.379,9.886L17.379,9.874Z" fill="#A7A9B7"/>
</svg>
