<svg width="34" height="32" viewBox="0 0 34 32" fill="none" xmlns="http://www.w3.org/2000/svg" xmlns:xlink="http://www.w3.org/1999/xlink">
<path d="M-0.666,10.99C-0.666,5.472 3.795,1 9.335,1L22.666,1C28.19,1 32.667,5.491 32.667,10.99L32.667,31L9.335,31C3.812,31 -0.666,26.509 -0.666,21.01L-0.666,10.99ZM29.334,27.667L29.334,10.99C29.334,7.326 26.342,4.333 22.666,4.333L9.335,4.333C5.642,4.333 2.667,7.308 2.667,10.99L2.667,21.01C2.667,24.674 5.659,27.667 9.335,27.667L29.334,27.667ZM19.334,14.333L22.667,14.333L22.667,17.667L19.334,17.667L19.334,14.333ZM9.334,14.333L12.667,14.333L12.667,17.667L9.334,17.667L9.334,14.333Z" fill="#000000"/>
</svg>
