<svg width="30" height="22" viewBox="0 0 30 22" fill="none" xmlns="http://www.w3.org/2000/svg" xmlns:xlink="http://www.w3.org/1999/xlink">
<path d="M4.319,4.12L3.491,2.87L3.485,2.874L4.319,4.12ZM4.319,15.86L5.154,14.613L5.15,14.611L4.319,15.86ZM24.339,15.86L25.174,17.107L25.174,17.106L24.339,15.86ZM24.339,4.12L23.506,5.367L23.509,5.369L24.339,4.12ZM3.485,2.874C0.754,4.702 -0.811,7.255 -0.811,9.998C-0.811,12.741 0.755,15.291 3.489,17.109L5.15,14.611C3.043,13.209 2.189,11.509 2.189,9.998C2.189,8.485 3.045,6.779 5.154,5.366L3.485,2.874ZM3.485,17.107C6.534,19.146 10.471,20.12 14.329,20.12C18.188,20.12 22.125,19.146 25.174,17.107L23.505,14.613C21.054,16.254 17.731,17.12 14.329,17.12C10.928,17.12 7.605,16.254 5.154,14.613L3.485,17.107ZM25.174,17.106C27.905,15.279 29.469,12.725 29.469,9.983C29.469,7.239 27.903,4.689 25.17,2.871L23.509,5.369C25.615,6.771 26.469,8.471 26.469,9.983C26.469,11.495 25.614,13.202 23.505,14.614L25.174,17.106ZM25.173,2.873C22.133,0.843 18.201,-0.125 14.344,-0.125C10.488,-0.125 6.547,0.843 3.491,2.87L5.148,5.37C7.611,3.737 10.941,2.875 14.344,2.875C17.748,2.875 21.065,3.737 23.506,5.367L25.173,2.873Z" fill="#A7A9B7"/>
</svg>
