<svg width="34" height="34" viewBox="0 0 34 34" fill="none" xmlns="http://www.w3.org/2000/svg" xmlns:xlink="http://www.w3.org/1999/xlink">
<path d="M28.384,17.633C28.451,17.1 28.501,16.566 28.501,16C28.501,15.433 28.451,14.9 28.384,14.366L31.901,11.616C32.217,11.366 32.301,10.916 32.101,10.55L28.767,4.783C28.617,4.516 28.334,4.366 28.034,4.366C27.934,4.366 27.834,4.383 27.751,4.416L23.601,6.083C22.734,5.416 21.801,4.866 20.784,4.45L20.151,0.033C20.101,-0.367 19.751,-0.667 19.334,-0.667L12.667,-0.667C12.251,-0.667 11.901,-0.367 11.851,0.033L11.217,4.45C10.201,4.866 9.267,5.433 8.401,6.083L4.251,4.416C4.151,4.383 4.051,4.366 3.951,4.366C3.667,4.366 3.384,4.516 3.234,4.783L-0.099,10.55C-0.316,10.916 -0.216,11.366 0.101,11.616L3.617,14.366C3.551,14.9 3.501,15.45 3.501,16C3.501,16.55 3.551,17.1 3.617,17.633L0.101,20.383C-0.216,20.633 -0.299,21.083 -0.099,21.45L3.234,27.216C3.384,27.483 3.667,27.633 3.967,27.633C4.067,27.633 4.167,27.616 4.251,27.583L8.401,25.916C9.267,26.583 10.201,27.133 11.217,27.55L11.851,31.966C11.901,32.366 12.251,32.666 12.667,32.666L19.334,32.666C19.751,32.666 20.101,32.366 20.151,31.966L20.784,27.55C21.801,27.133 22.734,26.566 23.601,25.916L27.751,27.583C27.851,27.616 27.951,27.633 28.051,27.633C28.334,27.633 28.617,27.483 28.767,27.216L32.101,21.45C32.301,21.083 32.217,20.633 31.901,20.383L28.384,17.633ZM25.084,14.783C25.151,15.3 25.167,15.65 25.167,16C25.167,16.35 25.134,16.716 25.084,17.216L24.851,19.1L26.334,20.266L28.134,21.666L26.967,23.683L24.851,22.833L23.117,22.133L21.617,23.266C20.901,23.8 20.217,24.2 19.534,24.483L17.767,25.2L17.501,27.083L17.167,29.333L14.834,29.333L14.517,27.083L14.251,25.2L12.484,24.483C11.767,24.183 11.101,23.8 10.434,23.3L8.917,22.133L7.151,22.85L5.034,23.7L3.867,21.683L5.667,20.283L7.151,19.116L6.917,17.233C6.867,16.716 6.834,16.333 6.834,16C6.834,15.666 6.867,15.283 6.917,14.783L7.151,12.9L5.667,11.733L3.867,10.333L5.034,8.316L7.151,9.166L8.884,9.866L10.384,8.733C11.101,8.2 11.784,7.8 12.467,7.516L14.234,6.8L14.501,4.916L14.834,2.666L17.151,2.666L17.467,4.916L17.734,6.8L19.501,7.516C20.217,7.816 20.884,8.2 21.551,8.7L23.067,9.866L24.834,9.15L26.951,8.3L28.117,10.316L26.334,11.733L24.851,12.9L25.084,14.783ZM16.001,9.333C12.317,9.333 9.334,12.316 9.334,16C9.334,19.683 12.317,22.666 16.001,22.666C19.684,22.666 22.667,19.683 22.667,16C22.667,12.316 19.684,9.333 16.001,9.333ZM16.001,19.333C14.167,19.333 12.667,17.833 12.667,16C12.667,14.166 14.167,12.666 16.001,12.666C17.834,12.666 19.334,14.166 19.334,16C19.334,17.833 17.834,19.333 16.001,19.333Z" fill="#000000"/>
</svg>
