<svg width="18" height="20" viewBox="0 0 18 20" fill="none" xmlns="http://www.w3.org/2000/svg" xmlns:xlink="http://www.w3.org/1999/xlink">
<path d="M9.056,16.844L8.927,18.133C8.985,18.138 9.042,18.14 9.1,18.138L9.056,16.844ZM8.486,16.844L8.443,18.138C8.497,18.14 8.55,18.138 8.604,18.134L8.486,16.844ZM16.446,9.195L17.741,9.2L17.741,9.195L16.446,9.195ZM9.185,15.555C8.923,15.529 8.633,15.53 8.369,15.554L8.604,18.134C8.72,18.123 8.844,18.124 8.927,18.133L9.185,15.555ZM8.53,15.55C5.12,15.435 2.409,12.642 2.409,9.195L-0.181,9.195C-0.181,14.035 3.634,17.977 8.443,18.138L8.53,15.55ZM2.409,9.195C2.409,5.678 5.249,2.823 8.78,2.823L8.78,0.233C3.815,0.233 -0.181,4.251 -0.181,9.195L2.409,9.195ZM8.78,2.823C12.295,2.823 15.151,5.68 15.151,9.195L17.741,9.195C17.741,4.249 13.726,0.233 8.78,0.233L8.78,2.823ZM15.151,9.189C15.137,12.642 12.422,15.435 9.013,15.55L9.1,18.138C13.91,17.977 17.721,14.036 17.741,9.2L15.151,9.189Z" transform="rotate(24.608 8.78 9.186)" fill="#A7A9B7"/>
</svg>
