<svg width="44" height="44" viewBox="0 0 44 44" fill="none" xmlns="http://www.w3.org/2000/svg" xmlns:xlink="http://www.w3.org/1999/xlink">
<path d="M40.08,37.88L41.191,38.888L41.191,38.887L40.08,37.88ZM36.8,40.24L36.231,38.852L36.223,38.855L36.8,40.24ZM19.5,35.58L18.615,36.791L18.617,36.793L19.5,35.58ZM12.94,29.98L11.874,31.036L11.884,31.046L12.94,29.98ZM7.36,23.44L6.142,24.316L6.147,24.323L7.36,23.44ZM3.44,16.62L2.058,17.202L2.059,17.206L3.44,16.62ZM2.72,6.22L4.113,6.777L4.116,6.769L2.72,6.22ZM5.02,2.88L6.049,3.971L6.061,3.96L6.072,3.949L5.02,2.88ZM10.8,1.36L10.151,2.712L10.171,2.722L10.8,1.36ZM12.14,2.48L10.907,3.334L10.917,3.348L12.14,2.48ZM16.78,9.02L15.557,9.888L15.563,9.896L16.78,9.02ZM17.58,10.42L16.191,10.988L16.201,11.011L17.58,10.42ZM17.44,13.06L16.159,12.28L16.146,12.301L16.134,12.322L17.44,13.06ZM16.32,14.48L15.259,13.419L15.249,13.43L15.239,13.44L16.32,14.48ZM14.8,16.06L15.861,17.121L15.871,17.11L15.881,17.1L14.8,16.06ZM14.54,17.32L13.085,17.684L13.106,17.767L13.136,17.847L14.54,17.32ZM14.7,17.72L13.277,18.194L13.319,18.321L13.383,18.438L14.7,17.72ZM16.56,20.28L15.415,21.249L15.426,21.262L16.56,20.28ZM19.46,23.44L18.389,24.491L18.399,24.501L18.409,24.511L19.46,23.44ZM22.64,26.38L21.669,27.523L21.671,27.525L22.64,26.38ZM25.22,28.22L24.518,29.546L24.589,29.583L24.663,29.613L25.22,28.22ZM25.58,28.38L24.989,29.759L25.021,29.772L25.053,29.784L25.58,28.38ZM26.9,28.12L25.846,27.052L25.839,27.059L26.9,28.12ZM28.42,26.62L29.474,27.688L29.481,27.681L28.42,26.62ZM29.86,25.5L30.554,26.83L30.598,26.807L30.64,26.781L29.86,25.5ZM33.9,26.12L34.768,24.897L34.756,24.888L34.743,24.88L33.9,26.12ZM40.52,30.82L39.652,32.043L39.666,32.053L40.52,30.82ZM41.62,32.1L43.013,31.543L43.003,31.519L42.993,31.496L41.62,32.1ZM40.44,33.66C40.44,34.155 40.331,34.677 40.084,35.199L42.796,36.481C43.229,35.563 43.44,34.605 43.44,33.66L40.44,33.66ZM40.084,35.199C39.803,35.793 39.444,36.348 38.969,36.873L41.191,38.887C41.876,38.132 42.397,37.327 42.796,36.481L40.084,35.199ZM38.969,36.872C38.121,37.806 37.221,38.446 36.231,38.852L37.369,41.628C38.819,41.034 40.079,40.114 41.191,38.888L38.969,36.872ZM36.223,38.855C35.213,39.276 34.11,39.5 32.9,39.5L32.9,42.5C34.49,42.5 35.987,42.204 37.377,41.625L36.223,38.855ZM32.9,39.5C31.097,39.5 29.117,39.076 26.968,38.16L25.792,40.92C28.243,41.964 30.623,42.5 32.9,42.5L32.9,39.5ZM26.968,38.16C24.783,37.229 22.581,35.968 20.383,34.367L18.617,36.793C20.979,38.512 23.377,39.891 25.792,40.92L26.968,38.16ZM20.385,34.369C18.147,32.734 16.024,30.923 13.996,28.914L11.884,31.046C14.016,33.157 16.253,35.066 18.615,36.791L20.385,34.369ZM14.006,28.924C11.997,26.896 10.186,24.774 8.573,22.557L6.147,24.323C7.854,26.666 9.763,28.904 11.874,31.036L14.006,28.924ZM8.578,22.564C6.99,20.358 5.73,18.174 4.821,16.034L2.059,17.206C3.07,19.586 4.449,21.963 6.142,24.316L8.578,22.564ZM4.822,16.038C3.926,13.908 3.5,11.926 3.5,10.08L0.5,10.08C0.5,12.394 1.034,14.772 2.058,17.202L4.822,16.038ZM3.5,10.08C3.5,8.898 3.708,7.788 4.113,6.777L1.327,5.663C0.772,7.052 0.5,8.542 0.5,10.08L3.5,10.08ZM4.116,6.769C4.51,5.767 5.14,4.829 6.049,3.971L3.991,1.789C2.78,2.931 1.89,4.233 1.324,5.671L4.116,6.769ZM6.072,3.949C7.126,2.912 8.164,2.5 9.18,2.5L9.18,-0.5C7.236,-0.5 5.474,0.328 3.968,1.811L6.072,3.949ZM9.18,2.5C9.53,2.5 9.866,2.576 10.151,2.712L11.449,0.008C10.734,-0.336 9.95,-0.5 9.18,-0.5L9.18,2.5ZM10.171,2.722C10.469,2.859 10.712,3.052 10.907,3.334L13.373,1.626C12.848,0.868 12.171,0.341 11.429,-0.002L10.171,2.722ZM10.917,3.348L15.557,9.888L18.003,8.152L13.363,1.612L10.917,3.348ZM15.563,9.896C15.868,10.321 16.065,10.678 16.192,10.988L18.968,9.852C18.735,9.282 18.412,8.719 17.997,8.144L15.563,9.896ZM16.201,11.011C16.323,11.294 16.36,11.511 16.36,11.64L19.36,11.64C19.36,11.008 19.197,10.386 18.959,9.829L16.201,11.011ZM16.36,11.64C16.36,11.818 16.31,12.031 16.159,12.28L18.721,13.84C19.13,13.169 19.36,12.422 19.36,11.64L16.36,11.64ZM16.134,12.322C15.958,12.634 15.671,13.007 15.259,13.419L17.381,15.541C17.929,14.993 18.402,14.406 18.746,13.798L16.134,12.322ZM15.239,13.44L13.719,15.02L15.881,17.1L17.401,15.52L15.239,13.44ZM13.739,14.999C13.215,15.524 12.98,16.176 12.98,16.86L15.98,16.86C15.98,16.859 15.98,16.905 15.952,16.975C15.923,17.048 15.884,17.097 15.861,17.121L13.739,14.999ZM12.98,16.86C12.98,17.162 13.02,17.425 13.085,17.684L15.995,16.956C15.98,16.895 15.98,16.878 15.98,16.86L12.98,16.86ZM13.136,17.847C13.179,17.962 13.222,18.063 13.246,18.119C13.275,18.188 13.278,18.198 13.277,18.194L16.123,17.246C16.082,17.122 16.035,17.012 16.009,16.951C15.978,16.877 15.961,16.838 15.945,16.793L13.136,17.847ZM13.383,18.438C13.814,19.228 14.508,20.178 15.415,21.249L17.705,19.311C16.852,18.302 16.306,17.532 16.017,17.002L13.383,18.438ZM15.426,21.262C16.341,22.319 17.322,23.403 18.389,24.491L20.531,22.389C19.518,21.357 18.579,20.321 17.694,19.298L15.426,21.262ZM18.409,24.511C19.501,25.582 20.57,26.59 21.669,27.523L23.611,25.237C22.59,24.37 21.579,23.418 20.511,22.369L18.409,24.511ZM21.671,27.525C22.755,28.443 23.707,29.116 24.518,29.546L25.922,26.894C25.373,26.604 24.605,26.077 23.609,25.235L21.671,27.525ZM24.663,29.613C24.673,29.617 24.695,29.626 24.76,29.656C24.815,29.681 24.898,29.72 24.989,29.759L26.171,27.001C26.122,26.98 26.075,26.959 26.01,26.929C25.955,26.904 25.867,26.863 25.777,26.827L24.663,29.613ZM25.053,29.784C25.433,29.927 25.784,29.96 26.08,29.96L26.08,26.96C26.045,26.96 26.038,26.958 26.047,26.959C26.052,26.96 26.061,26.962 26.072,26.965C26.083,26.967 26.095,26.971 26.107,26.976L25.053,29.784ZM26.08,29.96C26.839,29.96 27.475,29.667 27.961,29.181L25.839,27.059C25.844,27.054 25.88,27.021 25.947,26.992C26.015,26.963 26.068,26.96 26.08,26.96L26.08,29.96ZM27.954,29.188L29.474,27.688L27.366,25.552L25.846,27.052L27.954,29.188ZM29.481,27.681C29.92,27.241 30.278,26.974 30.554,26.83L29.166,24.17C28.522,24.506 27.92,24.999 27.359,25.559L29.481,27.681ZM30.64,26.781C30.894,26.626 31.088,26.58 31.28,26.58L31.28,23.58C30.472,23.58 29.746,23.814 29.08,24.219L30.64,26.781ZM31.28,26.58C31.44,26.58 31.648,26.612 31.932,26.728L33.068,23.952C32.472,23.708 31.88,23.58 31.28,23.58L31.28,26.58ZM31.932,26.728C32.246,26.857 32.612,27.058 33.057,27.36L34.743,24.88C34.188,24.502 33.634,24.183 33.068,23.952L31.932,26.728ZM33.032,27.343L39.652,32.043L41.388,29.597L34.768,24.897L33.032,27.343ZM39.666,32.053C39.993,32.28 40.155,32.494 40.247,32.704L42.993,31.496C42.645,30.706 42.087,30.08 41.374,29.587L39.666,32.053ZM40.227,32.657C40.372,33.02 40.44,33.33 40.44,33.66L43.44,33.66C43.44,32.87 43.268,32.18 43.013,31.543L40.227,32.657Z" fill="#A7A9B7"/>
</svg>
